<svg width="24" height="24" viewBox="0 0 24 24" fill="none" xmlns="http://www.w3.org/2000/svg">
<path d="M12.1579 21C10.5572 21 9.24908 20.7704 8.23366 20.3113C7.21824 19.8523 6.71053 19.259 6.71053 18.5314C6.71053 18.2436 6.80803 17.9733 7.00303 17.7207C7.19787 17.4681 7.47505 17.2403 7.83458 17.0374C8.001 16.9281 8.18258 16.8908 8.37932 16.9254C8.57605 16.9599 8.72913 17.0604 8.83855 17.2269C8.94782 17.3933 8.98121 17.5734 8.93874 17.7671C8.89626 17.9608 8.79182 18.1123 8.62539 18.2216C8.52213 18.2581 8.42345 18.3036 8.32934 18.3583C8.23508 18.4129 8.17887 18.4675 8.16071 18.5222C8.31734 18.8053 8.78345 19.0521 9.55903 19.2628C10.3344 19.4736 11.2007 19.5789 12.1579 19.5789C13.1151 19.5789 13.9813 19.4736 14.7568 19.2628C15.5323 19.0521 15.9984 18.8053 16.1551 18.5222C16.1369 18.4675 16.0807 18.4129 15.9864 18.3583C15.8923 18.3036 15.7937 18.2581 15.6904 18.2216C15.524 18.1123 15.4195 17.9608 15.3771 17.7671C15.3346 17.5734 15.368 17.3933 15.4772 17.2269C15.5867 17.0604 15.7397 16.9599 15.9365 16.9254C16.1332 16.8908 16.3148 16.9281 16.4812 17.0374C16.8407 17.2403 17.1179 17.4681 17.3128 17.7207C17.5078 17.9733 17.6053 18.2436 17.6053 18.5314C17.6053 19.259 17.0976 19.8523 16.0821 20.3113C15.0667 20.7704 13.7586 21 12.1579 21ZM12.1816 16.3816C13.7507 15.1925 14.9286 14.0147 15.715 12.8481C16.5015 11.6814 16.8947 10.5231 16.8947 9.37295C16.8947 7.73811 16.3831 6.50408 15.3598 5.67087C14.3364 4.83766 13.2692 4.42105 12.1579 4.42105C11.0526 4.42105 9.98684 4.83766 8.96053 5.67087C7.93421 6.50408 7.42105 7.73811 7.42105 9.37295C7.42105 10.449 7.80939 11.564 8.58608 12.7179C9.36276 13.8718 10.5613 15.093 12.1816 16.3816ZM12.1579 17.7444C11.9866 17.7444 11.8153 17.7143 11.6442 17.6541C11.4729 17.594 11.3143 17.5068 11.1686 17.3927C9.43303 15.9936 8.13774 14.6284 7.28274 13.2972C6.42758 11.966 6 10.6579 6 9.37295C6 8.31868 6.18616 7.395 6.55847 6.6019C6.93079 5.80879 7.41142 5.14468 8.00037 4.60958C8.58947 4.07463 9.24995 3.67263 9.98179 3.40358C10.7135 3.13453 11.4388 3 12.1579 3C12.8769 3 13.6023 3.13453 14.334 3.40358C15.0658 3.67263 15.7263 4.07463 16.3154 4.60958C16.9044 5.14468 17.385 5.80879 17.7573 6.6019C18.1296 7.395 18.3158 8.31868 18.3158 9.37295C18.3158 10.6579 17.8882 11.966 17.0331 13.2972C16.1781 14.6284 14.8828 15.9936 13.1472 17.3927C13.0014 17.5068 12.8429 17.594 12.6716 17.6541C12.5004 17.7143 12.3292 17.7444 12.1579 17.7444ZM12.1579 10.9524C12.6303 10.9524 13.0338 10.7867 13.3684 10.4551C13.7031 10.1235 13.8705 9.71842 13.8705 9.23984C13.8705 8.76742 13.7031 8.36392 13.3684 8.02934C13.0338 7.69461 12.6303 7.52724 12.1579 7.52724C11.6915 7.52724 11.2895 7.69461 10.9519 8.02934C10.6142 8.36392 10.4453 8.76742 10.4453 9.23984C10.4453 9.71842 10.6142 10.1235 10.9519 10.4551C11.2895 10.7867 11.6915 10.9524 12.1579 10.9524Z" fill="black"/>
</svg>
