<svg width="24" height="24" viewBox="0 0 24 24" fill="none" xmlns="http://www.w3.org/2000/svg">
<path d="M14.9152 14.8928C16.8306 11.8872 16.5898 12.2622 16.645 12.1838C17.3424 11.2002 17.7109 10.0426 17.7109 8.83594C17.7109 5.63602 15.1143 3 11.9102 3C8.71649 3 6.10938 5.63081 6.10938 8.83594C6.10938 10.0418 6.48569 11.2298 7.2059 12.2266L8.90507 14.8929C7.08837 15.172 4 16.004 4 17.8359C4 18.5037 4.43587 19.4554 6.51234 20.197C7.96225 20.7148 9.87921 21 11.9102 21C15.7079 21 19.8203 19.9287 19.8203 17.8359C19.8203 16.0037 16.7356 15.1726 14.9152 14.8928ZM8.08688 11.6465C8.08108 11.6374 8.07502 11.6286 8.0687 11.6199C7.46939 10.7954 7.16406 9.81824 7.16406 8.83594C7.16406 6.19859 9.28771 4.05469 11.9102 4.05469C14.5272 4.05469 16.6562 6.19954 16.6562 8.83594C16.6562 9.81982 16.3567 10.7638 15.7898 11.5666C15.739 11.6336 16.004 11.2218 11.9102 17.6457L8.08688 11.6465ZM11.9102 19.9453C7.76193 19.9453 5.05469 18.726 5.05469 17.8359C5.05469 17.2377 6.44575 16.2541 9.52825 15.8707L11.4654 18.9104C11.5131 18.9852 11.5788 19.0467 11.6565 19.0893C11.7342 19.132 11.8215 19.1543 11.9101 19.1543C11.9988 19.1543 12.086 19.132 12.1637 19.0893C12.2415 19.0467 12.3072 18.9852 12.3548 18.9104L14.292 15.8707C17.3745 16.2541 18.7656 17.2377 18.7656 17.8359C18.7656 18.7184 16.0827 19.9453 11.9102 19.9453Z" fill="black"/>
<path d="M11.9102 6.19922C10.4563 6.19922 9.27344 7.38205 9.27344 8.83594C9.27344 10.2898 10.4563 11.4727 11.9102 11.4727C13.364 11.4727 14.5469 10.2898 14.5469 8.83594C14.5469 7.38205 13.364 6.19922 11.9102 6.19922ZM11.9102 10.418C11.0378 10.418 10.3281 9.70827 10.3281 8.83594C10.3281 7.96361 11.0378 7.25391 11.9102 7.25391C12.7825 7.25391 13.4922 7.96361 13.4922 8.83594C13.4922 9.70827 12.7825 10.418 11.9102 10.418Z" fill="black"/>
</svg>
