<svg width="24" height="24" viewBox="0 0 24 24" fill="none" xmlns="http://www.w3.org/2000/svg">
<path d="M9.46456 9.49983H14.5354M9.46456 9.49983V14.51M9.46456 9.49983H4.39365V14.51H9.46456M14.5354 9.49983V14.51M14.5354 9.49983H19.6063V14.51H14.5354M14.5354 14.51H9.46456M12 11.0788V9.49983M17.0709 11.0788V9.49983M9.46456 2H14.5354M9.46456 2V7.01021M9.46456 2H4.39365V7.01021H9.46456M14.5354 2V7.01021M14.5354 2H19.6063V7.01021H14.5354M14.5354 7.01021H9.46456M12 3.57892V2M6.92913 3.57892V2M6.92913 11.0788V9.49983M17.0709 3.57892V2M15.587 16.9997H22V14.51H2V16.9997H8.3971M2 7.01021H22V9.49983H2V7.01021Z" stroke="black" stroke-width="1.05" stroke-miterlimit="10" stroke-linecap="round" stroke-linejoin="round"/>
<path d="M12 22C14.0675 22 15.7436 20.3233 15.7436 18.255C15.7436 16.1867 14.0675 14.51 12 14.51C9.93242 14.51 8.25635 16.1867 8.25635 18.255C8.25635 20.3233 9.93242 22 12 22Z" stroke="black" stroke-width="1.05" stroke-miterlimit="10" stroke-linecap="round" stroke-linejoin="round"/>
<path d="M10.7859 18.4251L11.6205 19.2597L13.2142 17.666" stroke="black" stroke-width="1.05" stroke-miterlimit="10" stroke-linecap="round" stroke-linejoin="round"/>
</svg>
