<svg width="24" height="24" viewBox="0 0 24 24" fill="none" xmlns="http://www.w3.org/2000/svg">
<path d="M6.96896 11.469L14.469 3.96896C14.5386 3.89927 14.6214 3.844 14.7124 3.80629C14.8035 3.76858 14.901 3.74916 14.9996 3.74916C15.0981 3.74916 15.1957 3.76858 15.2868 3.80629C15.3778 3.844 15.4605 3.89927 15.5302 3.96896C15.5999 4.03864 15.6552 4.12136 15.6929 4.21241C15.7306 4.30345 15.75 4.40104 15.75 4.49958C15.75 4.59813 15.7306 4.69571 15.6929 4.78675C15.6552 4.8778 15.5999 4.96052 15.5302 5.03021L8.5599 11.9996L15.5302 18.969C15.6709 19.1097 15.75 19.3006 15.75 19.4996C15.75 19.6986 15.6709 19.8895 15.5302 20.0302C15.3895 20.1709 15.1986 20.25 14.9996 20.25C14.8006 20.25 14.6097 20.1709 14.469 20.0302L6.96896 12.5302C6.89923 12.4606 6.84391 12.3778 6.80616 12.2868C6.76842 12.1957 6.74899 12.0981 6.74899 11.9996C6.74899 11.901 6.76842 11.8034 6.80616 11.7124C6.84391 11.6213 6.89923 11.5386 6.96896 11.469Z" fill="#121212"/>
</svg>
