<svg width="24" height="24" viewBox="0 0 24 24" fill="none" xmlns="http://www.w3.org/2000/svg">
<path d="M14.4896 2C13.1203 2 12 3.12183 12 4.4929C12 3.12183 10.8797 2 9.51037 2H2V20.3334H22V2H14.4896Z" stroke="black" stroke-miterlimit="10" stroke-linecap="round" stroke-linejoin="round"/>
<path d="M22 17.8405H14.4896C13.1203 17.8405 12 18.9623 12 20.3334M12 20.3334C12 18.9623 10.8797 17.8405 9.51037 17.8405H2M12 20.3334V4.49292M19.3884 17.8405V22M4.68568 4.89483H9.33651V8.7089H4.68568V4.89483ZM4.68568 11.2919H9.33651V15.106H4.68568V11.2919ZM14.7376 4.89483H19.3884V8.7089H14.7376V4.89483ZM14.7376 11.2919H19.3884V15.106H14.7376V11.2919Z" stroke="black" stroke-miterlimit="10" stroke-linecap="round" stroke-linejoin="round"/>
</svg>
