<svg width="24" height="24" viewBox="0 0 24 24" fill="none" xmlns="http://www.w3.org/2000/svg">
<mask id="mask0_675_1729" style="mask-type:alpha" maskUnits="userSpaceOnUse" x="0" y="0" width="24" height="24">
<rect width="24" height="24" fill="#D9D9D9"/>
</mask>
<g mask="url(#mask0_675_1729)">
<path d="M0.630005 13.2941V3.33944C0.630005 2.6857 0.856476 2.13235 1.30942 1.67941C1.76236 1.22647 2.3157 1 2.96945 1H10.3359V13.2941H0.630005ZM12.9241 1H20.2906C20.9443 1 21.4977 1.22647 21.9506 1.67941C22.4035 2.13235 22.63 2.6871 22.63 3.34365V8.11765H12.9241V1ZM12.9241 23V10.7059H22.63V20.6606C22.63 21.3143 22.4035 21.8676 21.9506 22.3206C21.4977 22.7735 20.9443 23 20.2906 23H12.9241ZM0.630005 15.8824H10.3359V23H2.96945C2.3157 23 1.76236 22.7735 1.30942 22.3206C0.856476 21.8676 0.630005 21.3129 0.630005 20.6564V15.8824ZM2.57118 11.3529H8.39471V2.94118H2.96945C2.85319 2.94118 2.75775 2.97849 2.68312 3.05312C2.6085 3.12775 2.57118 3.22319 2.57118 3.33944V11.3529ZM14.8653 6.17647H20.6888V3.33944C20.6888 3.22319 20.6515 3.12775 20.5769 3.05312C20.5023 2.97849 20.4068 2.94118 20.2906 2.94118H14.8653V6.17647ZM14.8653 12.6471V21.0588H20.2906C20.4068 21.0588 20.5023 21.0215 20.5769 20.9469C20.6515 20.8723 20.6888 20.7768 20.6888 20.6606V12.6471H14.8653ZM2.57118 17.8235V20.6606C2.57118 20.7768 2.6085 20.8723 2.68312 20.9469C2.75775 21.0215 2.85319 21.0588 2.96945 21.0588H8.39471V17.8235H2.57118Z" fill="black"/>
</g>
</svg>
