<svg width="24" height="24" viewBox="0 0 24 24" fill="none" xmlns="http://www.w3.org/2000/svg">
<path d="M20.8478 13.4783H3.15218C1.96546 13.4783 1 14.4437 1 15.6304V19.9348C1 21.1215 1.96546 22.087 3.15218 22.087H20.8478C22.0345 22.087 23 21.1215 23 19.9348V15.6304C23 14.4437 22.0345 13.4783 20.8478 13.4783ZM21.5652 19.9348C21.5652 20.3304 21.2434 20.6522 20.8478 20.6522H3.15218C2.75661 20.6522 2.43477 20.3304 2.43477 19.9348V15.6304C2.43477 15.2349 2.75661 14.913 3.15218 14.913H20.8478C21.2434 14.913 21.5652 15.2349 21.5652 15.6304V19.9348Z" fill="black"/>
<path d="M7.27541 17.7826L7.7827 17.2754C8.06285 16.9952 8.06285 16.541 7.7827 16.2609C7.5025 15.9807 7.04832 15.9807 6.76816 16.2609L6.26087 16.7681L5.75358 16.2608C5.47347 15.9807 5.0192 15.9807 4.73905 16.2608C4.45893 16.5409 4.45893 16.9952 4.73905 17.2753L5.24634 17.7826L4.73905 18.2899C4.45889 18.57 4.45889 19.0243 4.73905 19.3044C5.01916 19.5845 5.47338 19.5846 5.75358 19.3044L6.26087 18.7972L6.76816 19.3045C7.04832 19.5846 7.50254 19.5846 7.7827 19.3045C8.06281 19.0243 8.06281 18.5701 7.7827 18.2899L7.27541 17.7826ZM13.0145 17.7826L13.5218 17.2754C13.802 16.9952 13.802 16.541 13.5218 16.2609C13.2416 15.9807 12.7874 15.9807 12.5073 16.2609L12 16.7681L11.4927 16.2608C11.2126 15.9807 10.7583 15.9807 10.4782 16.2608C10.1981 16.5409 10.1981 16.9952 10.4782 17.2753L10.9855 17.7826L10.4782 18.2899C10.198 18.57 10.198 19.0243 10.4782 19.3044C10.7583 19.5845 11.2125 19.5846 11.4927 19.3044L12 18.7972L12.5073 19.3045C12.7874 19.5846 13.2417 19.5846 13.5218 19.3045C13.8019 19.0243 13.8019 18.5701 13.5218 18.2899L13.0145 17.7826ZM18.7536 17.7826L19.2609 17.2754C19.5411 16.9952 19.5411 16.541 19.2609 16.2609C18.9808 15.9807 18.5266 15.9807 18.2464 16.2609L17.7391 16.7681L17.2318 16.2608C16.9517 15.9807 16.4974 15.9807 16.2173 16.2608C15.9372 16.5409 15.9372 16.9952 16.2173 17.2753L16.7246 17.7826L16.2173 18.2899C15.9371 18.57 15.9371 19.0243 16.2173 19.3044C16.4974 19.5845 16.9516 19.5846 17.2318 19.3044L17.7391 18.7972L18.2464 19.3045C18.5266 19.5846 18.9808 19.5846 19.2609 19.3045C19.5411 19.0243 19.5411 18.5701 19.2609 18.2899L18.7536 17.7826ZM15.5869 6.30439H14.8695V4.86958C14.8695 3.2873 13.5822 2 12 2C10.4177 2 9.13037 3.2873 9.13037 4.86958V6.30435H8.41296C8.01679 6.30435 7.69556 6.62554 7.69556 7.02176V11.3261C7.69556 11.7223 8.01675 12.0435 8.41296 12.0435H15.5869C15.9831 12.0435 16.3043 11.7223 16.3043 11.3261V7.02176C16.3043 6.62559 15.9832 6.30439 15.5869 6.30439ZM10.5652 4.86958C10.5652 4.07844 11.2089 3.43481 12 3.43481C12.7911 3.43481 13.4348 4.07844 13.4348 4.86958V6.30435H10.5652L10.5652 4.86958ZM14.8696 10.6087H9.13041V7.73916H14.8695L14.8696 10.6087Z" fill="black"/>
</svg>
