<svg width="24" height="24" viewBox="0 0 24 24" fill="none" xmlns="http://www.w3.org/2000/svg">
<path d="M3 18.3333H4.66667V20.3333C4.6672 20.7752 4.84296 21.1988 5.15541 21.5113C5.46785 21.8237 5.89147 21.9995 6.33333 22H17.6667C18.1085 21.9995 18.5321 21.8237 18.8446 21.5113C19.157 21.1988 19.3328 20.7752 19.3333 20.3333V18.3333H21C21.2652 18.3333 21.5196 18.228 21.7071 18.0404C21.8946 17.8529 22 17.5986 22 17.3333V14C22 13.7348 21.8946 13.4804 21.7071 13.2929C21.5196 13.1054 21.2652 13 21 13H19.3333V11C19.3328 10.5581 19.157 10.1345 18.8446 9.82207C18.5321 9.50963 18.1085 9.33386 17.6667 9.33333V7.66667C17.6667 4.537 15.1297 2 12 2C8.87033 2 6.33333 4.537 6.33333 7.66667V9.33333C5.89147 9.33386 5.46785 9.50963 5.15541 9.82207C4.84296 10.1345 4.6672 10.5581 4.66667 11V13H3C2.73478 13 2.48043 13.1054 2.29289 13.2929C2.10536 13.4804 2 13.7348 2 14V17.3333C2 17.5986 2.10536 17.8529 2.29289 18.0404C2.48043 18.228 2.73478 18.3333 3 18.3333ZM18.6667 20.3333C18.6667 20.5986 18.5613 20.8529 18.3738 21.0404C18.1862 21.228 17.9319 21.3333 17.6667 21.3333H6.33333C6.06812 21.3333 5.81376 21.228 5.62623 21.0404C5.43869 20.8529 5.33333 20.5986 5.33333 20.3333V18.3333H18.6667V20.3333ZM7 7.66667C7 4.90533 9.23867 2.66667 12 2.66667C14.7613 2.66667 17 4.90533 17 7.66667V9.33333H15.6667V7.66667C15.6667 5.64167 14.025 4 12 4C9.975 4 8.33333 5.64167 8.33333 7.66667V9.33333H7V7.66667ZM9 9.33333V7.66667C9 6.87102 9.31607 6.10796 9.87868 5.54535C10.4413 4.98274 11.2044 4.66667 12 4.66667C12.7956 4.66667 13.5587 4.98274 14.1213 5.54535C14.6839 6.10796 15 6.87102 15 7.66667V9.33333H9ZM5.33333 11C5.33333 10.7348 5.43869 10.4804 5.62623 10.2929C5.81376 10.1054 6.06812 10 6.33333 10H17.6667C17.9319 10 18.1862 10.1054 18.3738 10.2929C18.5613 10.4804 18.6667 10.7348 18.6667 11V13H5.33333V11ZM2.66667 14C2.66667 13.9116 2.70179 13.8268 2.7643 13.7643C2.82681 13.7018 2.91159 13.6667 3 13.6667H21C21.0884 13.6667 21.1732 13.7018 21.2357 13.7643C21.2982 13.8268 21.3333 13.9116 21.3333 14V17.3333C21.3333 17.4217 21.2982 17.5065 21.2357 17.569C21.1732 17.6315 21.0884 17.6667 21 17.6667H3C2.91159 17.6667 2.82681 17.6315 2.7643 17.569C2.70179 17.5065 2.66667 17.4217 2.66667 17.3333V14Z" fill="black"/>
<path d="M3.38931 16.5182C3.4136 16.5546 3.44483 16.5859 3.48121 16.6102C3.51759 16.6346 3.55842 16.6515 3.60135 16.6601C3.64428 16.6687 3.68848 16.6687 3.73143 16.6602C3.77438 16.6517 3.81522 16.6348 3.85164 16.6105L4.33331 16.2892V16.6665C4.33331 16.7549 4.36843 16.8397 4.43094 16.9022C4.49345 16.9647 4.57824 16.9998 4.66664 16.9998C4.75505 16.9998 4.83983 16.9647 4.90235 16.9022C4.96486 16.8397 4.99998 16.7549 4.99998 16.6665V16.2892L5.48164 16.6105C5.5552 16.6596 5.64523 16.6774 5.73193 16.6601C5.81864 16.6428 5.89491 16.5917 5.94398 16.5182C5.99304 16.4446 6.01088 16.3546 5.99356 16.2679C5.97625 16.1812 5.9252 16.1049 5.85164 16.0558L5.26664 15.6665L5.85064 15.2772C5.88706 15.2529 5.91834 15.2216 5.94269 15.1853C5.96704 15.1489 5.98399 15.1081 5.99256 15.0651C6.00114 15.0222 6.00117 14.978 5.99266 14.9351C5.98415 14.8921 5.96727 14.8513 5.94298 14.8148C5.91868 14.7784 5.88745 14.7471 5.85107 14.7228C5.81469 14.6984 5.77386 14.6815 5.73093 14.6729C5.688 14.6643 5.6438 14.6643 5.60086 14.6728C5.55791 14.6813 5.51706 14.6982 5.48064 14.7225L4.99998 15.0438V14.6665C4.99998 14.5781 4.96486 14.4933 4.90235 14.4308C4.83983 14.3683 4.75505 14.3332 4.66664 14.3332C4.57824 14.3332 4.49345 14.3683 4.43094 14.4308C4.36843 14.4933 4.33331 14.5781 4.33331 14.6665V15.0438L3.85164 14.7225C3.77809 14.6734 3.68806 14.6556 3.60135 14.6729C3.51465 14.6902 3.43837 14.7413 3.38931 14.8148C3.34024 14.8884 3.32241 14.9784 3.33972 15.0651C3.35704 15.1518 3.40809 15.2281 3.48164 15.2772L4.06664 15.6665L3.48164 16.0558C3.44522 16.0801 3.41394 16.1114 3.38958 16.1477C3.36523 16.1841 3.34828 16.2249 3.33971 16.2679C3.33113 16.3108 3.3311 16.355 3.33961 16.398C3.34812 16.4409 3.36501 16.4818 3.38931 16.5182ZM7.05598 16.5182C7.08027 16.5546 7.1115 16.5859 7.14788 16.6102C7.18426 16.6346 7.22508 16.6515 7.26802 16.6601C7.31095 16.6687 7.35515 16.6687 7.3981 16.6602C7.44104 16.6517 7.48189 16.6348 7.51831 16.6105L7.99998 16.2892V16.6665C7.99998 16.7549 8.03509 16.8397 8.09761 16.9022C8.16012 16.9647 8.2449 16.9998 8.33331 16.9998C8.42172 16.9998 8.5065 16.9647 8.56901 16.9022C8.63152 16.8397 8.66664 16.7549 8.66664 16.6665V16.2892L9.14831 16.6105C9.22186 16.6596 9.31189 16.6774 9.3986 16.6601C9.4853 16.6428 9.56158 16.5917 9.61064 16.5182C9.65971 16.4446 9.67754 16.3546 9.66023 16.2679C9.64291 16.1812 9.59186 16.1049 9.51831 16.0558L8.93331 15.6665L9.51731 15.2772C9.55373 15.2529 9.58501 15.2216 9.60936 15.1853C9.63371 15.1489 9.65065 15.1081 9.65923 15.0651C9.6678 15.0222 9.66784 14.978 9.65933 14.9351C9.65082 14.8921 9.63394 14.8513 9.60964 14.8148C9.58535 14.7784 9.55412 14.7471 9.51774 14.7228C9.48135 14.6984 9.44053 14.6815 9.3976 14.6729C9.35467 14.6643 9.31047 14.6643 9.26752 14.6728C9.22458 14.6813 9.18373 14.6982 9.14731 14.7225L8.66664 15.0438V14.6665C8.66664 14.5781 8.63152 14.4933 8.56901 14.4308C8.5065 14.3683 8.42172 14.3332 8.33331 14.3332C8.2449 14.3332 8.16012 14.3683 8.09761 14.4308C8.03509 14.4933 7.99998 14.5781 7.99998 14.6665V15.0438L7.51831 14.7225C7.44476 14.6734 7.35472 14.6556 7.26802 14.6729C7.18132 14.6902 7.10504 14.7413 7.05598 14.8148C7.00691 14.8884 6.98907 14.9784 7.00639 15.0651C7.02371 15.1518 7.07476 15.2281 7.14831 15.2772L7.73331 15.6665L7.14931 16.0558C7.11281 16.08 7.08143 16.1112 7.05698 16.1476C7.03253 16.1839 7.01549 16.2247 7.00682 16.2677C6.99815 16.3106 6.99803 16.3548 7.00646 16.3978C7.0149 16.4408 7.03172 16.4817 7.05598 16.5182ZM14.3893 16.5182C14.4136 16.5546 14.4448 16.5859 14.4812 16.6102C14.5176 16.6346 14.5584 16.6515 14.6014 16.6601C14.6443 16.6687 14.6885 16.6687 14.7314 16.6602C14.7744 16.6517 14.8152 16.6348 14.8516 16.6105L15.3333 16.2892V16.6665C15.3333 16.7549 15.3684 16.8397 15.4309 16.9022C15.4935 16.9647 15.5782 16.9998 15.6666 16.9998C15.755 16.9998 15.8398 16.9647 15.9023 16.9022C15.9649 16.8397 16 16.7549 16 16.6665V16.2892L16.4816 16.6105C16.5552 16.6596 16.6452 16.6774 16.7319 16.6601C16.8186 16.6428 16.8949 16.5917 16.944 16.5182C16.993 16.4446 17.0109 16.3546 16.9936 16.2679C16.9762 16.1812 16.9252 16.1049 16.8516 16.0558L16.2666 15.6665L16.8506 15.2772C16.8871 15.2529 16.9183 15.2216 16.9427 15.1853C16.967 15.1489 16.984 15.1081 16.9926 15.0651C17.0011 15.0222 17.0012 14.978 16.9927 14.9351C16.9842 14.8921 16.9673 14.8513 16.943 14.8148C16.9187 14.7784 16.8875 14.7471 16.8511 14.7228C16.8147 14.6984 16.7739 14.6815 16.7309 14.6729C16.688 14.6643 16.6438 14.6643 16.6009 14.6728C16.5579 14.6813 16.5171 14.6982 16.4806 14.7225L16 15.0438V14.6665C16 14.5781 15.9649 14.4933 15.9023 14.4308C15.8398 14.3683 15.755 14.3332 15.6666 14.3332C15.5782 14.3332 15.4935 14.3683 15.4309 14.4308C15.3684 14.4933 15.3333 14.5781 15.3333 14.6665V15.0438L14.8516 14.7225C14.7781 14.6734 14.6881 14.6556 14.6014 14.6729C14.5146 14.6902 14.4384 14.7413 14.3893 14.8148C14.3402 14.8884 14.3224 14.9784 14.3397 15.0651C14.357 15.1518 14.4081 15.2281 14.4816 15.2772L15.0666 15.6665L14.4826 16.0558C14.4461 16.08 14.4148 16.1112 14.3903 16.1476C14.3659 16.1839 14.3488 16.2247 14.3402 16.2677C14.3315 16.3106 14.3314 16.3548 14.3398 16.3978C14.3482 16.4408 14.3651 16.4817 14.3893 16.5182ZM10.7226 16.5182C10.7469 16.5546 10.7782 16.5859 10.8145 16.6102C10.8509 16.6346 10.8917 16.6515 10.9347 16.6601C10.9776 16.6687 11.0218 16.6687 11.0648 16.6602C11.1077 16.6517 11.1486 16.6348 11.185 16.6105L11.6666 16.2892V16.6665C11.6666 16.7549 11.7018 16.8397 11.7643 16.9022C11.8268 16.9647 11.9116 16.9998 12 16.9998C12.0884 16.9998 12.1732 16.9647 12.2357 16.9022C12.2982 16.8397 12.3333 16.7549 12.3333 16.6665V16.2892L12.815 16.6105C12.8885 16.6596 12.9786 16.6774 13.0653 16.6601C13.152 16.6428 13.2282 16.5917 13.2773 16.5182C13.3264 16.4446 13.3442 16.3546 13.3269 16.2679C13.3096 16.1812 13.2585 16.1049 13.185 16.0558L12.6 15.6665L13.184 15.2772C13.2204 15.2529 13.2517 15.2216 13.276 15.1853C13.3004 15.1489 13.3173 15.1081 13.3259 15.0651C13.3345 15.0222 13.3345 14.978 13.326 14.9351C13.3175 14.8921 13.3006 14.8513 13.2763 14.8148C13.252 14.7784 13.2208 14.7471 13.1844 14.7228C13.148 14.6984 13.1072 14.6815 13.0643 14.6729C13.0213 14.6643 12.9771 14.6643 12.9342 14.6728C12.8912 14.6813 12.8504 14.6982 12.814 14.7225L12.3333 15.0438V14.6665C12.3333 14.5781 12.2982 14.4933 12.2357 14.4308C12.1732 14.3683 12.0884 14.3332 12 14.3332C11.9116 14.3332 11.8268 14.3683 11.7643 14.4308C11.7018 14.4933 11.6666 14.5781 11.6666 14.6665V15.0438L11.185 14.7225C11.1114 14.6734 11.0214 14.6556 10.9347 14.6729C10.848 14.6902 10.7717 14.7413 10.7226 14.8148C10.6736 14.8884 10.6557 14.9784 10.6731 15.0651C10.6904 15.1518 10.7414 15.2281 10.815 15.2772L11.4 15.6665L10.816 16.0558C10.7795 16.08 10.7481 16.1112 10.7236 16.1476C10.6992 16.1839 10.6822 16.2247 10.6735 16.2677C10.6648 16.3106 10.6647 16.3548 10.6731 16.3978C10.6816 16.4408 10.6984 16.4817 10.7226 16.5182ZM7.33331 10.6665H6.33331C6.2449 10.6665 6.16012 10.7016 6.09761 10.7641C6.0351 10.8266 5.99998 10.9114 5.99998 10.9998V11.9998C5.99998 12.0882 6.0351 12.173 6.09761 12.2355C6.16012 12.2981 6.2449 12.3332 6.33331 12.3332C6.42172 12.3332 6.5065 12.2981 6.56901 12.2355C6.63152 12.173 6.66664 12.0882 6.66664 11.9998V11.3332H7.33331C7.42172 11.3332 7.5065 11.2981 7.56901 11.2355C7.63152 11.173 7.66664 11.0882 7.66664 10.9998C7.66664 10.9114 7.63152 10.8266 7.56901 10.7641C7.5065 10.7016 7.42172 10.6665 7.33331 10.6665ZM18.3333 16.9998H20.3333C20.4217 16.9998 20.5065 16.9647 20.569 16.9022C20.6315 16.8397 20.6666 16.7549 20.6666 16.6665C20.6666 16.5781 20.6315 16.4933 20.569 16.4308C20.5065 16.3683 20.4217 16.3332 20.3333 16.3332H18.3333C18.2449 16.3332 18.1601 16.3683 18.0976 16.4308C18.0351 16.4933 18 16.5781 18 16.6665C18 16.7549 18.0351 16.8397 18.0976 16.9022C18.1601 16.9647 18.2449 16.9998 18.3333 16.9998Z" fill="black"/>
</svg>
