<svg width="24" height="24" viewBox="0 0 24 24" fill="none" xmlns="http://www.w3.org/2000/svg">
<path d="M5 8.73966C5 9.21933 5.39 9.60966 5.87 9.60966H6.14433L6.99167 19.5517C7.01647 19.8609 7.15724 20.1494 7.38578 20.3593C7.61431 20.5692 7.91372 20.6849 8.224 20.6833H13.0673C13.3048 21.0853 13.6432 21.4182 14.049 21.6492C14.4547 21.8801 14.9138 22.001 15.3807 22C16.873 22 18.0873 20.7857 18.0873 19.2933C18.0873 18.0077 17.1647 16.9053 15.9393 16.648L16.54 9.60933H16.8147C17.294 9.60933 17.6847 9.21933 17.6847 8.73933C17.6847 8.25933 17.294 7.86966 16.8147 7.86966H5.87C5.63932 7.86984 5.41813 7.96156 5.25501 8.12468C5.09189 8.2878 5.00018 8.50898 5 8.73966ZM8.224 20.0163C8.08101 20.0171 7.94302 19.9638 7.83767 19.8671C7.73233 19.7705 7.66744 19.6375 7.656 19.495L6.814 9.61H8.168V12.57C8.168 12.6584 8.20312 12.7432 8.26563 12.8057C8.32814 12.8682 8.41293 12.9033 8.50133 12.9033C8.58974 12.9033 8.67452 12.8682 8.73703 12.8057C8.79955 12.7432 8.83467 12.6584 8.83467 12.57V9.61H9.797V13.86C9.797 13.9484 9.83212 14.0332 9.89463 14.0957C9.95714 14.1582 10.0419 14.1933 10.1303 14.1933C10.2187 14.1933 10.3035 14.1582 10.366 14.0957C10.4285 14.0332 10.4637 13.9484 10.4637 13.86V9.61H15.8713L15.2757 16.5887C15.245 16.5897 15.2157 16.5943 15.185 16.5963C15.1427 16.5997 15.1003 16.6027 15.0583 16.6077C15.0107 16.6133 14.964 16.621 14.917 16.6293C14.876 16.6363 14.835 16.6433 14.7947 16.6527C14.7483 16.6627 14.703 16.675 14.658 16.6877C14.618 16.6987 14.5787 16.7093 14.54 16.722C14.4953 16.7367 14.452 16.7533 14.4083 16.7703C14.3707 16.785 14.333 16.799 14.296 16.8153C14.2533 16.834 14.2117 16.8553 14.1703 16.876C14.1347 16.894 14.0987 16.9113 14.064 16.9307C14.0233 16.9537 13.984 16.9783 13.9447 17.0033C13.9113 17.0243 13.8777 17.0447 13.845 17.0673C13.8067 17.0937 13.7703 17.1223 13.7337 17.1507C13.7023 17.1747 13.6707 17.198 13.6403 17.2233C13.605 17.2533 13.5713 17.2853 13.5373 17.317C13.509 17.3437 13.4797 17.3697 13.452 17.3977C13.4193 17.431 13.3887 17.4667 13.3577 17.5017C13.332 17.5307 13.3053 17.559 13.281 17.589C13.251 17.6257 13.2243 17.664 13.1963 17.7023C13.1733 17.7337 13.1497 17.764 13.128 17.7963C13.1017 17.8357 13.078 17.877 13.054 17.9177C13.0343 17.951 13.0133 17.9837 12.995 18.0177C12.9723 18.06 12.9527 18.1043 12.932 18.1477C12.916 18.1827 12.898 18.2167 12.8833 18.2523C12.864 18.298 12.8487 18.3453 12.832 18.3923C12.8193 18.4277 12.8053 18.4623 12.794 18.4983C12.7783 18.5483 12.767 18.6003 12.7543 18.6517C12.746 18.6863 12.7357 18.7197 12.7287 18.7547C12.7167 18.8127 12.7093 18.8723 12.7013 18.932C12.6973 18.9613 12.6913 18.9903 12.688 19.02C12.6677 19.2248 12.671 19.4313 12.6977 19.6353C12.7023 19.6713 12.7107 19.7067 12.7167 19.7423C12.7297 19.8197 12.7443 19.896 12.764 19.9717C12.7677 19.9863 12.769 20.0017 12.7733 20.0167L8.224 20.0163ZM17.4207 19.293C17.4201 19.8339 17.205 20.3525 16.8226 20.735C16.4401 21.1175 15.9216 21.3327 15.3807 21.3333C15.0006 21.3348 14.6279 21.2292 14.305 21.0287C13.9822 20.8282 13.7222 20.5409 13.555 20.1997C13.4138 19.9183 13.3404 19.6078 13.3407 19.293C13.3413 18.7521 13.5564 18.2336 13.9388 17.8512C14.3213 17.4687 14.8398 17.2536 15.3807 17.253C15.4363 17.253 15.492 17.2563 15.5533 17.2623C16.6003 17.3483 17.4207 18.24 17.4207 19.293ZM17.0173 8.74C17.0173 8.85 16.9243 8.94333 16.814 8.94333H5.87033C5.76033 8.94333 5.667 8.85 5.667 8.74C5.667 8.63 5.76033 8.53666 5.87033 8.53666H16.815C16.925 8.53666 17.0183 8.63 17.0183 8.74H17.0173ZM11.1287 2C10.6799 2.00053 10.2497 2.17904 9.93247 2.49638C9.6152 2.81371 9.43677 3.24394 9.43633 3.69267V4.053H8.412C8.15942 4.0533 7.91054 4.11367 7.68589 4.22912C7.46124 4.34458 7.26727 4.5118 7.12 4.717L6.358 5.78033C6.32247 5.83018 6.30133 5.88885 6.29691 5.94991C6.29249 6.01097 6.30496 6.07206 6.33294 6.12651C6.36092 6.18096 6.40334 6.22666 6.45556 6.25861C6.50778 6.29057 6.56778 6.30754 6.629 6.30767H15.9213C15.9826 6.30765 16.0427 6.29076 16.095 6.25883C16.1473 6.2269 16.1897 6.18118 16.2177 6.12669C16.2457 6.0722 16.2582 6.01104 16.2537 5.94994C16.2492 5.88884 16.228 5.83015 16.1923 5.78033L15.431 4.717C15.2837 4.51174 15.0897 4.34447 14.865 4.22901C14.6403 4.11355 14.3913 4.05322 14.1387 4.053H12.8213V3.69267C12.8213 2.75933 12.062 2 11.1287 2ZM10.103 3.69267C10.103 3.12667 10.563 2.66667 11.1287 2.66667C11.6943 2.66667 12.1547 3.12667 12.1547 3.69267V4.053H10.103V3.69267ZM14.889 5.10533L15.2727 5.641H7.278L7.662 5.105C7.74751 4.98591 7.86012 4.88887 7.99052 4.82187C8.12092 4.75487 8.26539 4.71984 8.412 4.71967H14.1387C14.4353 4.71967 14.7163 4.86367 14.889 5.10533Z" fill="black"/>
<path d="M14.3453 19.0933C14.3108 19.0658 14.2711 19.0455 14.2287 19.0335C14.1863 19.0215 14.1419 19.0181 14.0981 19.0233C14.0543 19.0286 14.012 19.0425 13.9737 19.0642C13.9353 19.086 13.9016 19.1151 13.8746 19.1499C13.8476 19.1848 13.8277 19.2246 13.8162 19.2672C13.8047 19.3097 13.8017 19.3542 13.8075 19.3979C13.8132 19.4416 13.8276 19.4837 13.8498 19.5219C13.872 19.56 13.9015 19.5933 13.9366 19.6199L14.812 20.2986C14.8743 20.3471 14.9518 20.3718 15.0307 20.3684C15.1096 20.3649 15.1847 20.3336 15.2426 20.2799L16.8466 18.7959C16.9101 18.7356 16.9472 18.6526 16.95 18.5651C16.9528 18.4776 16.921 18.3924 16.8615 18.3281C16.802 18.2639 16.7196 18.2256 16.6321 18.2215C16.5447 18.2175 16.4591 18.2481 16.394 18.3066L14.9973 19.5986L14.3453 19.0933ZM14.3123 16.4349C14.356 16.4322 14.3988 16.4208 14.4381 16.4016C14.4774 16.3823 14.5126 16.3554 14.5415 16.3225C14.5704 16.2897 14.5926 16.2514 14.6068 16.2099C14.6209 16.1685 14.6268 16.1247 14.624 16.0809C14.6178 15.9929 14.5772 15.9109 14.5109 15.8526C14.4446 15.7943 14.3581 15.7645 14.27 15.7696C14.026 15.7849 12.769 15.9206 11.999 17.0609C11.3283 18.0543 11.5086 19.1063 11.58 19.4053C11.5894 19.4486 11.6073 19.4896 11.6328 19.526C11.6582 19.5623 11.6907 19.5931 11.7282 19.6167C11.7658 19.6404 11.8077 19.6562 11.8514 19.6635C11.8952 19.6707 11.9399 19.6691 11.9831 19.6588C12.0262 19.6485 12.0669 19.6297 12.1026 19.6035C12.1384 19.5773 12.1686 19.5443 12.1915 19.5062C12.2143 19.4682 12.2293 19.426 12.2356 19.3821C12.242 19.3382 12.2395 19.2935 12.2283 19.2506C12.173 19.0186 12.033 18.2016 12.5513 17.4339C13.1596 16.5333 14.1963 16.4423 14.3123 16.4349Z" fill="black"/>
</svg>
