<svg width="24" height="24" viewBox="0 0 24 24" fill="none" xmlns="http://www.w3.org/2000/svg">
<path d="M17.3466 14.0269L17.835 8.01175H18.2945C18.3796 8.01173 18.4637 7.99318 18.5409 7.95738C18.6181 7.92158 18.6866 7.86939 18.7416 7.80443C18.7966 7.73948 18.8368 7.66333 18.8594 7.58127C18.882 7.49921 18.8865 7.41321 18.8725 7.32925L18.6232 5.83755C18.4858 5.01619 17.7818 4.41986 16.9489 4.41986H14.8553V4.04557C14.8553 2.91765 13.9358 2 12.8055 2H11.075C9.94463 2 9.02514 2.91765 9.02514 4.04573V4.42002H6.93149C6.09868 4.42002 5.39451 5.01619 5.25728 5.83759L5.00802 7.32925C4.97963 7.49921 5.0274 7.673 5.1388 7.80456C5.19379 7.8695 5.26227 7.92168 5.33947 7.95746C5.41667 7.99324 5.50074 8.01177 5.58583 8.01175H6.04528L6.87473 18.2257C6.9216 18.803 7.1825 19.3371 7.60929 19.7296C8.03562 20.1218 8.58979 20.3377 9.16963 20.3377H12.2058C12.973 21.3468 14.1874 22 15.5522 22C17.8668 22 19.75 20.1213 19.75 17.8123C19.75 16.1431 18.7661 14.6993 17.3466 14.0269ZM10.197 4.04577C10.197 3.56389 10.5908 3.1719 11.075 3.1719H12.8055C13.2896 3.1719 13.6835 3.56389 13.6835 4.04577V4.42006H10.197V4.04577ZM6.27797 6.83988L6.41313 6.03071C6.43331 5.90791 6.49655 5.7963 6.59154 5.71589C6.68652 5.63548 6.80704 5.59152 6.93149 5.59189H16.949C17.0735 5.59155 17.194 5.63553 17.2889 5.71593C17.3839 5.79634 17.4471 5.90792 17.4673 6.03071L17.6027 6.83988H6.27797ZM11.5795 19.1657H9.16963C8.58475 19.1657 8.08995 18.7112 8.04277 18.1309L7.22109 8.01179H16.6593L16.1996 13.6742C15.9854 13.641 15.769 13.6243 15.5522 13.6244C13.2375 13.6244 11.3544 15.503 11.3544 17.8121C11.3544 18.2856 11.4336 18.7409 11.5795 19.1657ZM15.552 20.828C13.8837 20.828 12.5261 19.4751 12.5261 17.8121C12.5261 16.1492 13.8837 14.7962 15.552 14.7962C17.2206 14.7962 18.5781 16.1492 18.5781 17.8121C18.5781 19.4751 17.2206 20.828 15.552 20.828Z" fill="black"/>
<path d="M17.1456 16.2232C16.917 15.9942 16.5461 15.9936 16.3169 16.222L15.5521 16.9846L14.7874 16.222C14.5581 15.9936 14.1872 15.9941 13.9588 16.2232C13.7302 16.4524 13.7308 16.8234 13.9599 17.0518L14.7224 17.8121L13.9599 18.5725C13.7308 18.8009 13.7302 19.1719 13.9588 19.401C14.0132 19.4557 14.0778 19.499 14.149 19.5286C14.2202 19.5582 14.2965 19.5733 14.3736 19.5733C14.5234 19.5733 14.6731 19.5162 14.7873 19.4022L15.5521 18.6396L16.3169 19.4022C16.3712 19.4566 16.4358 19.4996 16.5068 19.529C16.5778 19.5583 16.6539 19.5734 16.7307 19.5733C16.881 19.5733 17.0311 19.5158 17.1455 19.401C17.3741 19.1719 17.3735 18.8009 17.1444 18.5725L16.382 17.8121L17.1443 17.0518C17.3736 16.8234 17.3741 16.4524 17.1456 16.2233V16.2232Z" fill="black"/>
</svg>
