<svg width="24" height="24" viewBox="0 0 24 24" fill="none" xmlns="http://www.w3.org/2000/svg">
<path d="M21.6397 11.8029H2.39123C2.28747 11.8029 2.18796 11.7617 2.11459 11.6884C2.04122 11.615 2 11.5155 2 11.4117C2.00093 10.8918 2.20806 10.3934 2.57595 10.0259C2.94383 9.6585 3.44244 9.45197 3.9624 9.45166H20.0685C20.5885 9.45197 21.0871 9.6585 21.455 10.0259C21.8228 10.3934 22.03 10.8918 22.0309 11.4117C22.0309 11.5155 21.9897 11.615 21.9163 11.6884C21.8429 11.7617 21.7434 11.8029 21.6397 11.8029ZM2.84936 11.0205H21.1815C21.0999 10.7905 20.9491 10.5915 20.7498 10.4507C20.5505 10.3098 20.3125 10.2342 20.0685 10.2341H3.9624C3.71838 10.2342 3.48038 10.3098 3.28108 10.4507C3.08178 10.5915 2.93097 10.7905 2.84936 11.0205ZM20.8541 21.9999C20.7503 21.9999 20.6508 21.9587 20.5775 21.8853C20.5041 21.812 20.4629 21.7125 20.4629 21.6087V12.9966C20.4629 12.8928 20.5041 12.7933 20.5775 12.7199C20.6508 12.6466 20.7503 12.6054 20.8541 12.6054C20.9579 12.6054 21.0574 12.6466 21.1307 12.7199C21.2041 12.7933 21.2453 12.8928 21.2453 12.9966V21.6087C21.2453 21.7125 21.2041 21.812 21.1307 21.8853C21.0574 21.9587 20.9579 21.9999 20.8541 21.9999ZM3.17682 21.9999C3.07306 21.9999 2.97354 21.9587 2.90018 21.8853C2.82681 21.812 2.78559 21.7125 2.78559 21.6087V12.9966C2.78559 12.8928 2.82681 12.7933 2.90018 12.7199C2.97354 12.6466 3.07306 12.6054 3.17682 12.6054C3.28058 12.6054 3.38009 12.6466 3.45346 12.7199C3.52683 12.7933 3.56804 12.8928 3.56804 12.9966V21.6087C3.56804 21.7125 3.52683 21.812 3.45346 21.8853C3.38009 21.9587 3.28058 21.9999 3.17682 21.9999Z" fill="black"/>
<path d="M21.6397 22H2.39123C2.28747 22 2.18796 21.9588 2.11459 21.8854C2.04122 21.812 2 21.7125 2 21.6088C2 21.505 2.04122 21.4055 2.11459 21.3321C2.18796 21.2588 2.28747 21.2175 2.39123 21.2175H21.6397C21.7434 21.2175 21.8429 21.2588 21.9163 21.3321C21.9897 21.4055 22.0309 21.505 22.0309 21.6088C22.0309 21.7125 21.9897 21.812 21.9163 21.8854C21.8429 21.9588 21.7434 22 21.6397 22ZM16.1449 10.2342H7.88603C7.47099 10.2342 7.07295 10.0693 6.77947 9.77584C6.48599 9.48236 6.32112 9.08432 6.32112 8.66927V3.56491C6.32112 3.14987 6.48599 2.75183 6.77947 2.45835C7.07295 2.16487 7.47099 2 7.88603 2H16.1449C16.5599 2 16.958 2.16487 17.2514 2.45835C17.5449 2.75183 17.7098 3.14987 17.7098 3.56491V8.66927C17.7098 9.08432 17.5449 9.48236 17.2514 9.77584C16.958 10.0693 16.5599 10.2342 16.1449 10.2342ZM7.88603 2.78246C7.67851 2.78246 7.47949 2.86489 7.33275 3.01163C7.18601 3.15837 7.10358 3.35739 7.10358 3.56491V8.66927C7.10358 8.8768 7.18601 9.07582 7.33275 9.22256C7.47949 9.36929 7.67851 9.45173 7.88603 9.45173H16.1449C16.3524 9.45173 16.5514 9.36929 16.6982 9.22256C16.8449 9.07582 16.9273 8.8768 16.9273 8.66927V3.56491C16.9273 3.35739 16.8449 3.15837 16.6982 3.01163C16.5514 2.86489 16.3524 2.78246 16.1449 2.78246H7.88603Z" fill="black"/>
<path d="M9.46193 22H4.74841C4.64465 22 4.54514 21.9588 4.47177 21.8854C4.3984 21.812 4.35718 21.7125 4.35718 21.6088V15.3338C4.35718 15.2301 4.3984 15.1306 4.47177 15.0572C4.54514 14.9838 4.64465 14.9426 4.74841 14.9426H9.46193C9.56569 14.9426 9.6652 14.9838 9.73857 15.0572C9.81194 15.1306 9.85316 15.2301 9.85316 15.3338V21.6088C9.85316 21.7125 9.81194 21.812 9.73857 21.8854C9.6652 21.9588 9.56569 22 9.46193 22ZM5.13964 21.2175H9.0707V15.7251H5.13964V21.2175ZM19.2826 20.4312H11.0335C10.9297 20.4312 10.8302 20.3899 10.7569 20.3166C10.6835 20.2432 10.6423 20.1437 10.6423 20.0399V14.5494C10.6423 14.4457 10.6835 14.3462 10.7569 14.2728C10.8302 14.1994 10.9297 14.1582 11.0335 14.1582H19.2826C19.3863 14.1582 19.4858 14.1994 19.5592 14.2728C19.6326 14.3462 19.6738 14.4457 19.6738 14.5494V20.0399C19.6738 20.1437 19.6326 20.2432 19.5592 20.3166C19.4858 20.3899 19.3863 20.4312 19.2826 20.4312ZM11.4247 19.6487H18.8913V14.9407H11.4247V19.6487Z" fill="black"/>
<path d="M19.2825 18.8619H11.0335C10.9297 18.8619 10.8302 18.8207 10.7568 18.7473C10.6835 18.6739 10.6422 18.5744 10.6422 18.4707C10.6422 18.3669 10.6835 18.2674 10.7568 18.194C10.8302 18.1207 10.9297 18.0794 11.0335 18.0794H19.2825C19.3863 18.0794 19.4858 18.1207 19.5592 18.194C19.6325 18.2674 19.6738 18.3669 19.6738 18.4707C19.6738 18.5744 19.6325 18.6739 19.5592 18.7473C19.4858 18.8207 19.3863 18.8619 19.2825 18.8619ZM3.19638 13.3882H3.19012C2.87461 13.3878 2.57214 13.2623 2.34903 13.0392C2.12593 12.8161 2.00041 12.5136 2 12.1981V11.4117C2 11.308 2.04122 11.2085 2.11459 11.1351C2.18796 11.0617 2.28747 11.0205 2.39123 11.0205H3.99527C4.09903 11.0205 4.19854 11.0617 4.27191 11.1351C4.34528 11.2085 4.38649 11.308 4.38649 11.4117V12.1981C4.38608 12.5136 4.26056 12.8161 4.03746 13.0392C3.81436 13.2623 3.51189 13.3878 3.19638 13.3882ZM2.78246 11.803V12.1981C2.78256 12.3062 2.82554 12.4098 2.90197 12.4863C2.9784 12.5627 3.08203 12.6057 3.19012 12.6058H3.19638C3.30446 12.6057 3.40809 12.5627 3.48452 12.4863C3.56095 12.4098 3.60393 12.3062 3.60404 12.1981V11.803H2.78246Z" fill="black"/>
<path d="M4.79725 13.3882C4.48105 13.388 4.17784 13.2624 3.95414 13.0389C3.73044 12.8154 3.60452 12.5124 3.604 12.1961V11.4117C3.604 11.308 3.64522 11.2085 3.71859 11.1351C3.79196 11.0617 3.89147 11.0205 3.99523 11.0205H5.59927C5.70303 11.0205 5.80254 11.0617 5.87591 11.1351C5.94928 11.2085 5.9905 11.308 5.9905 11.4117V12.1961C5.98998 12.5124 5.86406 12.8154 5.64036 13.0389C5.41666 13.2624 5.11345 13.388 4.79725 13.3882ZM4.38646 11.803V12.1961C4.38646 12.3051 4.42974 12.4096 4.50678 12.4866C4.58382 12.5637 4.6883 12.6069 4.79725 12.6069C4.9062 12.6069 5.01069 12.5637 5.08772 12.4866C5.16476 12.4096 5.20804 12.3051 5.20804 12.1961V11.803H4.38646Z" fill="black"/>
<path d="M6.40451 13.3882H6.39825C6.08274 13.3878 5.78027 13.2623 5.55716 13.0392C5.33406 12.8161 5.20854 12.5136 5.20813 12.1981V11.4117C5.20813 11.308 5.24935 11.2085 5.32272 11.1351C5.39609 11.0617 5.4956 11.0205 5.59936 11.0205H7.2034C7.30716 11.0205 7.40667 11.0617 7.48004 11.1351C7.55341 11.2085 7.59462 11.308 7.59462 11.4117V12.1981C7.59421 12.5136 7.46869 12.8161 7.24559 13.0392C7.02249 13.2623 6.72002 13.3878 6.40451 13.3882ZM5.99059 11.803V12.1981C5.99069 12.3062 6.03367 12.4098 6.1101 12.4863C6.18653 12.5627 6.29016 12.6057 6.39825 12.6058H6.40451C6.51259 12.6057 6.61622 12.5627 6.69265 12.4863C6.76908 12.4098 6.81206 12.3062 6.81217 12.1981V11.803H5.99059Z" fill="black"/>
<path d="M8.00851 13.3882H8.00225C7.68674 13.3878 7.38427 13.2623 7.16117 13.0392C6.93807 12.8161 6.81255 12.5136 6.81213 12.1981V11.4117C6.81213 11.308 6.85335 11.2085 6.92672 11.1351C7.00009 11.0617 7.0996 11.0205 7.20336 11.0205H8.8074C8.91116 11.0205 9.01067 11.0617 9.08404 11.1351C9.15741 11.2085 9.19863 11.308 9.19863 11.4117V12.1981C9.19821 12.5136 9.07269 12.8161 8.84959 13.0392C8.62649 13.2623 8.32402 13.3878 8.00851 13.3882ZM7.59459 11.803V12.1981C7.59469 12.3062 7.63768 12.4098 7.71411 12.4863C7.79054 12.5627 7.89416 12.6057 8.00225 12.6058H8.00851C8.1166 12.6057 8.22023 12.5627 8.29666 12.4863C8.37308 12.4098 8.41607 12.3062 8.41617 12.1981V11.803H7.59459Z" fill="black"/>
<path d="M9.60939 13.3882C9.29318 13.388 8.98997 13.2624 8.76627 13.0389C8.54258 12.8154 8.41666 12.5124 8.41614 12.1961V11.4117C8.41614 11.308 8.45736 11.2085 8.53073 11.1351C8.6041 11.0617 8.70361 11.0205 8.80737 11.0205H10.4114C10.5152 11.0205 10.6147 11.0617 10.688 11.1351C10.7614 11.2085 10.8026 11.308 10.8026 11.4117V12.1961C10.8021 12.5124 10.6762 12.8154 10.4525 13.0389C10.2288 13.2624 9.92559 13.388 9.60939 13.3882ZM9.19859 11.803V12.1961C9.19859 12.3051 9.24187 12.4096 9.31891 12.4866C9.39595 12.5637 9.50044 12.6069 9.60939 12.6069C9.71833 12.6069 9.82282 12.5637 9.89986 12.4866C9.9769 12.4096 10.0202 12.3051 10.0202 12.1961V11.803H9.19859Z" fill="black"/>
<path d="M11.2165 13.3882H11.2103C10.8947 13.3878 10.5923 13.2623 10.3692 13.0392C10.1461 12.8161 10.0206 12.5136 10.0201 12.1981V11.4117C10.0201 11.308 10.0614 11.2085 10.1347 11.1351C10.2081 11.0617 10.3076 11.0205 10.4114 11.0205H12.0154C12.1192 11.0205 12.2187 11.0617 12.292 11.1351C12.3654 11.2085 12.4066 11.308 12.4066 11.4117V12.1981C12.4062 12.5136 12.2807 12.8161 12.0576 13.0392C11.8345 13.2623 11.532 13.3878 11.2165 13.3882ZM10.8026 11.803V12.1981C10.8027 12.3062 10.8457 12.4098 10.9221 12.4863C10.9985 12.5627 11.1022 12.6057 11.2103 12.6058H11.2165C11.3246 12.6057 11.4282 12.5627 11.5047 12.4863C11.5811 12.4098 11.6241 12.3062 11.6242 12.1981V11.803H10.8026Z" fill="black"/>
<path d="M12.8206 13.3882H12.8144C12.4988 13.3879 12.1963 13.2624 11.9732 13.0393C11.7501 12.8162 11.6246 12.5136 11.6243 12.1981V11.4117C11.6243 11.308 11.6655 11.2085 11.7389 11.1351C11.8122 11.0617 11.9117 11.0205 12.0155 11.0205H13.6195C13.7233 11.0205 13.8228 11.0617 13.8962 11.1351C13.9695 11.2085 14.0108 11.308 14.0108 11.4117V12.1981C14.0105 12.5136 13.885 12.8162 13.6618 13.0393C13.4387 13.2624 13.1362 13.3879 12.8206 13.3882ZM12.4067 11.803V12.1981C12.4068 12.3062 12.4498 12.4098 12.5262 12.4863C12.6027 12.5627 12.7063 12.6057 12.8144 12.6058H12.8206C12.9287 12.6057 13.0324 12.5627 13.1088 12.4863C13.1852 12.4098 13.2282 12.3062 13.2283 12.1981V11.803H12.4067Z" fill="black"/>
<path d="M14.4215 13.3882C14.1053 13.388 13.8021 13.2624 13.5784 13.0389C13.3547 12.8154 13.2288 12.5124 13.2283 12.1961V11.4117C13.2283 11.308 13.2695 11.2085 13.3429 11.1351C13.4162 11.0617 13.5157 11.0205 13.6195 11.0205H15.2235C15.3273 11.0205 15.4268 11.0617 15.5002 11.1351C15.5735 11.2085 15.6148 11.308 15.6148 11.4117V12.1961C15.6142 12.5124 15.4883 12.8154 15.2646 13.0389C15.0409 13.2624 14.7377 13.388 14.4215 13.3882ZM14.0107 11.803V12.1961C14.0107 12.3051 14.054 12.4096 14.131 12.4866C14.2081 12.5637 14.3126 12.6069 14.4215 12.6069C14.5305 12.6069 14.635 12.5637 14.712 12.4866C14.789 12.4096 14.8323 12.3051 14.8323 12.1961V11.803H14.0107Z" fill="black"/>
<path d="M16.0287 13.3882H16.0224C15.7069 13.3879 15.4043 13.2624 15.1812 13.0393C14.9581 12.8162 14.8326 12.5136 14.8323 12.1981V11.4117C14.8323 11.308 14.8735 11.2085 14.9469 11.1351C15.0202 11.0617 15.1197 11.0205 15.2235 11.0205H16.8275C16.8789 11.0205 16.9298 11.0306 16.9773 11.0503C17.0247 11.0699 17.0679 11.0988 17.1042 11.1351C17.1405 11.1714 17.1693 11.2146 17.189 11.262C17.2087 11.3095 17.2188 11.3604 17.2188 11.4117V12.1981C17.2185 12.5136 17.093 12.8162 16.8698 13.0393C16.6467 13.2624 16.3442 13.3879 16.0287 13.3882ZM15.6147 11.803V12.1981C15.6148 12.3062 15.6578 12.4098 15.7342 12.4863C15.8107 12.5627 15.9143 12.6057 16.0224 12.6058H16.0287C16.1367 12.6057 16.2404 12.5627 16.3168 12.4863C16.3932 12.4098 16.4362 12.3062 16.4363 12.1981V11.803H15.6147Z" fill="black"/>
<path d="M17.6327 13.3882H17.6264C17.3109 13.3879 17.0083 13.2624 16.7852 13.0393C16.5621 12.8162 16.4366 12.5136 16.4363 12.1981V11.4117C16.4363 11.308 16.4775 11.2085 16.5509 11.1351C16.6242 11.0617 16.7237 11.0205 16.8275 11.0205H18.4315C18.5353 11.0205 18.6348 11.0617 18.7082 11.1351C18.7816 11.2085 18.8228 11.308 18.8228 11.4117V12.1981C18.8225 12.5136 18.697 12.8162 18.4739 13.0393C18.2507 13.2624 17.9482 13.3879 17.6327 13.3882ZM17.2187 11.803V12.1981C17.2188 12.3062 17.2618 12.4098 17.3383 12.4863C17.4147 12.5627 17.5183 12.6057 17.6264 12.6058H17.6327C17.7407 12.6057 17.8444 12.5627 17.9208 12.4863C17.9972 12.4098 18.0402 12.3062 18.0403 12.1981V11.803H17.2187Z" fill="black"/>
<path d="M19.2337 13.3882C18.9175 13.388 18.6142 13.2624 18.3905 13.0389C18.1668 12.8154 18.0409 12.5124 18.0404 12.1961V11.4117C18.0404 11.308 18.0816 11.2085 18.155 11.1351C18.2284 11.0617 18.3279 11.0205 18.4316 11.0205H20.0357C20.1394 11.0205 20.2389 11.0617 20.3123 11.1351C20.3857 11.2085 20.4269 11.308 20.4269 11.4117V12.1961C20.4264 12.5124 20.3005 12.8154 20.0768 13.0389C19.8531 13.2624 19.5499 13.388 19.2337 13.3882ZM18.8229 11.803V12.1961C18.8229 12.3051 18.8661 12.4096 18.9432 12.4866C19.0202 12.5637 19.1247 12.6069 19.2337 12.6069C19.3426 12.6069 19.4471 12.5637 19.5241 12.4866C19.6012 12.4096 19.6444 12.3051 19.6444 12.1961V11.803H18.8229Z" fill="black"/>
<path d="M20.8408 13.3883H20.8346C20.519 13.388 20.2165 13.2625 19.9934 13.0394C19.7702 12.8163 19.6447 12.5138 19.6444 12.1982V11.4119C19.6444 11.3081 19.6857 11.2086 19.759 11.1352C19.8324 11.0619 19.9319 11.0206 20.0357 11.0206H21.6397C21.7435 11.0206 21.843 11.0619 21.9163 11.1352C21.9897 11.2086 22.0309 11.3081 22.0309 11.4119V12.1982C22.0306 12.5138 21.9051 12.8163 21.682 13.0394C21.4589 13.2625 21.1564 13.388 20.8408 13.3883ZM20.4269 11.8031V12.1982C20.427 12.3063 20.47 12.4099 20.5464 12.4864C20.6228 12.5628 20.7265 12.6058 20.8346 12.6059H20.8408C20.9489 12.6058 21.0525 12.5628 21.129 12.4864C21.2054 12.4099 21.2484 12.3063 21.2485 12.1982V11.8031H20.4269ZM20.0685 10.2343H3.96243C3.89848 10.2342 3.83551 10.2186 3.77903 10.1886C3.72255 10.1586 3.67428 10.1152 3.63846 10.0622C3.60263 10.0093 3.58033 9.94831 3.57352 9.88472C3.5667 9.82114 3.57558 9.75686 3.59937 9.6975L4.38652 7.73666C4.41561 7.66407 4.46578 7.60187 4.53057 7.55808C4.59535 7.51428 4.67177 7.49091 4.74997 7.49097H6.71394C6.8177 7.49097 6.91721 7.53219 6.99058 7.60555C7.06395 7.67892 7.10517 7.77844 7.10517 7.8822C7.10517 7.98596 7.06395 8.08547 6.99058 8.15884C6.91721 8.23221 6.8177 8.27342 6.71394 8.27342H5.01248L4.54066 9.4518H19.4903L19.0185 8.27342H17.3186C17.2148 8.27342 17.1153 8.23221 17.0419 8.15884C16.9686 8.08547 16.9274 7.98596 16.9274 7.8822C16.9274 7.77844 16.9686 7.67892 17.0419 7.60555C17.1153 7.53219 17.2148 7.49097 17.3186 7.49097H19.2825C19.3607 7.49091 19.4372 7.51428 19.502 7.55808C19.5667 7.60187 19.6169 7.66407 19.646 7.73666L20.4316 9.6975C20.4554 9.75686 20.4643 9.82114 20.4574 9.88472C20.4506 9.94831 20.4283 10.0093 20.3925 10.0622C20.3567 10.1152 20.3084 10.1586 20.2519 10.1886C20.1954 10.2186 20.1325 10.2342 20.0685 10.2343Z" fill="black"/>
<path d="M12.0154 10.2343C11.9507 10.2343 11.8869 10.2183 11.8299 10.1876C11.7729 10.1569 11.7244 10.1126 11.6887 10.0586L8.74277 5.58959C8.70184 5.52732 8.67954 5.45467 8.6785 5.38016C8.67747 5.30566 8.69772 5.2324 8.7369 5.16902L9.61677 3.75473C9.65188 3.69826 9.7008 3.65167 9.75892 3.61936C9.81704 3.58705 9.88243 3.57008 9.94892 3.57007H14.0819C14.1484 3.57008 14.2138 3.58705 14.2719 3.61936C14.33 3.65167 14.3789 3.69826 14.414 3.75473L15.2939 5.16902C15.3333 5.23253 15.3537 5.30601 15.3527 5.38075C15.3516 5.45549 15.3292 5.52837 15.288 5.59076L12.3421 10.0594C12.3063 10.1133 12.2578 10.1574 12.2007 10.1879C12.1437 10.2185 12.0801 10.2344 12.0154 10.2343ZM9.53383 5.36816L12.0154 9.13217L14.497 5.36816L13.8643 4.35096H10.1664L9.53383 5.36816Z" fill="black"/>
<path d="M12.0155 10.2342C11.9263 10.2342 11.8398 10.2038 11.7703 10.1479C11.7007 10.0921 11.6524 10.0141 11.6332 9.92705L10.6512 5.45804C10.6397 5.40428 10.6397 5.34867 10.6512 5.2949L10.9443 3.88061C10.9623 3.79231 11.0103 3.71294 11.08 3.65591C11.1498 3.59888 11.2372 3.5677 11.3273 3.56763H12.7052C12.7953 3.5677 12.8826 3.59888 12.9524 3.65591C13.0222 3.71294 13.0702 3.79231 13.0882 3.88061L13.3812 5.2949C13.3928 5.34867 13.3928 5.40428 13.3812 5.45804L12.3992 9.92705C12.38 10.0144 12.3314 10.0925 12.2616 10.1484C12.1918 10.2043 12.1049 10.2346 12.0155 10.2342ZM11.4333 5.37197L12.0155 8.0202L12.5976 5.37197L12.3859 4.35126H11.645L11.4333 5.37197Z" fill="black"/>
<path d="M14.9618 5.76317H9.06909C8.96532 5.76317 8.86581 5.72195 8.79244 5.64858C8.71907 5.57521 8.67786 5.4757 8.67786 5.37194C8.67786 5.26818 8.71907 5.16867 8.79244 5.0953C8.86581 5.02193 8.96532 4.98071 9.06909 4.98071H14.9618C15.0655 4.98071 15.165 5.02193 15.2384 5.0953C15.3118 5.16867 15.353 5.26818 15.353 5.37194C15.353 5.4757 15.3118 5.57521 15.2384 5.64858C15.165 5.72195 15.0655 5.76317 14.9618 5.76317Z" fill="black"/>
</svg>
