<svg width="24" height="24" viewBox="0 0 24 24" fill="none" xmlns="http://www.w3.org/2000/svg">
<mask id="mask0_675_1749" style="mask-type:alpha" maskUnits="userSpaceOnUse" x="0" y="0" width="24" height="24">
<rect width="24" height="24" fill="#D9D9D9"/>
</mask>
<g mask="url(#mask0_675_1749)">
<path d="M11.9757 24C10.3384 24 8.79189 23.6846 7.33611 23.0539C5.88011 22.4232 4.60884 21.5644 3.52232 20.4777C2.43558 19.3912 1.57684 18.1179 0.946105 16.6579C0.315369 15.1979 0 13.6453 0 12C0 10.3337 0.323895 8.77053 0.971684 7.31053C1.61947 5.85053 2.49926 4.58053 3.61105 3.50053C4.72263 2.42032 6.02305 1.56684 7.51232 0.940106C9.00137 0.313369 10.5896 0 12.2769 0C13.8559 0 15.3522 0.269264 16.7659 0.80779C18.1798 1.34632 19.4215 2.09168 20.4909 3.0439C21.5606 3.99611 22.4128 5.12768 23.0476 6.43863C23.6825 7.74937 24 9.17074 24 10.7027C24 12.8891 23.3502 14.5992 22.0506 15.8331C20.7511 17.0672 19.0851 17.6842 17.0526 17.6842H14.7644C14.4048 17.6842 14.1174 17.8016 13.902 18.0363C13.6866 18.2713 13.5789 18.5491 13.5789 18.8697C13.5789 19.26 13.7368 19.6657 14.0526 20.0867C14.3684 20.5078 14.5263 20.9912 14.5263 21.5368C14.5263 22.3707 14.2956 22.9898 13.8341 23.394C13.3724 23.798 12.7529 24 11.9757 24ZM5.05263 12.9474C5.50274 12.9474 5.87842 12.7967 6.17968 12.4955C6.48095 12.1942 6.63158 11.8185 6.63158 11.3684C6.63158 10.9183 6.48095 10.5426 6.17968 10.2414C5.87842 9.9401 5.50274 9.78947 5.05263 9.78947C4.60253 9.78947 4.22684 9.9401 3.92558 10.2414C3.62432 10.5426 3.47368 10.9183 3.47368 11.3684C3.47368 11.8185 3.62432 12.1942 3.92558 12.4955C4.22684 12.7967 4.60253 12.9474 5.05263 12.9474ZM8.8421 7.89474C9.29221 7.89474 9.66789 7.74411 9.96916 7.44284C10.2704 7.14158 10.4211 6.76589 10.4211 6.31579C10.4211 5.86568 10.2704 5.49 9.96916 5.18874C9.66789 4.88747 9.29221 4.73684 8.8421 4.73684C8.392 4.73684 8.01632 4.88747 7.71505 5.18874C7.41379 5.49 7.26316 5.86568 7.26316 6.31579C7.26316 6.76589 7.41379 7.14158 7.71505 7.44284C8.01632 7.74411 8.392 7.89474 8.8421 7.89474ZM15.1579 7.89474C15.608 7.89474 15.9837 7.74411 16.2849 7.44284C16.5862 7.14158 16.7368 6.76589 16.7368 6.31579C16.7368 5.86568 16.5862 5.49 16.2849 5.18874C15.9837 4.88747 15.608 4.73684 15.1579 4.73684C14.7078 4.73684 14.3321 4.88747 14.0308 5.18874C13.7296 5.49 13.5789 5.86568 13.5789 6.31579C13.5789 6.76589 13.7296 7.14158 14.0308 7.44284C14.3321 7.74411 14.7078 7.89474 15.1579 7.89474ZM18.9474 12.9474C19.3975 12.9474 19.7732 12.7967 20.0744 12.4955C20.3757 12.1942 20.5263 11.8185 20.5263 11.3684C20.5263 10.9183 20.3757 10.5426 20.0744 10.2414C19.7732 9.9401 19.3975 9.78947 18.9474 9.78947C18.4973 9.78947 18.1216 9.9401 17.8203 10.2414C17.5191 10.5426 17.3684 10.9183 17.3684 11.3684C17.3684 11.8185 17.5191 12.1942 17.8203 12.4955C18.1216 12.7967 18.4973 12.9474 18.9474 12.9474ZM11.9757 22.1053C12.1814 22.1053 12.3421 22.0546 12.4579 21.9534C12.5737 21.8521 12.6316 21.7133 12.6316 21.5368C12.6316 21.2421 12.4737 20.9109 12.1579 20.5434C11.8421 20.1758 11.6842 19.6001 11.6842 18.8163C11.6842 17.9159 11.9895 17.1863 12.6 16.6276C13.2105 16.0688 13.9579 15.7895 14.8421 15.7895H17.0526C18.5394 15.7895 19.7532 15.3539 20.694 14.4827C21.6348 13.6114 22.1053 12.3514 22.1053 10.7027C22.1053 8.14737 21.1255 6.04053 19.1659 4.38221C17.2065 2.7239 14.9102 1.89474 12.2769 1.89474C9.38958 1.89474 6.93737 2.87368 4.92032 4.83158C2.90326 6.78947 1.89474 9.17895 1.89474 12C1.89474 14.8 2.87895 17.1842 4.84737 19.1526C6.81579 21.1211 9.19189 22.1053 11.9757 22.1053Z" fill="black"/>
</g>
</svg>
