<svg width="24" height="24" viewBox="0 0 24 24" fill="none" xmlns="http://www.w3.org/2000/svg">
<path d="M18.3977 11.4674C18.2201 11.4674 18.0629 11.4039 17.926 11.2769C17.789 11.1497 17.7096 10.9922 17.6878 10.8044C17.4962 9.37732 16.8952 8.15864 15.8847 7.1483C14.8742 6.13781 13.6555 5.53679 12.2287 5.34525C12.0408 5.32314 11.8833 5.24579 11.7561 5.11318C11.6291 4.98057 11.5656 4.82033 11.5656 4.63247C11.5656 4.4446 11.6313 4.28724 11.7628 4.16038C11.8942 4.03337 12.0495 3.98179 12.2287 4.00566C14.0285 4.2006 15.5628 4.93246 16.8318 6.20124C18.1006 7.47017 18.8324 9.00454 19.0274 10.8044C19.0512 10.9834 18.9994 11.1387 18.8718 11.2703C18.7442 11.4017 18.5861 11.4674 18.3977 11.4674ZM14.7399 11.4674C14.5958 11.4674 14.4682 11.4181 14.3573 11.3195C14.2462 11.221 14.1629 11.0895 14.1073 10.925C13.9723 10.4467 13.7249 10.0248 13.3651 9.65927C13.0053 9.29371 12.5863 9.04639 12.108 8.91731C11.9436 8.86177 11.8121 8.77859 11.7135 8.66779C11.6149 8.55698 11.5656 8.42401 11.5656 8.26885C11.5656 8.0471 11.6418 7.86822 11.7941 7.73222C11.9466 7.59622 12.1198 7.55202 12.3135 7.59961C13.0877 7.77937 13.7547 8.14936 14.3146 8.70956C14.8745 9.26962 15.2475 9.93952 15.4334 10.7193C15.481 10.9132 15.4327 11.0863 15.2886 11.2387C15.1445 11.3912 14.9616 11.4674 14.7399 11.4674ZM18.0922 19.22C16.4262 19.22 14.7525 18.8326 13.071 18.0579C11.3896 17.2832 9.84478 16.1903 8.43647 14.7793C7.0283 13.3682 5.93684 11.8233 5.1621 10.1446C4.38737 8.46607 4 6.79379 4 5.12777C4 4.86004 4.08841 4.63696 4.26522 4.45853C4.44203 4.28009 4.66305 4.19088 4.92827 4.19088H7.81165C8.03488 4.19088 8.2318 4.26374 8.40243 4.40946C8.57305 4.55504 8.68157 4.73495 8.72799 4.94918L9.23478 7.55033C9.26984 7.79168 9.26248 7.99907 9.21267 8.17249C9.16273 8.34591 9.07314 8.49156 8.94392 8.60944L6.90217 10.597C7.23075 11.1988 7.60618 11.7681 8.02847 12.3048C8.45061 12.8415 8.90767 13.354 9.39965 13.8424C9.88471 14.3277 10.4004 14.7782 10.9468 15.1942C11.4931 15.6101 12.0831 15.9972 12.7167 16.3554L14.7005 14.3543C14.8389 14.2104 15.0064 14.1094 15.2031 14.0515C15.3997 13.9938 15.604 13.9796 15.816 14.0091L18.2708 14.509C18.494 14.568 18.6762 14.6819 18.8174 14.8507C18.9585 15.0196 19.0291 15.2111 19.0291 15.4254V18.2917C19.0291 18.557 18.9399 18.778 18.7615 18.9548C18.583 19.1316 18.36 19.22 18.0922 19.22ZM6.2747 9.34233L7.85254 7.83257C7.88083 7.80988 7.89925 7.77871 7.90779 7.73908C7.91634 7.69944 7.91494 7.6626 7.90359 7.62857L7.51925 5.6529C7.5079 5.60767 7.48808 5.5737 7.45979 5.55101C7.4315 5.52832 7.39467 5.51698 7.34928 5.51698H5.45871C5.42467 5.51698 5.39631 5.52832 5.37362 5.55101C5.35107 5.5737 5.3398 5.60207 5.3398 5.6361C5.38504 6.24022 5.4839 6.8539 5.63641 7.47717C5.78876 8.10059 6.00153 8.7223 6.2747 9.34233ZM13.9661 16.9827C14.5521 17.2558 15.1633 17.4647 15.7996 17.6092C16.4362 17.7536 17.0309 17.8395 17.5839 17.8667C17.6179 17.8667 17.6463 17.8554 17.669 17.8327C17.6917 17.81 17.703 17.7816 17.703 17.7476V15.8877C17.703 15.8424 17.6917 15.8055 17.669 15.7772C17.6463 15.7489 17.6123 15.7291 17.5671 15.7178L15.7106 15.3403C15.6765 15.3289 15.6468 15.3275 15.6213 15.3361C15.5958 15.3446 15.5688 15.363 15.5404 15.3913L13.9661 16.9827Z" fill="black"/>
</svg>
