<svg width="24" height="24" viewBox="0 0 24 24" fill="none" xmlns="http://www.w3.org/2000/svg">
<path d="M17.2126 14.1504C16.8441 13.7667 16.3996 13.5615 15.9285 13.5615C15.4612 13.5615 15.013 13.7629 14.6293 14.1466L13.4288 15.3433C13.33 15.2901 13.2312 15.2407 13.1362 15.1913C12.9995 15.1229 12.8703 15.0583 12.7601 14.9899C11.6356 14.2757 10.6137 13.345 9.63353 12.1407C9.15866 11.5404 8.83954 11.0352 8.6078 10.5223C8.91932 10.2374 9.20804 9.94104 9.48917 9.65611C9.59554 9.54974 9.70192 9.43957 9.80829 9.33319C10.6061 8.5354 10.6061 7.50207 9.80829 6.70427L8.77115 5.66714C8.65338 5.54937 8.53182 5.4278 8.41785 5.30623C8.1899 5.07069 7.95057 4.82755 7.70363 4.59961C7.33512 4.2349 6.89444 4.04115 6.43096 4.04115C5.96747 4.04115 5.51919 4.2349 5.13929 4.59961L5.13169 4.60721L3.84002 5.91027C3.35375 6.39655 3.07642 6.9892 3.01563 7.67682C2.92446 8.78614 3.25117 9.81947 3.50191 10.4957C4.11735 12.1559 5.03671 13.6945 6.40816 15.3433C8.07213 17.3301 10.0742 18.8991 12.3612 20.0047C13.235 20.4187 14.4013 20.9088 15.7044 20.9924C15.7842 20.9962 15.8677 21 15.9437 21C16.8213 21 17.5583 20.6847 18.1358 20.0578C18.1395 20.0502 18.1471 20.0464 18.1509 20.0388C18.3485 19.7995 18.5764 19.583 18.8158 19.3512C18.9791 19.1955 19.1463 19.0321 19.3096 18.8611C19.6858 18.4698 19.8833 18.014 19.8833 17.5467C19.8833 17.0756 19.682 16.6235 19.2983 16.2436L17.2126 14.1504ZM18.5726 18.1507C18.5688 18.1545 18.5688 18.1507 18.5726 18.1507C18.4245 18.3103 18.2725 18.4547 18.1092 18.6142C17.8622 18.8498 17.6115 19.0967 17.3759 19.374C16.9922 19.7843 16.5402 19.9781 15.9475 19.9781C15.8905 19.9781 15.8297 19.9781 15.7728 19.9743C14.6444 19.9021 13.5959 19.4614 12.8095 19.0853C10.6593 18.0444 8.77115 16.5665 7.20216 14.6936C5.90669 13.1322 5.04051 11.6886 4.46686 10.1386C4.11355 9.19263 3.98438 8.45562 4.04137 7.7604C4.07936 7.31591 4.25032 6.94741 4.56563 6.63209L5.8611 5.33662C6.04725 5.16187 6.2448 5.06689 6.43855 5.06689C6.67789 5.06689 6.87164 5.21125 6.99321 5.33282L7.00461 5.34422C7.23635 5.56076 7.45669 5.78491 7.68843 6.02424C7.8062 6.14581 7.92777 6.26738 8.04934 6.39275L9.08647 7.42988C9.48917 7.83258 9.48917 8.20488 9.08647 8.60758C8.9763 8.71775 8.86993 8.82792 8.75976 8.9343C8.44064 9.26101 8.13672 9.56494 7.8062 9.86126C7.7986 9.86886 7.79101 9.87266 7.78721 9.88025C7.46049 10.207 7.52128 10.5261 7.58966 10.7426L7.60106 10.7768C7.87079 11.4303 8.25069 12.0457 8.82814 12.7789L8.83194 12.7827C9.88047 14.0744 10.986 15.0811 12.2055 15.8523C12.3612 15.9511 12.5208 16.0309 12.6728 16.1069C12.8095 16.1752 12.9387 16.2398 13.0489 16.3082C13.0641 16.3158 13.0792 16.3272 13.0944 16.3348C13.2236 16.3994 13.3452 16.4298 13.4705 16.4298C13.7859 16.4298 13.9834 16.2322 14.048 16.1676L15.3473 14.8684C15.4764 14.7392 15.6816 14.5834 15.9209 14.5834C16.1565 14.5834 16.3502 14.7316 16.468 14.8608L16.4756 14.8684L18.5688 16.9616C18.9601 17.3491 18.9601 17.748 18.5726 18.1507ZM12.7145 7.28172C13.7099 7.44888 14.6141 7.91996 15.3359 8.64177C16.0577 9.36359 16.525 10.2678 16.6959 11.2631C16.7377 11.5138 16.9543 11.6886 17.2012 11.6886C17.2316 11.6886 17.2582 11.6848 17.2886 11.681C17.5697 11.6354 17.7558 11.3695 17.7103 11.0883C17.5051 9.88405 16.9353 8.78614 16.0653 7.91616C15.1953 7.04618 14.0974 6.47633 12.8931 6.27118C12.612 6.22559 12.3498 6.41175 12.3004 6.68907C12.2511 6.9664 12.4334 7.23613 12.7145 7.28172ZM20.966 10.9402C20.6279 8.95709 19.6934 7.15255 18.2573 5.71652C16.8213 4.28049 15.0168 3.34593 13.0337 3.00782C12.7563 2.95843 12.4942 3.14838 12.4448 3.42571C12.3992 3.70684 12.5854 3.96897 12.8665 4.01836C14.6368 4.31848 16.2514 5.15807 17.5355 6.43834C18.8196 7.72241 19.6554 9.33699 19.9555 11.1073C19.9973 11.3581 20.2138 11.5328 20.4608 11.5328C20.4911 11.5328 20.5177 11.529 20.5481 11.5252C20.8255 11.4834 21.0154 11.2175 20.966 10.9402Z" fill="black"/>
</svg>
