<svg width="24" height="24" viewBox="0 0 24 24" fill="none" xmlns="http://www.w3.org/2000/svg">
<path d="M5.6155 21.2307C5.15517 21.2307 4.77083 21.0766 4.4625 20.7682C4.15417 20.4599 4 20.0756 4 19.6152V6.84625C4 6.38592 4.15417 6.00158 4.4625 5.69325C4.77083 5.38492 5.15517 5.23075 5.6155 5.23075H7.3845V3.5385C7.3845 3.38333 7.4355 3.25475 7.5375 3.15275C7.6395 3.05092 7.768 3 7.923 3C8.07817 3 8.20675 3.05092 8.30875 3.15275C8.41058 3.25475 8.4615 3.38333 8.4615 3.5385V5.23075H15.6155V3.5C15.6155 3.35767 15.6632 3.23875 15.7587 3.14325C15.8542 3.04775 15.9732 3 16.1155 3C16.2577 3 16.3765 3.04775 16.472 3.14325C16.5677 3.23875 16.6155 3.35767 16.6155 3.5V5.23075H18.3845C18.8448 5.23075 19.2292 5.38492 19.5375 5.69325C19.8458 6.00158 20 6.38592 20 6.84625V19.6152C20 20.0756 19.8458 20.4599 19.5375 20.7682C19.2292 21.0766 18.8448 21.2307 18.3845 21.2307H5.6155ZM5.6155 20.2307H18.3845C18.5385 20.2307 18.6796 20.1667 18.8077 20.0385C18.9359 19.9103 19 19.7692 19 19.6152V10.8462H5V19.6152C5 19.7692 5.06408 19.9103 5.19225 20.0385C5.32042 20.1667 5.4615 20.2307 5.6155 20.2307ZM5 9.846H19V6.84625C19 6.69225 18.9359 6.55117 18.8077 6.423C18.6796 6.29483 18.5385 6.23075 18.3845 6.23075H5.6155C5.4615 6.23075 5.32042 6.29483 5.19225 6.423C5.06408 6.55117 5 6.69225 5 6.84625V9.846ZM12 14.3845C11.7937 14.3845 11.6138 14.3079 11.4605 14.1547C11.3073 14.0016 11.2308 13.8217 11.2308 13.6152C11.2308 13.4089 11.3073 13.2292 11.4605 13.076C11.6138 12.9228 11.7937 12.8462 12 12.8462C12.2063 12.8462 12.3862 12.9228 12.5395 13.076C12.6927 13.2292 12.7692 13.4089 12.7692 13.6152C12.7692 13.8217 12.6927 14.0016 12.5395 14.1547C12.3862 14.3079 12.2063 14.3845 12 14.3845ZM8 14.3845C7.79367 14.3845 7.61383 14.3079 7.4605 14.1547C7.30733 14.0016 7.23075 13.8217 7.23075 13.6152C7.23075 13.4089 7.30733 13.2292 7.4605 13.076C7.61383 12.9228 7.79367 12.8462 8 12.8462C8.20633 12.8462 8.38617 12.9228 8.5395 13.076C8.69267 13.2292 8.76925 13.4089 8.76925 13.6152C8.76925 13.8217 8.69267 14.0016 8.5395 14.1547C8.38617 14.3079 8.20633 14.3845 8 14.3845ZM16 14.3845C15.7937 14.3845 15.6138 14.3079 15.4605 14.1547C15.3073 14.0016 15.2308 13.8217 15.2308 13.6152C15.2308 13.4089 15.3073 13.2292 15.4605 13.076C15.6138 12.9228 15.7937 12.8462 16 12.8462C16.2063 12.8462 16.3862 12.9228 16.5395 13.076C16.6927 13.2292 16.7693 13.4089 16.7693 13.6152C16.7693 13.8217 16.6927 14.0016 16.5395 14.1547C16.3862 14.3079 16.2063 14.3845 16 14.3845ZM12 18.2308C11.7937 18.2308 11.6138 18.1542 11.4605 18.001C11.3073 17.8478 11.2308 17.668 11.2308 17.4615C11.2308 17.2552 11.3073 17.0753 11.4605 16.922C11.6138 16.7688 11.7937 16.6922 12 16.6922C12.2063 16.6922 12.3862 16.7688 12.5395 16.922C12.6927 17.0753 12.7692 17.2552 12.7692 17.4615C12.7692 17.668 12.6927 17.8478 12.5395 18.001C12.3862 18.1542 12.2063 18.2308 12 18.2308ZM8 18.2308C7.79367 18.2308 7.61383 18.1542 7.4605 18.001C7.30733 17.8478 7.23075 17.668 7.23075 17.4615C7.23075 17.2552 7.30733 17.0753 7.4605 16.922C7.61383 16.7688 7.79367 16.6922 8 16.6922C8.20633 16.6922 8.38617 16.7688 8.5395 16.922C8.69267 17.0753 8.76925 17.2552 8.76925 17.4615C8.76925 17.668 8.69267 17.8478 8.5395 18.001C8.38617 18.1542 8.20633 18.2308 8 18.2308ZM16 18.2308C15.7937 18.2308 15.6138 18.1542 15.4605 18.001C15.3073 17.8478 15.2308 17.668 15.2308 17.4615C15.2308 17.2552 15.3073 17.0753 15.4605 16.922C15.6138 16.7688 15.7937 16.6922 16 16.6922C16.2063 16.6922 16.3862 16.7688 16.5395 16.922C16.6927 17.0753 16.7693 17.2552 16.7693 17.4615C16.7693 17.668 16.6927 17.8478 16.5395 18.001C16.3862 18.1542 16.2063 18.2308 16 18.2308Z" fill="black"/>
</svg>
