<svg width="24" height="24" viewBox="0 0 24 24" fill="none" xmlns="http://www.w3.org/2000/svg">
<mask id="mask0_750_1684" style="mask-type:alpha" maskUnits="userSpaceOnUse" x="0" y="0" width="24" height="24">
<rect width="24" height="24" fill="#D9D9D9"/>
</mask>
<g mask="url(#mask0_750_1684)">
<path d="M6.31722 22C5.75367 22 5.2713 21.7994 4.8701 21.3982C4.46889 20.997 4.26829 20.5146 4.26829 19.9511V4.24392H3.63415C3.45447 4.24392 3.30386 4.18305 3.18232 4.06129C3.06077 3.93953 3 3.78871 3 3.60883C3 3.42894 3.06077 3.27844 3.18232 3.15732C3.30386 3.03619 3.45447 2.97563 3.63415 2.97563H8.07316C8.07316 2.71394 8.17029 2.48586 8.36455 2.29139C8.55881 2.09713 8.7869 2 9.0488 2H14.7073C14.9692 2 15.1973 2.09713 15.3915 2.29139C15.5858 2.48586 15.6829 2.71394 15.6829 2.97563H20.1219C20.3016 2.97563 20.4522 3.03651 20.5738 3.15827C20.6953 3.28002 20.7561 3.43085 20.7561 3.61073C20.7561 3.79062 20.6953 3.94112 20.5738 4.06224C20.4522 4.18336 20.3016 4.24392 20.1219 4.24392H19.4878V19.9511C19.4878 20.5146 19.2872 20.997 18.886 21.3982C18.4848 21.7994 18.0024 22 17.4389 22H6.31722ZM18.2195 4.24392H5.53658V19.9511C5.53658 20.1787 5.60972 20.3658 5.756 20.5123C5.90248 20.6586 6.08956 20.7317 6.31722 20.7317H17.4389C17.6665 20.7317 17.8536 20.6586 18.0001 20.5123C18.1464 20.3658 18.2195 20.1787 18.2195 19.9511V4.24392ZM9.73241 18.1951C9.9125 18.1951 10.0631 18.1344 10.1842 18.0128C10.3054 17.8913 10.3659 17.7407 10.3659 17.561V7.41465C10.3659 7.23498 10.305 7.08437 10.1833 6.96282C10.0615 6.84128 9.91071 6.78051 9.73082 6.78051C9.55094 6.78051 9.40043 6.84128 9.27931 6.96282C9.15819 7.08437 9.09763 7.23498 9.09763 7.41465V17.561C9.09763 17.7407 9.1585 17.8913 9.28026 18.0128C9.40181 18.1344 9.55252 18.1951 9.73241 18.1951ZM14.0253 18.1951C14.2051 18.1951 14.3556 18.1344 14.4768 18.0128C14.5979 17.8913 14.6584 17.7407 14.6584 17.561V7.41465C14.6584 7.23498 14.5976 7.08437 14.4758 6.96282C14.3543 6.84128 14.2036 6.78051 14.0237 6.78051C13.8436 6.78051 13.693 6.84128 13.5718 6.96282C13.4507 7.08437 13.3902 7.23498 13.3902 7.41465V17.561C13.3902 17.7407 13.451 17.8913 13.5728 18.0128C13.6945 18.1344 13.8454 18.1951 14.0253 18.1951Z" fill="black"/>
</g>
</svg>
