<svg width="24" height="24" viewBox="0 0 24 24" fill="none" xmlns="http://www.w3.org/2000/svg">
<mask id="mask0_751_1714" style="mask-type:alpha" maskUnits="userSpaceOnUse" x="0" y="0" width="24" height="24">
<rect width="24" height="24" fill="#D9D9D9"/>
</mask>
<g mask="url(#mask0_751_1714)">
<path d="M10.8278 3.09572L4.60275 6.69859L11.1409 10.4775L17.6791 6.69859L11.4541 3.09572C11.3496 3.03059 11.2452 2.99803 11.1409 2.99803C11.0366 2.99803 10.9322 3.03059 10.8278 3.09572ZM3 14.7337V7.38752C3 7.09258 3.07191 6.81995 3.21573 6.56961C3.35956 6.31928 3.56164 6.11762 3.82198 5.96464L10.319 2.22108C10.4624 2.13628 10.5981 2.07819 10.726 2.04681C10.8539 2.0156 10.9919 2 11.1399 2C11.288 2 11.4305 2.0156 11.5676 2.04681C11.7046 2.07819 11.8364 2.13628 11.9629 2.22108L18.4599 5.96464C18.7202 6.11762 18.9223 6.31928 19.0661 6.56961C19.21 6.81995 19.2819 7.09258 19.2819 7.38752V10.3953C19.2819 10.5395 19.233 10.6603 19.1353 10.7579C19.0377 10.8554 18.9166 10.9042 18.7723 10.9042C18.628 10.9042 18.5072 10.8554 18.41 10.7579C18.3129 10.6603 18.2643 10.5395 18.2643 10.3953V7.52236L11.9375 11.1761C11.6761 11.3235 11.401 11.3972 11.1122 11.3972C10.8235 11.3972 10.5506 11.3235 10.2935 11.1761L4.01762 7.52236V14.7279C4.01762 14.8323 4.04374 14.9302 4.09597 15.0214C4.14804 15.1128 4.22631 15.1911 4.33079 15.2562L10.4953 18.8454C10.5716 18.8878 10.6331 18.9472 10.6797 19.0237C10.7263 19.1002 10.7497 19.1851 10.7497 19.2784C10.7497 19.4738 10.6681 19.6167 10.5049 19.7073C10.3418 19.798 10.1754 19.7958 10.0058 19.7007L3.82198 16.1566C3.56164 16.0036 3.35956 15.8019 3.21573 15.5516C3.07191 15.3013 3 15.0286 3 14.7337ZM17.2466 22C16.1128 22 15.151 21.605 14.3612 20.815C13.5712 20.0251 13.1762 19.0633 13.1762 17.9295C13.1762 16.7957 13.5712 15.8339 14.3612 15.0441C15.151 14.2541 16.1128 13.8591 17.2466 13.8591C18.3804 13.8591 19.3423 14.2541 20.1321 15.0441C20.9221 15.8339 21.3171 16.7957 21.3171 17.9295C21.3171 19.0633 20.9221 20.0251 20.1321 20.815C19.3423 21.605 18.3804 22 17.2466 22ZM17.6379 17.8321V15.4443C17.6379 15.3398 17.5988 15.2484 17.5206 15.1703C17.4423 15.0919 17.351 15.0527 17.2466 15.0527C17.1423 15.0527 17.051 15.0919 16.9727 15.1703C16.8945 15.2484 16.8554 15.3398 16.8554 15.4443V17.8181C16.8554 17.9219 16.8743 18.0226 16.9121 18.1201C16.9499 18.2174 17.0132 18.3105 17.1019 18.3992L18.6479 19.9452C18.7235 20.0208 18.8129 20.0619 18.916 20.0686C19.019 20.075 19.1148 20.0339 19.2035 19.9452C19.2922 19.8565 19.3366 19.7639 19.3366 19.6674C19.3366 19.5709 19.2922 19.4782 19.2035 19.3893L17.6379 17.8321Z" fill="black"/>
</g>
</svg>
