<svg width="24" height="24" viewBox="0 0 24 24" fill="none" xmlns="http://www.w3.org/2000/svg">
<path d="M15.6352 17.6125V12.9084C15.6349 12.6674 15.5391 12.4363 15.3687 12.2658C15.1983 12.0954 14.9672 11.9995 14.7262 11.9993H6.99959C6.75858 11.9995 6.52751 12.0954 6.35709 12.2658C6.18667 12.4362 6.09083 12.6673 6.09059 12.9083V16.3493L5.16992 16.6561C5.14233 16.4374 5.03603 16.2362 4.87089 16.0902C4.70574 15.9441 4.49306 15.8632 4.2726 15.8625H2.90908C2.66804 15.8627 2.43694 15.9586 2.2665 16.129C2.09606 16.2995 2.00021 16.5306 2 16.7716V20.8622C2.00024 21.1032 2.09608 21.3342 2.2665 21.5047C2.43692 21.6751 2.66799 21.7709 2.909 21.7712H4.27251C4.46798 21.7705 4.65801 21.7067 4.8143 21.5893C4.97058 21.4719 5.08476 21.3072 5.13984 21.1196L6.48205 20.8961C6.63855 20.8697 6.7994 20.8939 6.94121 20.9651L8.336 21.6627C8.70942 21.8505 9.11638 21.9625 9.53333 21.9921C9.95029 22.0217 10.369 21.9683 10.7652 21.8351L16.1426 20.0429C16.3022 19.9896 16.4494 19.9048 16.5755 19.7933C16.7016 19.6819 16.8039 19.5462 16.8764 19.3943C16.9489 19.2425 16.99 19.0776 16.9973 18.9095C17.0046 18.7414 16.9779 18.5735 16.9189 18.4159C16.8214 18.1606 16.6433 17.9441 16.4117 17.7991C16.18 17.6541 15.9074 17.5886 15.6352 17.6125ZM4.27255 20.8622H2.90904V16.7716H4.27255V20.8622ZM11.5446 12.9083V14.3781L11.0968 14.1094C11.0261 14.0669 10.9453 14.0445 10.8629 14.0445C10.7805 14.0445 10.6996 14.0669 10.629 14.1094L10.1811 14.3781V12.9083H11.5446ZM6.99954 12.9083H9.2721V15.1808C9.27211 15.2612 9.29347 15.3402 9.33399 15.4097C9.3745 15.4792 9.43273 15.5367 9.50272 15.5763C9.57272 15.6159 9.65197 15.6363 9.73239 15.6353C9.81282 15.6342 9.89153 15.6119 9.9605 15.5705L10.8629 15.0289L11.7652 15.5704C11.8342 15.6117 11.9129 15.6341 11.9933 15.6351C12.0737 15.6361 12.153 15.6158 12.223 15.5761C12.293 15.5365 12.3512 15.479 12.3917 15.4095C12.4322 15.3401 12.4536 15.2611 12.4536 15.1806V12.9083H14.7262V17.7407L12.2653 18.1053C12.2634 17.8532 12.1839 17.6079 12.0377 17.4026C11.8915 17.1972 11.6856 17.0419 11.4481 16.9576L8.61786 16.0302C8.10348 15.8628 7.54908 15.8642 7.03555 16.0342L6.99959 16.0462L6.99954 12.9083ZM16.0559 19.0026C16.0363 19.0444 16.0083 19.0817 15.9737 19.1122C15.9391 19.1428 15.8987 19.166 15.8549 19.1804L10.4775 20.9727C10.1945 21.068 9.89546 21.1062 9.59762 21.085C9.29979 21.0639 9.00912 20.9838 8.74246 20.8495L7.34741 20.152C7.03392 19.9946 6.67843 19.9412 6.33253 19.9995L5.18155 20.1913V17.6106L7.32312 16.8968C7.65144 16.7878 8.00601 16.7869 8.33489 16.8941L11.1512 17.8164C11.2261 17.8437 11.2881 17.8981 11.3248 17.9689C11.3615 18.0397 11.3704 18.1216 11.3496 18.1986C11.3288 18.2756 11.2798 18.3419 11.2124 18.3846C11.145 18.4272 11.0641 18.4429 10.9857 18.4288L7.90858 17.8692C7.84964 17.8581 7.78908 17.8587 7.73037 17.871C7.67166 17.8833 7.61598 17.9072 7.56653 17.9411C7.51708 17.9751 7.47484 18.0185 7.44225 18.0689C7.40966 18.1192 7.38737 18.1756 7.37665 18.2346C7.36593 18.2936 7.367 18.3542 7.3798 18.4128C7.3926 18.4714 7.41687 18.5269 7.45122 18.5761C7.48557 18.6252 7.52932 18.6671 7.57994 18.6993C7.63055 18.7315 7.68705 18.7534 7.74615 18.7636L10.8231 19.3231C10.9888 19.3533 11.1591 19.3488 11.323 19.3099C11.4869 19.2709 11.6409 19.1983 11.7754 19.0968L15.6964 18.5159C15.7739 18.5047 15.8529 18.5203 15.9204 18.5601C15.9878 18.5999 16.0397 18.6615 16.0674 18.7347C16.0838 18.7778 16.0913 18.8238 16.0893 18.8699C16.0873 18.9159 16.076 18.9611 16.0559 19.0026ZM21.0892 2.4547H19.7257C19.519 2.45509 19.3186 2.52587 19.1575 2.65538C18.9964 2.78488 18.8842 2.9654 18.8394 3.16718L13.9745 2.08532C13.2546 1.915 12.4979 2.00134 11.8349 2.32943L10.0639 3.14136C9.64884 3.34963 9.28405 3.64573 8.99488 4.00911L8.42476 4.72721H6.99959C6.75858 4.72747 6.52753 4.82333 6.35711 4.99374C6.1867 5.16415 6.09085 5.39521 6.09059 5.63621V10.1813C6.09085 10.4223 6.1867 10.6533 6.35711 10.8237C6.52753 10.9942 6.75858 11.09 6.99959 11.0903H16.5442C16.7852 11.09 17.0163 10.9942 17.1867 10.8237C17.3571 10.6533 17.4529 10.4223 17.4532 10.1813V8.64165C17.5416 8.61106 17.6295 8.57876 17.7157 8.54016L18.9819 7.97374C19.0653 8.09374 19.1765 8.1918 19.3061 8.25959C19.4356 8.32737 19.5795 8.36287 19.7257 8.36307H21.0892C21.3302 8.36281 21.5613 8.26696 21.7317 8.09654C21.9021 7.92613 21.998 7.69507 21.9982 7.45407V3.36353C21.9979 3.12256 21.902 2.89154 21.7316 2.72117C21.5612 2.55079 21.3302 2.45496 21.0892 2.4547ZM16.5442 10.1813H6.99959V5.63625H14.8132L14.7046 5.85062C14.6714 5.91627 14.6227 5.97285 14.5627 6.01551C14.5028 6.05817 14.4334 6.08562 14.3604 6.0955L11.7805 6.4469C11.4814 6.4876 11.2088 6.64041 11.018 6.87443C10.8273 7.10844 10.7325 7.40619 10.7529 7.70742C10.7733 8.00866 10.9074 8.2909 11.128 8.49703C11.3486 8.70316 11.6393 8.8178 11.9412 8.81776H16.4166C16.4595 8.81776 16.5015 8.81282 16.5442 8.81111V10.1813ZM17.3447 7.71058C17.0528 7.84161 16.7365 7.90916 16.4166 7.90876H11.9412C11.8698 7.9088 11.801 7.88171 11.7488 7.83296C11.6965 7.78421 11.6648 7.71744 11.6599 7.64616C11.655 7.57488 11.6774 7.50441 11.7225 7.44901C11.7676 7.3936 11.8321 7.3574 11.9029 7.34772L14.4828 6.99632C14.7016 6.96656 14.9099 6.88409 15.0897 6.75602C15.2696 6.62795 15.4157 6.4581 15.5154 6.26108L15.9579 5.38703C15.993 5.31777 16.0098 5.24067 16.0066 5.16309C16.0034 5.08551 15.9804 5.01003 15.9398 4.94386C15.8992 4.87769 15.8423 4.82304 15.7745 4.78511C15.7068 4.74718 15.6304 4.72725 15.5528 4.72721H9.58545L9.70685 4.5742C9.9099 4.31842 10.1656 4.10932 10.4567 3.96113L12.2275 3.14924C12.7053 2.91097 13.2517 2.84802 13.7712 2.97139L18.8167 4.09331V7.05209L17.3447 7.71058ZM21.0892 7.45424H19.7257V3.3637H21.0892V7.45424Z" fill="black"/>
</svg>
