<svg width="24" height="24" viewBox="0 0 24 24" fill="none" xmlns="http://www.w3.org/2000/svg">
<path d="M19.4754 11.3947H19.3992V6.77176C19.3992 6.18249 19.1698 5.62854 18.7531 5.2119L16.1874 2.64614C15.7707 2.22945 15.2167 2 14.6275 2H6.76222C5.5458 2 4.55622 2.98958 4.55622 4.20599V11.3947H4.48005C3.66395 11.3947 3 12.0587 3 12.8748V17.7912C3 18.6073 3.66395 19.2713 4.48005 19.2713H4.55618V19.794C4.55618 21.0104 5.54576 22 6.76218 22H17.1933C18.4097 22 19.3992 21.0104 19.3992 19.794V19.2713H19.4754C20.2915 19.2713 20.9555 18.6073 20.9555 17.7912V12.8749C20.9555 12.0587 20.2915 11.3947 19.4754 11.3947ZM15.8453 3.96103L17.5554 5.67108H15.9764C15.9416 5.67105 15.9083 5.65724 15.8838 5.63269C15.8592 5.60813 15.8454 5.57484 15.8453 5.54011V3.96103ZM5.72779 4.20599C5.72779 3.6356 6.19178 3.17161 6.76218 3.17161H14.6275C14.6429 3.17161 14.6583 3.17208 14.6737 3.17274V5.54007C14.6737 6.25835 15.2581 6.84266 15.9764 6.84266H18.2276V11.3947H5.72779V4.20599ZM18.2276 19.7942C18.2276 20.3645 17.7636 20.8285 17.1933 20.8285H6.76218C6.19182 20.8285 5.72779 20.3645 5.72779 19.7942V19.2714H18.2276V19.7942H18.2276ZM19.7839 17.7913C19.7838 17.9614 19.6455 18.0997 19.4754 18.0997H4.48001C4.30993 18.0997 4.17157 17.9614 4.17157 17.7913V12.8749C4.17157 12.7048 4.30993 12.5664 4.48001 12.5664H19.4754C19.6454 12.5664 19.7838 12.7048 19.7838 12.8749L19.7839 17.7913Z" fill="black"/>
<path d="M9.91271 13.4821C9.65392 13.2593 9.3097 13.1479 8.88036 13.1479H7.6343C7.52992 13.1479 7.44563 13.1761 7.38145 13.2322C7.31719 13.2885 7.28516 13.3547 7.28516 13.4309V17.2594C7.28516 17.3517 7.33125 17.4229 7.42359 17.4731C7.51582 17.5233 7.62621 17.5484 7.75469 17.5484C7.88305 17.5484 7.9934 17.5233 8.08575 17.4731C8.17801 17.4229 8.22418 17.3518 8.22418 17.2594V15.9592H8.82012C9.26555 15.9592 9.62372 15.8458 9.89462 15.6191C10.1655 15.3924 10.3009 15.0403 10.3009 14.5626V14.5325C10.301 14.055 10.1715 13.7048 9.91271 13.4821ZM9.36192 14.6348C9.36192 15.0362 9.1813 15.2368 8.82012 15.2368H8.22422V13.9667H8.82016C9.18134 13.9667 9.36196 14.1674 9.36196 14.5686L9.36192 14.6348ZM13.2626 13.4911C12.9937 13.2623 12.6345 13.1479 12.1851 13.1479H11.1196C10.9992 13.1479 10.9008 13.1761 10.8246 13.2322C10.7483 13.2885 10.7102 13.3547 10.7102 13.4308V17.2653C10.7102 17.3417 10.7484 17.4078 10.8246 17.464C10.9008 17.5203 10.9992 17.5483 11.1196 17.5483H12.1851C12.6344 17.5483 12.9937 17.4339 13.2626 17.2052C13.5314 16.9764 13.6659 16.6173 13.6659 16.1276V14.5686C13.6658 14.079 13.5313 13.7199 13.2626 13.4911ZM12.7268 16.1277C12.7268 16.529 12.5462 16.7297 12.185 16.7297H11.6493V13.9667H12.185C12.5462 13.9667 12.7268 14.1674 12.7268 14.5687V16.1277ZM16.9705 13.2684C16.9224 13.1881 16.8521 13.148 16.7599 13.148H14.6711C14.5587 13.148 14.4624 13.1731 14.3822 13.2233C14.3018 13.2735 14.2618 13.3447 14.2618 13.437V17.2594C14.2618 17.3518 14.3079 17.423 14.4002 17.4732C14.4925 17.5234 14.6028 17.5484 14.7313 17.5484C14.8597 17.5484 14.97 17.5234 15.0624 17.4732C15.1546 17.423 15.2008 17.3518 15.2008 17.2594V15.7064H16.1098C16.202 15.7064 16.2723 15.6702 16.3205 15.598C16.3686 15.5258 16.3927 15.4436 16.3927 15.3512C16.3927 15.251 16.3676 15.1646 16.3175 15.0923C16.2672 15.0201 16.198 14.984 16.1098 14.984H15.2008V13.9667H16.7599C16.8481 13.9667 16.9173 13.9266 16.9675 13.8463C17.0177 13.766 17.0428 13.6678 17.0428 13.5513C17.0428 13.443 17.0187 13.3487 16.9705 13.2684Z" fill="black"/>
<path d="M11.756 5H7.24396C7.10941 5 7 5.0756 7 5.16753V5.83333C7 5.92526 7.10941 6 7.24396 6H11.756C11.8906 6 12 5.92526 12 5.83333V5.16753C12 5.0756 11.8906 5 11.756 5Z" fill="black"/>
<path d="M12.7072 7H7.29276C7.13129 7 7 7.0756 7 7.16753V7.83333C7 7.92526 7.13129 8 7.29276 8H12.7072C12.8687 8 13 7.92526 13 7.83333V7.16753C13 7.0756 12.8687 7 12.7072 7Z" fill="black"/>
<path d="M13.6584 9H7.34155C7.15317 9 7 9.0756 7 9.16753V9.83333C7 9.92526 7.15317 10 7.34155 10H13.6584C13.8468 10 14 9.92526 14 9.83333V9.16753C14 9.0756 13.8468 9 13.6584 9Z" fill="black"/>
</svg>
