<svg width="24" height="24" viewBox="0 0 24 24" fill="none" xmlns="http://www.w3.org/2000/svg">
<path d="M21.9368 13.0013L20.1475 10.5315C20.1098 10.4794 20.0579 10.4394 19.998 10.4162L16.225 8.94932L15.9978 8.72211C16.2096 8.35997 16.37 7.97362 16.4761 7.56847H17.0571C17.2417 7.56847 17.3912 7.41894 17.3912 7.23432V5.54689C17.3912 5.36227 17.2417 5.21274 17.0571 5.21274H16.4761C16.37 4.80759 16.21 4.42123 15.9978 4.0591L16.4088 3.6481C16.5391 3.51779 16.5391 3.30602 16.4088 3.17571L15.2155 1.98239C15.0852 1.85207 14.8734 1.85207 14.7431 1.98239L14.3321 2.39339C13.97 2.18162 13.5836 2.02123 13.1785 1.91514V1.33415C13.1785 1.14953 13.0289 1 12.8443 1H11.1569C10.9723 1 10.8227 1.14953 10.8227 1.33415V1.91514C10.4176 2.02123 10.0312 2.1812 9.6691 2.39339L9.25811 1.98239C9.12779 1.85207 8.91602 1.85207 8.78571 1.98239L7.59239 3.17571C7.52974 3.23836 7.49465 3.32357 7.49465 3.41211C7.49465 3.50066 7.52974 3.58587 7.59239 3.64852L8.00339 4.05952C7.79162 4.42165 7.63123 4.80801 7.52514 5.21316H6.94415C6.75953 5.21316 6.61 5.36269 6.61 5.5473V7.23474C6.61 7.41935 6.75953 7.56889 6.94415 7.56889H7.52514C7.63123 7.97404 7.79121 8.36039 8.00339 8.72211L7.77617 8.94932L4.00325 10.4162C3.94477 10.4388 3.89256 10.478 3.85372 10.5315L2.06353 13.0013C2.03239 13.0442 2.01194 13.094 2.00388 13.1464C1.99581 13.1989 2.00037 13.2525 2.01717 13.3028C2.03394 13.3532 2.06247 13.3988 2.10038 13.4359C2.1383 13.473 2.18452 13.5006 2.2352 13.5163C2.78153 13.6854 3.29945 13.8529 3.78939 14.0171V18.9052C3.78939 19.043 3.87418 19.1667 4.00241 19.2168L11.8786 22.2792C11.9566 22.3093 12.0429 22.3093 12.1209 22.2792L19.9971 19.2168C20.1258 19.1667 20.2101 19.043 20.2101 18.9052V14.0171C20.7001 13.8529 21.218 13.6858 21.7643 13.5163C21.815 13.5006 21.8612 13.473 21.8992 13.4359C21.9371 13.3988 21.9656 13.3532 21.9824 13.3028C22.017 13.2005 21.9999 13.0881 21.9368 13.0013ZM12.0002 13.4315L5.04578 10.7274L7.6872 9.70032L8.78529 10.7984C8.84794 10.8611 8.93315 10.8961 9.0217 10.8961C9.11025 10.8961 9.19545 10.8611 9.25811 10.7984L9.6691 10.3874C10.0312 10.5992 10.4176 10.7596 10.8223 10.8656V11.4466C10.8223 11.6313 10.9719 11.7808 11.1565 11.7808H12.8439C13.0285 11.7808 13.1781 11.6313 13.1781 11.4466V10.8656C13.5832 10.7596 13.9696 10.5996 14.3317 10.3874L14.7427 10.7984C14.8734 10.9287 15.0848 10.9287 15.2151 10.7984L16.3132 9.70032L18.9546 10.7274L12.0002 13.4315ZM7.79079 6.89976H7.27829V5.88061H7.79079C7.86813 5.88065 7.94308 5.85386 8.00287 5.8048C8.06266 5.75575 8.10359 5.68748 8.11867 5.61163C8.21975 5.10414 8.41731 4.62757 8.70551 4.19569C8.79406 4.06328 8.77652 3.8866 8.66374 3.77383L8.3012 3.41128L9.0217 2.69078L9.38425 3.05332C9.49702 3.1661 9.67328 3.18364 9.8061 3.09509C10.2349 2.8082 10.716 2.60877 11.222 2.50825C11.2979 2.4931 11.3661 2.45215 11.4151 2.39237C11.4642 2.3326 11.491 2.25769 11.491 2.18037V1.66829H12.5102V2.18079C12.5101 2.25812 12.5369 2.33308 12.586 2.39287C12.635 2.45266 12.7033 2.49359 12.7792 2.50867C13.2866 2.60975 13.7632 2.80731 14.1951 3.09551C14.3275 3.18406 14.5042 3.16652 14.617 3.05374L14.9795 2.69119L15.7 3.41211L15.3375 3.77466C15.2829 3.82934 15.2489 3.90123 15.2412 3.97813C15.2336 4.05503 15.2529 4.1322 15.2957 4.19652C15.5826 4.62528 15.782 5.10646 15.8825 5.61246C15.8977 5.68828 15.9386 5.75651 15.9984 5.80555C16.0582 5.85458 16.1331 5.88141 16.2104 5.88145H16.7229V6.90059H16.2104C16.1331 6.90056 16.0581 6.92735 15.9983 6.9764C15.9385 7.02546 15.8976 7.09373 15.8825 7.16958C15.7815 7.67706 15.5839 8.15322 15.2957 8.58552C15.2528 8.64981 15.2335 8.727 15.2411 8.80393C15.2487 8.88085 15.2828 8.95276 15.3375 9.00738L15.7 9.36993L14.9795 10.0904L14.617 9.72788C14.5623 9.67318 14.4904 9.63912 14.4135 9.6315C14.3366 9.62388 14.2594 9.64319 14.1951 9.68612C13.7663 9.97301 13.2852 10.1724 12.7792 10.273C12.7033 10.2881 12.6351 10.3291 12.5861 10.3888C12.537 10.4486 12.5102 10.5235 12.5102 10.6008V11.1133H11.491V10.6008C11.4911 10.5235 11.4643 10.4485 11.4152 10.3888C11.3662 10.329 11.2979 10.288 11.222 10.273C10.7146 10.1719 10.2384 9.97432 9.8061 9.68612C9.74182 9.64319 9.66463 9.62388 9.5877 9.6315C9.51077 9.63912 9.43887 9.67318 9.38425 9.72788L9.0217 10.0904L8.3012 9.36993L8.66374 9.00738C8.71835 8.95271 8.75236 8.88081 8.75997 8.80391C8.76758 8.72701 8.74834 8.64985 8.70551 8.58552C8.41862 8.15676 8.21919 7.67558 8.11867 7.16958C8.08734 7.01253 7.94993 6.89976 7.79079 6.89976ZM4.243 11.1325L11.4756 13.9448L10.1093 15.8302C9.35083 15.4459 6.96085 14.3094 2.87759 13.0171L4.243 11.1325ZM4.4581 14.2447C8.13955 15.5203 10.0237 16.5386 10.0504 16.5528C10.101 16.5804 10.1561 16.5937 10.2104 16.5937C10.3144 16.5937 10.4163 16.5453 10.4811 16.4555L11.666 14.8207V21.4794L4.4581 18.6763V14.2447ZM19.5423 18.6763L12.3343 21.4794V14.8207L13.5193 16.4559C13.5503 16.4987 13.5909 16.5336 13.638 16.5576C13.685 16.5816 13.7371 16.5942 13.79 16.5942C13.8443 16.5942 13.8994 16.5808 13.9499 16.5532C13.9721 16.5411 15.8562 15.5224 19.5423 14.2451V18.6763ZM13.891 15.8302L12.5248 13.9448L19.7574 11.1325L21.1232 13.0171C17.0395 14.3094 14.6495 15.4459 13.891 15.8302ZM12.0002 9.2889C13.5987 9.2889 14.8989 7.98866 14.8989 6.39019C14.8989 4.79172 13.5987 3.49147 12.0002 3.49147C10.4017 3.49147 9.10147 4.79172 9.10147 6.39019C9.10147 7.98866 10.4017 9.2889 12.0002 9.2889ZM10.7868 8.26015C11.0834 7.89927 11.5265 7.68333 12.0002 7.68333C12.4734 7.68333 12.917 7.89927 13.2136 8.26015C12.864 8.48779 12.4475 8.62061 12.0002 8.62061C11.5529 8.62061 11.1364 8.48779 10.7868 8.26015ZM12.0002 6.91563C11.6163 6.91563 11.3043 6.60362 11.3043 6.21977C11.3043 5.83592 11.6163 5.52391 12.0002 5.52391C12.384 5.52391 12.696 5.83592 12.696 6.21977C12.696 6.60362 12.384 6.91563 12.0002 6.91563ZM12.0002 4.16018C13.2298 4.16018 14.2306 5.16053 14.2306 6.3906C14.2306 6.93234 14.0364 7.42938 13.7139 7.81615C13.4996 7.56123 13.2314 7.35696 12.9287 7.21803C13.1964 6.96868 13.3643 6.61365 13.3643 6.21977C13.3643 5.46753 12.7524 4.85562 12.0002 4.85562C11.2479 4.85562 10.636 5.46753 10.636 6.21977C10.636 6.61365 10.8039 6.96868 11.0717 7.21803C10.769 7.35696 10.5008 7.56123 10.2864 7.81615C9.96399 7.42938 9.76977 6.93234 9.76977 6.3906C9.76977 5.16053 10.7705 4.16018 12.0002 4.16018Z" fill="black"/>
</svg>
