<svg width="24" height="24" viewBox="0 0 24 24" fill="none" xmlns="http://www.w3.org/2000/svg">
<path d="M3.6656 14.6667C3.51226 14.6667 3.37893 14.77 3.34226 14.92L2.00891 20.2534C1.98558 20.3534 2.00891 20.4601 2.06891 20.5401C2.12891 20.6201 2.22892 20.6668 2.33225 20.6668H21.6658C21.7691 20.6668 21.8658 20.6201 21.9291 20.5401C21.9925 20.4601 22.0158 20.3534 21.9891 20.2534L20.6558 14.92C20.6191 14.7734 20.4858 14.6667 20.3324 14.6667H17.6658V14H19.6658C19.8491 14 19.9991 13.85 19.9991 13.6667V12.3333C19.9991 12.15 19.8491 12 19.6658 12H4.33227C4.14894 12 3.99894 12.15 3.99894 12.3333V13.6667C3.99894 13.85 4.14894 14 4.33227 14H6.33229V14.6667H3.6656ZM4.66561 13.3333V12.6667H19.3324V13.3333H4.66561ZM16.9991 14V14.6667H6.99897V14H16.9991ZM20.0724 15.3334L21.2391 20.0001H2.75892L3.9256 15.3334H20.0724Z" fill="black"/>
<path d="M7.33227 19.6668H16.6657C16.849 19.6668 16.999 19.5168 16.999 19.3335V16.0001C16.999 15.8167 16.849 15.6667 16.6657 15.6667H7.33227C7.14894 15.6667 6.99893 15.8167 6.99893 16.0001V19.3335C6.99893 19.5168 7.14894 19.6668 7.33227 19.6668ZM16.3324 16.3334V19.0001H8.55562L13.089 16.3334H16.3324ZM7.66561 16.3334H9.16229L7.66561 17.1901V16.3334ZM7.66561 17.9568L10.5056 16.3334H11.7757L7.66561 18.7501V17.9568ZM4.33224 19.0001H6.33226C6.5156 19.0001 6.6656 18.8501 6.6656 18.6668V16.6668C6.6656 16.4834 6.5156 16.3334 6.33226 16.3334H4.33224C4.1489 16.3334 3.9989 16.4834 3.9989 16.6668V18.6668C3.9989 18.8501 4.1489 19.0001 4.33224 19.0001ZM4.66558 17.0001H5.99892V18.3334H4.66558V17.0001ZM17.6657 19.0001H19.6657C19.8491 19.0001 19.9991 18.8501 19.9991 18.6668V16.6668C19.9991 16.4834 19.8491 16.3334 19.6657 16.3334H17.6657C17.4824 16.3334 17.3324 16.4834 17.3324 16.6668V18.6668C17.3324 18.8501 17.4824 19.0001 17.6657 19.0001ZM17.9991 17.0001H19.3324V18.3334H17.9991V17.0001Z" fill="black"/>
<path d="M14.4836 7.79923L13.9835 8.46582L14.5168 8.86592L15.0169 8.19933L14.4836 7.79923Z" fill="black"/>
<path d="M14.0157 9.53339L13.4823 9.13339L12.7223 10.1467L13.5923 6.6667H15.3324L14.9824 7.13337L15.5157 7.53337L16.2657 6.53336C16.339 6.43336 16.3524 6.30003 16.299 6.19002L15.339 4.19C15.2824 4.07333 15.1657 4 15.039 4H8.95896C8.83229 4 8.71229 4.07333 8.65895 4.19L7.69894 6.19002C7.64561 6.30336 7.65894 6.43336 7.73228 6.53336L11.7323 11.8668C11.7957 11.9501 11.8923 12.0001 11.999 12.0001C12.1057 12.0001 12.2023 11.9501 12.2657 11.8668L14.0157 9.53339ZM15.469 6.00002H14.0557L14.9624 4.94001L15.4724 6.00002H15.469ZM11.999 4.66667H14.3157L13.3123 5.84335L12.2357 4.76668C12.169 4.70001 12.0857 4.67001 11.999 4.67001C11.9123 4.67001 11.829 4.70334 11.7623 4.76668L10.6856 5.84335L9.6823 4.66667H11.999ZM12.529 6.00002H11.4723L12.0023 5.47002L12.5323 6.00002H12.529ZM9.03896 4.94001L9.94564 6.00002H8.53229L9.04229 4.94001H9.03896ZM8.66562 6.6667H10.4056L11.2757 10.1467L8.66562 6.6667ZM11.0923 6.6667H12.9057L11.999 10.2934L11.0923 6.6667Z" fill="black"/>
</svg>
