<svg width="24" height="24" viewBox="0 0 24 24" fill="none" xmlns="http://www.w3.org/2000/svg">
<path d="M11.9542 24C11.6803 24 11.4153 23.9421 11.1592 23.8262C10.903 23.7104 10.6788 23.5387 10.4866 23.3112L2.43738 13.6674C2.29159 13.4931 2.1822 13.3027 2.10921 13.0964C2.0364 12.8898 2 12.6728 2 12.4453C2 12.2994 2.01497 12.1525 2.04491 12.0048C2.07485 11.8569 2.12728 11.7155 2.20221 11.5807L4.14411 7.69291C4.31842 7.37263 4.55589 7.11647 4.85651 6.92445C5.15695 6.73224 5.49043 6.63614 5.85695 6.63614H18.0515C18.418 6.63614 18.7515 6.73224 19.0519 6.92445C19.3525 7.11647 19.59 7.37263 19.7643 7.69291L21.7062 11.5807C21.7811 11.7155 21.8336 11.8569 21.8635 12.0048C21.8934 12.1525 21.9084 12.2994 21.9084 12.4453C21.9084 12.6728 21.872 12.8898 21.7992 13.0964C21.7262 13.3027 21.6168 13.4931 21.471 13.6674L13.4218 23.3112C13.2296 23.5387 13.0054 23.7104 12.7492 23.8262C12.4931 23.9421 12.2281 24 11.9542 24ZM9.00044 11.9506H14.908L13.0477 8.23047H10.8608L9.00044 11.9506ZM11.157 21.6412V13.5449H4.43003L11.157 21.6412ZM12.7514 21.6412L19.4784 13.5449H12.7514V21.6412ZM16.6801 11.9506H20.0895L18.3214 8.41435C18.2942 8.35996 18.2532 8.31568 18.1987 8.28149C18.1441 8.24748 18.0862 8.23047 18.0249 8.23047H14.8198L16.6801 11.9506ZM3.81887 11.9506H7.22834L9.08866 8.23047H5.88353C5.82223 8.23047 5.7643 8.24748 5.70974 8.28149C5.65518 8.31568 5.61426 8.35996 5.58698 8.41435L3.81887 11.9506Z" fill="black"/>
<path d="M11.1247 0.622138C11.1247 0.27854 11.4033 0 11.7468 0C12.0904 0 12.369 0.278541 12.369 0.622138V3.52545C12.369 3.86905 12.0904 4.14759 11.7468 4.14759C11.4033 4.14759 11.1247 3.86905 11.1247 3.52545V0.622138Z" fill="black"/>
<path d="M12.369 5.18448C12.369 5.52808 12.0905 5.80662 11.7469 5.80662C11.4033 5.80662 11.1247 5.52808 11.1247 5.18448C11.1247 4.84089 11.4033 4.56234 11.7469 4.56234C12.0905 4.56234 12.369 4.84089 12.369 5.18448Z" fill="black"/>
<path d="M20.8468 2.30104C21.0972 2.06581 21.491 2.07816 21.7262 2.32861C21.9614 2.57906 21.9491 2.97278 21.6986 3.20801L19.5823 5.19563C19.3319 5.43085 18.9382 5.41851 18.7029 5.16806C18.4677 4.9176 18.4801 4.52388 18.7305 4.28865L20.8468 2.30104Z" fill="black"/>
<path d="M3.81055 2.3059C3.55833 2.07258 3.16471 2.08789 2.93138 2.34012C2.69805 2.59234 2.71337 2.98596 2.9656 3.21929L5.09682 5.19085C5.34905 5.42418 5.74267 5.40886 5.97599 5.15664C6.20932 4.90442 6.19401 4.5108 5.94178 4.27747L3.81055 2.3059Z" fill="black"/>
</svg>
