<svg width="24" height="24" viewBox="0 0 24 24" fill="none" xmlns="http://www.w3.org/2000/svg">
<path d="M21.9509 10.9953L20.7304 8.28268C20.4284 7.61141 19.8301 7.09948 19.1219 6.9008C18.9033 6.83945 18.6773 6.80834 18.4502 6.80834H5.55067C4.79197 6.80834 4.05801 7.16554 3.58784 7.76032C3.46094 7.92071 3.35433 8.09616 3.27045 8.28268L2.04986 10.9953C1.95603 11.2037 1.99709 11.456 2.15225 11.6238L11.5745 21.8151C11.7985 22.0616 12.2025 22.0616 12.4263 21.8151L21.8486 11.6238C22.0031 11.4564 22.0445 11.2031 21.9509 10.9953ZM18.3008 7.9624L15.8471 10.4161L13.3934 7.9624H18.3008ZM14.4541 10.655H9.54672L12.0004 8.20135L14.4541 10.655ZM10.6074 7.9624L8.15371 10.4161L5.70005 7.9624H10.6074ZM4.32286 8.75617C4.37656 8.63697 4.44736 8.52624 4.53302 8.42749L6.7607 10.655H3.46838L4.32286 8.75617ZM3.89535 11.8091H7.75467L10.4164 18.8627L3.89535 11.8091ZM12.0004 19.7915L8.98823 11.8091H15.0126L12.0004 19.7915ZM13.5844 18.8625L16.2461 11.8091H20.1055L13.5844 18.8625ZM17.2401 10.655L19.4677 8.42753C19.5534 8.52624 19.6243 8.63697 19.6779 8.75621L20.5325 10.6551L17.2401 10.655ZM12.0004 5.6544C12.319 5.6544 12.5774 5.39611 12.5774 5.07731V2.57697C12.5774 2.25833 12.319 2 12.0004 2C11.6818 2 11.4235 2.25833 11.4235 2.57697V5.07731C11.4235 5.39607 11.6818 5.6544 12.0004 5.6544ZM8.89975 5.10067C9.12206 5.32298 9.49351 5.32298 9.71579 5.10067C9.94103 4.87543 9.94103 4.50999 9.71579 4.28464L8.56177 3.1307C8.33637 2.9053 7.97105 2.9053 7.74569 3.1307C7.52045 3.35594 7.52045 3.72138 7.74569 3.94662L8.89975 5.10067ZM15.1011 5.10067L16.2552 3.94662C16.4805 3.72138 16.4805 3.35609 16.2552 3.1307C16.0298 2.9053 15.6645 2.9053 15.4391 3.1307L14.2852 4.28464C14.0598 4.50999 14.0598 4.87528 14.2852 5.10067C14.5075 5.32298 14.8787 5.32298 15.1011 5.10067Z" fill="black"/>
</svg>
