<svg width="24" height="24" viewBox="0 0 24 24" fill="none" xmlns="http://www.w3.org/2000/svg">
<path d="M21.6667 14.3333H18C17.9116 14.3333 17.8268 14.3684 17.7643 14.431C17.7018 14.4935 17.6667 14.5783 17.6667 14.6667V15.1135L17.3333 15.2564V10.6667C17.3333 10.5783 17.2982 10.4935 17.2357 10.431C17.1732 10.3685 17.0884 10.3333 17 10.3333H7.00001C6.9116 10.3333 6.82682 10.3685 6.7643 10.431C6.70179 10.4935 6.66667 10.5783 6.66667 10.6667V14.6901C6.52905 14.6748 6.39069 14.6669 6.25221 14.6667H5.66667V14.3333C5.66667 14.2449 5.63155 14.1601 5.56904 14.0976C5.50653 14.0351 5.42175 14 5.33334 14H2.33335C2.24494 14 2.16016 14.0351 2.09764 14.0976C2.03513 14.1601 2.00001 14.2449 2.00001 14.3333V18.3333C2.00001 18.4217 2.03513 18.5065 2.09764 18.569C2.16016 18.6315 2.24494 18.6667 2.33335 18.6667H5.33334C5.42175 18.6667 5.50653 18.6315 5.56904 18.569C5.63155 18.5065 5.66667 18.4217 5.66667 18.3333V18H5.89092C6.79829 18.6481 7.88494 18.9976 9 19H10.3907C10.3373 19.1508 10.3208 19.3122 10.3428 19.4707C10.3647 19.6292 10.4243 19.7801 10.5167 19.9108C10.6091 20.0414 10.7315 20.148 10.8736 20.2215C11.0157 20.295 11.1733 20.3334 11.3333 20.3333H14.7043C15.2883 20.3339 15.8653 20.2063 16.3946 19.9596C16.9238 19.7128 17.3925 19.3529 17.7675 18.9053C17.8296 18.9661 17.9131 19.0001 18 19H21.6667C21.7551 19 21.8398 18.9649 21.9024 18.9024C21.9649 18.8398 22 18.7551 22 18.6667V14.6667C22 14.5783 21.9649 14.4935 21.9024 14.431C21.8398 14.3684 21.7551 14.3333 21.6667 14.3333ZM5.00001 18H2.66668V14.6667H5.00001V18ZM16.6667 15.5446C15.877 15.9048 15.1545 16.3971 14.5303 17.0002L13.3335 17H13.3333V11H16.6667V15.5446ZM9 11H11V12.1953L10.9024 12.0976C10.8714 12.0667 10.8347 12.0421 10.7942 12.0254C10.7538 12.0086 10.7104 12 10.6667 12C10.6229 12 10.5795 12.0086 10.5391 12.0254C10.4987 12.0421 10.4619 12.0667 10.431 12.0976L10 12.5286L9.56904 12.0976C9.53809 12.0667 9.50134 12.0421 9.4609 12.0254C9.42046 12.0086 9.37711 12 9.33334 12C9.28956 12 9.24621 12.0086 9.20577 12.0254C9.16533 12.0421 9.12858 12.0667 9.09763 12.0976L9 12.1953V11ZM7.33334 11H8.33334V13C8.33333 13.0659 8.35288 13.1304 8.38951 13.1852C8.42614 13.24 8.4782 13.2827 8.53911 13.308C8.60002 13.3332 8.66704 13.3398 8.7317 13.3269C8.79637 13.3141 8.85576 13.2823 8.90238 13.2357L9.33334 12.8047L9.76429 13.2357C9.79525 13.2667 9.83199 13.2912 9.87244 13.308C9.91288 13.3247 9.95623 13.3333 10 13.3333C10.0438 13.3333 10.0871 13.3247 10.1276 13.308C10.168 13.2912 10.2048 13.2667 10.2357 13.2357L10.6667 12.8047L11.0976 13.2357C11.1442 13.2823 11.2036 13.3141 11.2683 13.3269C11.333 13.3398 11.4 13.3332 11.4609 13.308C11.5218 13.2827 11.5739 13.24 11.6105 13.1852C11.6471 13.1304 11.6667 13.0659 11.6667 13V11H12.6667V17.2548L12.6662 17.2551C12.4833 17.0907 12.246 16.9998 12 17H10.9427C10.996 16.8492 11.0124 16.6878 10.9904 16.5293C10.9685 16.3708 10.9088 16.22 10.8165 16.0893C10.7241 15.9587 10.6018 15.8521 10.4597 15.7786C10.3177 15.705 10.16 15.6667 10 15.6667H9.99988L8.80121 15.6669C8.38307 15.2772 7.88079 14.9891 7.33334 14.8249V11ZM6.20001 17.4C6.14231 17.3567 6.07213 17.3333 6.00001 17.3333H5.66667V15.3333H6.25221C6.65703 15.3322 7.05804 15.4114 7.43203 15.5664C7.80603 15.7213 8.14557 15.9489 8.431 16.236C8.46196 16.2669 8.49871 16.2915 8.53915 16.3082C8.57959 16.325 8.62294 16.3336 8.66671 16.3336H8.6668L9.99996 16.3333C10.0437 16.3333 10.0871 16.3419 10.1275 16.3587C10.168 16.3754 10.2047 16.4 10.2357 16.4309C10.2666 16.4619 10.2912 16.4986 10.308 16.539C10.3247 16.5795 10.3333 16.6228 10.3334 16.6666C10.3334 16.7104 10.3247 16.7537 10.308 16.7942C10.2913 16.8346 10.2667 16.8714 10.2358 16.9023C10.2048 16.9333 10.1681 16.9578 10.1276 16.9746C10.0872 16.9914 10.0439 17 10.0001 17H8.33334V17.6667H9.66679V17.6668L12 17.6667C12.0884 17.6667 12.1732 17.7018 12.2357 17.7643C12.2982 17.8268 12.3333 17.9116 12.3333 18C12.3333 18.0884 12.2982 18.1732 12.2357 18.2357C12.1732 18.2982 12.0884 18.3333 12 18.3333H9C7.99062 18.3312 7.00877 18.0039 6.20001 17.4ZM17.4778 18.1823C17.1739 18.6393 16.7615 19.014 16.2776 19.273C15.7937 19.532 15.2532 19.6672 14.7043 19.6667H11.3333C11.2449 19.6667 11.1601 19.6315 11.0976 19.569C11.0351 19.5065 11 19.4217 11 19.3333C11 19.2449 11.0351 19.1601 11.0976 19.0976C11.1601 19.0351 11.2449 19 11.3333 19L13.6665 19.0001V19H15V18.3333H13.3333C13.2449 18.3333 13.1601 18.2982 13.0976 18.2357C13.0351 18.1732 13 18.0884 13 18C13 17.9116 13.0351 17.8268 13.0976 17.7643C13.1601 17.7018 13.2449 17.6667 13.3333 17.6667H13.3334L14.6665 17.667H14.6667C14.7104 17.6669 14.7538 17.6583 14.7942 17.6416C14.8347 17.6248 14.8714 17.6002 14.9024 17.5693C15.5325 16.9379 16.2779 16.4332 17.0981 16.0825L17.2907 16H17.3333V15.9817L17.6667 15.8388V17.8991L17.4778 18.1823ZM21.3333 18.3333H18.3333V15H21.3333V18.3333ZM7.00001 5.33334H5.66667C5.57827 5.33334 5.49348 5.36846 5.43097 5.43097C5.36846 5.49349 5.33334 5.57827 5.33334 5.66668V7.00001H6.00001V6.47142L7.7643 8.23571L8.23571 7.7643L6.47138 6.00001H7.00001V5.33334ZM3.09764 11.9024L3.56905 11.431L3.13805 11H5.33334V10.3333H3.13805L3.56905 9.90238L3.09764 9.43096L2.09764 10.431C2.06668 10.4619 2.04213 10.4987 2.02538 10.5391C2.00862 10.5795 2 10.6229 2 10.6667C2 10.7104 2.00862 10.7538 2.02538 10.7942C2.04213 10.8347 2.06668 10.8714 2.09764 10.9024L3.09764 11.9024ZM12.3333 7.33334V4.13809L12.7643 4.56905L13.2357 4.09764L12.2357 3.09764C12.2048 3.06668 12.168 3.04213 12.1276 3.02538C12.0871 3.00862 12.0438 3 12 3C11.9562 3 11.9129 3.00862 11.8724 3.02538C11.832 3.04213 11.7952 3.06668 11.7643 3.09764L10.7643 4.09764L11.2357 4.56901L11.6667 4.13805V7.33334H12.3333ZM18.6667 7.00001V5.66668C18.6667 5.57827 18.6315 5.49349 18.569 5.43097C18.5065 5.36846 18.4217 5.33334 18.3333 5.33334H17V6.00001H17.5286L15.7643 7.7643L16.2357 8.23571L18 6.47142V7.00001H18.6667ZM20.9024 9.43096L20.4309 9.90238L20.8619 10.3333H18.6667V11H20.8619L20.4309 11.431L20.9024 11.9024L21.9024 10.9024C21.9333 10.8714 21.9579 10.8347 21.9746 10.7942C21.9914 10.7538 22 10.7104 22 10.6667C22 10.6229 21.9914 10.5795 21.9746 10.5391C21.9579 10.4987 21.9333 10.4619 21.9024 10.431L20.9024 9.43096Z" fill="black"/>
</svg>
