<svg width="24" height="24" viewBox="0 0 24 24" fill="none" xmlns="http://www.w3.org/2000/svg">
<path d="M8.44225 6.69225H15.5577C15.7702 6.69225 15.9483 6.76417 16.092 6.908C16.2358 7.05183 16.3077 7.23008 16.3077 7.44275C16.3077 7.65525 16.2358 7.83333 16.092 7.977C15.9483 8.1205 15.7702 8.19225 15.5577 8.19225H8.44225C8.22975 8.19225 8.05167 8.12033 7.908 7.9765C7.76417 7.83267 7.69225 7.6545 7.69225 7.442C7.69225 7.22933 7.76417 7.05125 7.908 6.90775C8.05167 6.76408 8.22975 6.69225 8.44225 6.69225ZM8.44225 9.577H15.5577C15.7702 9.577 15.9483 9.64892 16.092 9.79275C16.2358 9.93642 16.3077 10.1146 16.3077 10.3273C16.3077 10.5399 16.2358 10.718 16.092 10.8615C15.9483 11.0052 15.7702 11.077 15.5577 11.077H8.44225C8.22975 11.077 8.05167 11.0051 7.908 10.8613C7.76417 10.7174 7.69225 10.5392 7.69225 10.3265C7.69225 10.114 7.76417 9.93592 7.908 9.79225C8.05167 9.64875 8.22975 9.577 8.44225 9.577ZM4.5 21C3.80133 21 3.21 20.758 2.726 20.274C2.242 19.79 2 19.1987 2 18.5V16.5193C2 16.2631 2.08667 16.0484 2.26 15.8753C2.43317 15.7021 2.64783 15.6155 2.904 15.6155H5V3.80775C5 3.31058 5.177 2.885 5.531 2.531C5.885 2.177 6.31058 2 6.80775 2H17.1923C17.6894 2 18.115 2.177 18.469 2.531C18.823 2.885 19 3.31058 19 3.80775V9.7115C19 9.924 18.9281 10.1022 18.7843 10.246C18.6404 10.3897 18.4622 10.4615 18.2498 10.4615C18.0371 10.4615 17.859 10.3897 17.7155 10.246C17.5718 10.1022 17.5 9.924 17.5 9.7115V3.80775C17.5 3.71792 17.4712 3.64417 17.4135 3.5865C17.3558 3.52883 17.2821 3.5 17.1923 3.5H6.80775C6.71792 3.5 6.64417 3.52883 6.5865 3.5865C6.52883 3.64417 6.5 3.71792 6.5 3.80775V15.6155H9.673C9.8855 15.6155 10.0637 15.6873 10.2075 15.831C10.3512 15.9748 10.423 16.1531 10.423 16.3658C10.423 16.5782 10.3512 16.7563 10.2075 16.9C10.0637 17.0435 9.8855 17.1152 9.673 17.1152H3.5V18.5C3.5 18.7833 3.59583 19.0208 3.7875 19.2125C3.97917 19.4042 4.21667 19.5 4.5 19.5H9.673C9.8855 19.5 10.0637 19.5719 10.2075 19.7157C10.3512 19.8596 10.423 20.0378 10.423 20.2502C10.423 20.4629 10.3512 20.641 10.2075 20.7845C10.0637 20.9282 9.8855 21 9.673 21H4.5Z" fill="black"/>
<path d="M14.5 19.9646H18.5C18.6417 19.9646 18.7604 19.9167 18.8563 19.8209C18.9521 19.7251 19 19.6063 19 19.4646C19 19.323 18.9521 19.2042 18.8563 19.1084C18.7604 19.0126 18.6417 18.9646 18.5 18.9646H14.5C14.3583 18.9646 14.2396 19.0126 14.1438 19.1084C14.0479 19.2042 14 19.323 14 19.4646C14 19.6063 14.0479 19.7251 14.1438 19.8209C14.2396 19.9167 14.3583 19.9646 14.5 19.9646ZM16 16.575L15.55 16.1375C15.4583 16.0458 15.3438 16 15.2063 16C15.0688 16 14.95 16.05 14.85 16.15C14.7583 16.2417 14.7125 16.3583 14.7125 16.5C14.7125 16.6417 14.7583 16.7583 14.85 16.85L16.0299 18.0299C16.1646 18.1629 16.3217 18.2294 16.5013 18.2294C16.6808 18.2294 16.8371 18.1629 16.9701 18.0299L18.15 16.85C18.2417 16.7583 18.2896 16.6438 18.2938 16.5063C18.2979 16.3688 18.25 16.25 18.15 16.15C18.0583 16.0583 17.9438 16.0104 17.8063 16.0063C17.6688 16.0021 17.55 16.0458 17.45 16.1375L17 16.575V15C17 14.8583 16.9521 14.7396 16.8563 14.6438C16.7604 14.5479 16.6417 14.5 16.5 14.5C16.3583 14.5 16.2396 14.5479 16.1438 14.6438C16.0479 14.7396 16 14.8583 16 15V16.575ZM16.5 22.7403C15.7707 22.7403 15.0877 22.6029 14.4511 22.3283C13.8146 22.0536 13.261 21.6808 12.7901 21.2099C12.3192 20.7391 11.9464 20.1854 11.6718 19.5489C11.3971 18.9123 11.2598 18.2293 11.2598 17.5C11.2598 16.7707 11.3971 16.0877 11.6718 15.4511C11.9464 14.8146 12.3192 14.261 12.7901 13.7901C13.261 13.3192 13.8146 12.9464 14.4511 12.6718C15.0877 12.3971 15.7707 12.2598 16.5 12.2598C17.2293 12.2598 17.9123 12.3971 18.5489 12.6718C19.1854 12.9464 19.7391 13.3192 20.2099 13.7901C20.6808 14.261 21.0536 14.8146 21.3283 15.4511C21.6029 16.0877 21.7403 16.7707 21.7403 17.5C21.7403 18.2293 21.6029 18.9123 21.3283 19.5489C21.0536 20.1854 20.6808 20.7391 20.2099 21.2099C19.7391 21.6808 19.1854 22.0536 18.5489 22.3283C17.9123 22.6029 17.2293 22.7403 16.5 22.7403ZM16.5 21.4153C17.5978 21.4153 18.5248 21.0372 19.281 20.281C20.0372 19.5248 20.4153 18.5978 20.4153 17.5C20.4153 16.4022 20.0372 15.4752 19.281 14.719C18.5248 13.9628 17.5978 13.5848 16.5 13.5848C15.4022 13.5848 14.4752 13.9628 13.719 14.719C12.9628 15.4752 12.5848 16.4022 12.5848 17.5C12.5848 18.5978 12.9628 19.5248 13.719 20.281C14.4752 21.0372 15.4022 21.4153 16.5 21.4153Z" fill="black"/>
</svg>
