<svg width="24" height="24" viewBox="0 0 24 24" fill="none" xmlns="http://www.w3.org/2000/svg">
<path d="M19.4577 22V16.9153H22M21.1526 19.4576H19.4577M8.44073 22V16.9153M8.44073 16.9153H10.1356C10.8377 16.9153 11.4068 17.4844 11.4068 18.1865C11.4068 18.8885 10.8377 19.4576 10.1356 19.4576H8.44073V16.9153ZM9.62717 8.77967V13.8644M9.62717 13.8644L7.93225 12.1695M9.62717 13.8644L11.3221 12.1695M17.2543 13.8644V7.08472M15.2204 22H13.9492V16.9153H15.2204C16.1564 16.9153 16.9153 17.6741 16.9153 18.6102V20.3051C16.9153 21.2412 16.1564 22 15.2204 22Z" stroke="black" stroke-width="1.5" stroke-miterlimit="10" stroke-linecap="round" stroke-linejoin="round"/>
<path d="M12.1695 2H3.69492C2.75886 2 2 2.75886 2 3.69492V20.3051C2 21.2411 2.75886 22 3.69492 22H5.38983M12.1695 2V5.38983C12.1695 6.32589 12.9283 7.08475 13.8644 7.08475H17.2542L12.1695 2Z" stroke="black" stroke-width="1.5" stroke-miterlimit="10" stroke-linecap="round" stroke-linejoin="round"/>
</svg>
