<svg width="10" height="6" viewBox="0 0 10 6" fill="none" xmlns="http://www.w3.org/2000/svg">
<path d="M4.60059 5.64844L0.85059 1.89844C0.74492 1.79276 0.68555 1.64944 0.68555 1.5C0.68555 1.35056 0.74492 1.20723 0.85059 1.10156C0.95626 0.995889 1.09958 0.936523 1.24902 0.936523C1.39847 0.936523 1.54179 0.995889 1.64746 1.10156L4.99856 4.45359L8.35059 1.1025C8.40291 1.05018 8.46503 1.00867 8.53339 0.980353C8.60176 0.952036 8.67503 0.937461 8.74902 0.937461C8.82302 0.937461 8.89629 0.952036 8.96466 0.980353C9.03302 1.00867 9.09514 1.05018 9.14746 1.1025C9.19978 1.15482 9.24129 1.21694 9.26961 1.2853C9.29793 1.35367 9.3125 1.42694 9.3125 1.50094C9.3125 1.57493 9.29792 1.64821 9.26961 1.71657C9.24129 1.78493 9.19978 1.84705 9.14746 1.89937L5.39746 5.64937C5.34514 5.70175 5.283 5.74329 5.21459 5.7716C5.14618 5.79991 5.07286 5.81444 4.99883 5.81435C4.9248 5.81426 4.85151 5.79956 4.78317 5.77109C4.71483 5.74262 4.65278 5.70094 4.60059 5.64844Z" fill="#0D1442"/>
</svg>
