<svg width="500" height="373" viewBox="0 0 500 373" fill="none" xmlns="http://www.w3.org/2000/svg">
<g clip-path="url(#clip0_1_2)">
<path d="M500 328.133H0V328.383H500V328.133Z" fill="#EBEBEB"/>
<path d="M449.901 344.262H416.779V344.513H449.901V344.262Z" fill="#EBEBEB"/>
<path d="M331.22 346.982H322.527V347.233H331.22V346.982Z" fill="#EBEBEB"/>
<path d="M415.778 334.957H396.586V335.207H415.778V334.957Z" fill="#EBEBEB"/>
<path d="M95.652 336.641H52.459V336.891H95.652V336.641Z" fill="#EBEBEB"/>
<path d="M110.889 336.641H104.556V336.891H110.889V336.641Z" fill="#EBEBEB"/>
<path d="M225.147 340.872H131.471V341.123H225.147V340.872Z" fill="#EBEBEB"/>
<path d="M237.014 283.441H43.915C40.768 283.441 38.207 280.875 38.207 277.721V5.71997C38.207 2.56637 40.768 0 43.915 0H237.014C240.16 0 242.721 2.56637 242.721 5.71997V277.721C242.721 280.875 240.16 283.441 237.014 283.441ZM43.915 0.251526C40.905 0.251526 38.457 2.70466 38.457 5.72097V277.722C38.457 280.738 40.905 283.192 43.915 283.192H237.014C240.023 283.192 242.471 280.738 242.471 277.722V5.71997C242.471 2.70466 240.023 0.250524 237.014 0.250524L43.915 0.251526Z" fill="#EBEBEB"/>
<path d="M453.31 283.441H260.212C257.065 283.441 254.505 280.875 254.505 277.721V5.71997C254.505 2.56637 257.066 0 260.212 0H453.31C456.458 0 459.018 2.56637 459.018 5.71997V277.721C459.019 280.875 456.458 283.441 453.31 283.441ZM260.212 0.251526C257.203 0.251526 254.755 2.70466 254.755 5.72097V277.722C254.755 280.738 257.203 283.192 260.212 283.192H453.31C456.32 283.192 458.768 280.738 458.768 277.722V5.71997C458.768 2.70466 456.32 0.250524 453.31 0.250524L260.212 0.251526Z" fill="#EBEBEB"/>
<path d="M289.69 119.356L427.471 119.356V28.9398L289.69 28.9398V119.356Z" fill="#E6E6E6"/>
<path d="M285.487 119.356L425.507 119.356V28.9398L285.487 28.9398V119.356Z" fill="#F0F0F0"/>
<path d="M289.69 137.101L427.471 137.101V119.355L289.69 119.355V137.101Z" fill="#E6E6E6"/>
<path d="M278.484 137.101L418.504 137.101V119.355L278.484 119.355V137.101Z" fill="#F0F0F0"/>
<path d="M419.622 113.459V34.838L291.373 34.838V113.459L419.622 113.459Z" fill="#FAFAFA"/>
<path d="M390.702 113.459L374.322 34.8389H348.761L365.141 113.459H390.702Z" fill="white"/>
<path d="M416.897 107.588C417.129 107.588 417.318 107.4 417.318 107.167V38.6759C417.318 38.4435 417.13 38.2551 416.897 38.2551C416.665 38.2551 416.476 38.4435 416.476 38.6759V107.167C416.476 107.4 416.665 107.588 416.897 107.588Z" fill="#F0F0F0"/>
<path d="M359.65 113.459L343.27 34.8389H333.304L349.685 113.459H359.65Z" fill="white"/>
<path d="M292.12 113.459V34.838H291.373V113.459H292.12Z" fill="#E6E6E6"/>
<path opacity="0.6" d="M284.095 43.7305H421.876L422.417 37.1307H284.636L284.095 43.7305Z" fill="#EBEBEB"/>
<path opacity="0.6" d="M284.095 54.5551H421.876L422.417 47.9553H284.636L284.095 54.5551Z" fill="#EBEBEB"/>
<path opacity="0.6" d="M284.095 65.3798H421.876L422.417 58.78H284.636L284.095 65.3798Z" fill="#EBEBEB"/>
<path opacity="0.6" d="M284.095 76.2045H421.876L422.417 69.6047H284.636L284.095 76.2045Z" fill="#EBEBEB"/>
<path opacity="0.6" d="M284.095 87.0291H421.876L422.417 80.4293H284.636L284.095 87.0291Z" fill="#EBEBEB"/>
<path opacity="0.6" d="M284.095 97.8537H421.876L422.417 91.2539H284.636L284.095 97.8537Z" fill="#EBEBEB"/>
<path d="M407.688 262.378H378.799V268.086H407.688V262.378Z" fill="#E6E6E6"/>
<path d="M324.308 328.133H329.641V196.794H324.308V328.133Z" fill="#E6E6E6"/>
<path d="M305.836 268.086H378.799V262.378H305.836V268.086Z" fill="#F5F5F5"/>
<path d="M407.688 293.61H378.799V299.318H407.688V293.61Z" fill="#E6E6E6"/>
<path d="M305.836 299.318H378.799V293.61H305.836V299.318Z" fill="#F5F5F5"/>
<path d="M407.688 199.914H378.799V205.622H407.688V199.914Z" fill="#E6E6E6"/>
<path d="M305.836 205.622H378.799V199.914H305.836V205.622Z" fill="#F5F5F5"/>
<path d="M407.688 231.147H378.799V236.855H407.688V231.147Z" fill="#E6E6E6"/>
<path d="M305.836 236.854H378.799V231.146H305.836V236.854Z" fill="#F5F5F5"/>
<path d="M397.271 328.133H402.604V196.794H397.271V328.133Z" fill="#E6E6E6"/>
<path d="M373.466 328.133H378.799V196.794H373.466V328.133Z" fill="#F5F5F5"/>
<path d="M305.835 328.133H311.168V196.794H305.835V328.133Z" fill="#F5F5F5"/>
<path d="M65.3734 328.134H119.951L119.951 222.02H65.3734L65.3734 328.134Z" fill="#E6E6E6"/>
<path d="M79.948 328.134H65.374V313.485H95.228L79.948 328.134Z" fill="#FAFAFA"/>
<path d="M214.183 328.134H268.761V222.02H214.183V328.134Z" fill="#E6E6E6"/>
<path d="M65.3734 323.092H226.902V222.019H65.3734V323.092Z" fill="#FAFAFA"/>
<path d="M212.329 328.134H226.903V313.485H197.048L212.329 328.134Z" fill="#FAFAFA"/>
<path d="M76.6794 284.976H215.596V259.682H76.6794V284.976Z" fill="#F0F0F0"/>
<path d="M76.6794 315.675H215.596V290.381H76.6794V315.675Z" fill="#F0F0F0"/>
<path d="M103.084 262.387H189.192C191.719 262.387 193.768 260.334 193.768 257.801V257.492H98.508V257.801C98.508 260.334 100.557 262.387 103.084 262.387Z" fill="#FAFAFA"/>
<path d="M76.6794 254.276L215.596 254.276V228.982L76.6794 228.982V254.276Z" fill="#F0F0F0"/>
<path d="M103.084 231.687H189.192C191.719 231.687 193.768 229.634 193.768 227.1V226.792H98.508V227.1C98.508 229.634 100.557 231.687 103.084 231.687Z" fill="#FAFAFA"/>
<path d="M103.084 293.086H189.192C191.719 293.086 193.768 291.033 193.768 288.501V288.192H98.508V288.501C98.508 291.033 100.557 293.086 103.084 293.086Z" fill="#FAFAFA"/>
<path d="M74.0682 119.356L211.849 119.356V28.9398L74.0682 28.9398V119.356Z" fill="#E6E6E6"/>
<path d="M69.8649 119.356L209.885 119.356V28.9398L69.8649 28.9398V119.356Z" fill="#F0F0F0"/>
<path d="M74.0682 137.101L211.849 137.101V119.355L74.0682 119.355V137.101Z" fill="#E6E6E6"/>
<path d="M62.8605 137.101L202.88 137.101V119.355L62.8605 119.355V137.101Z" fill="#F0F0F0"/>
<path d="M203.999 113.459L203.999 34.8386L75.7505 34.8386L75.7505 113.459L203.999 113.459Z" fill="#FAFAFA"/>
<path d="M175.08 113.459L158.699 34.8389H133.138L149.519 113.459H175.08Z" fill="white"/>
<path d="M201.274 107.588C201.506 107.588 201.694 107.4 201.694 107.167V38.6759C201.694 38.4435 201.506 38.2551 201.274 38.2551C201.042 38.2551 200.853 38.4435 200.853 38.6759V107.167C200.854 107.4 201.042 107.588 201.274 107.588Z" fill="#F0F0F0"/>
<path d="M144.028 113.459L127.647 34.8389H117.682L134.063 113.459H144.028Z" fill="white"/>
<path d="M76.4975 113.459L76.4975 34.8386H75.7505L75.7505 113.459H76.4975Z" fill="#E6E6E6"/>
<path opacity="0.6" d="M68.472 43.7305H206.253L206.795 37.1307H69.014L68.472 43.7305Z" fill="#EBEBEB"/>
<path opacity="0.6" d="M68.472 47.4543H206.253L206.795 40.8535H69.014L68.472 47.4543Z" fill="#EBEBEB"/>
<path opacity="0.6" d="M68.472 51.1771H206.253L206.795 44.5773H69.014L68.472 51.1771Z" fill="#EBEBEB"/>
<path opacity="0.6" d="M68.472 54.9009H206.253L206.795 48.3001H69.014L68.472 54.9009Z" fill="#EBEBEB"/>
<path opacity="0.6" d="M68.472 58.6237H206.253L206.795 52.0239H69.014L68.472 58.6237Z" fill="#EBEBEB"/>
<path opacity="0.6" d="M68.472 62.3465H206.253L206.795 55.7467H69.014L68.472 62.3465Z" fill="#EBEBEB"/>
<path d="M96.0138 218.777H100.777V165.574H96.0138V218.777Z" fill="#F5F5F5"/>
<path d="M96.6269 218.74H97.9719V165.537H96.6269V218.74Z" fill="#FAFAFA"/>
<path d="M98.5356 218.74H99.0626V165.537H98.5356V218.74Z" fill="#FAFAFA"/>
<path d="M80.763 222.02H116.027C116.027 219.56 114.038 217.567 111.584 217.567H85.206C82.752 217.567 80.763 219.56 80.763 222.02Z" fill="#F0F0F0"/>
<path d="M89.835 198.602C90.589 198.602 91.205 197.983 91.205 197.229V162.346C91.205 161.591 90.588 160.973 89.835 160.973C89.081 160.973 88.465 161.591 88.465 162.346V197.229C88.465 197.984 89.081 198.602 89.835 198.602Z" fill="#F0F0F0"/>
<path d="M77.074 178.22H119.716L114.811 148.358H81.979L77.074 178.22Z" fill="#E0E0E0"/>
<path d="M250 373.39C357.082 373.39 443.889 368.31 443.889 362.044C443.889 355.777 357.082 350.697 250 350.697C142.918 350.697 56.111 355.777 56.111 362.044C56.111 368.31 142.918 373.39 250 373.39Z" fill="#F5F5F5"/>
<path d="M104.108 147.717L103.11 147.789L104.438 166.269L105.435 166.197L104.108 147.717Z" fill="#330874"/>
<path d="M106.139 175.732L105.142 175.804L105.642 182.755L106.639 182.683L106.139 175.732Z" fill="#330874"/>
<path d="M337.711 260.755H123.553C118.709 260.755 114.461 256.783 114.112 251.929L103.589 105.493C103.24 100.639 106.918 96.6673 111.762 96.6673H325.92C330.764 96.6673 335.012 100.639 335.361 105.493L345.884 251.929C346.232 256.783 342.555 260.755 337.711 260.755Z" fill="#330874"/>
<path d="M338.532 260.755H124.374C119.53 260.755 115.282 256.783 114.933 251.929L104.41 105.493C104.061 100.639 107.739 96.6673 112.583 96.6673H326.741C331.585 96.6673 335.833 100.639 336.182 105.493L346.705 251.929C347.053 256.783 343.376 260.755 338.532 260.755Z" fill="#330874"/>
<path opacity="0.5" d="M338.532 260.755H124.374C119.53 260.755 115.282 256.783 114.933 251.929L104.41 105.493C104.061 100.639 107.739 96.6673 112.583 96.6673H326.741C331.585 96.6673 335.833 100.639 336.182 105.493L346.705 251.929C347.053 256.783 343.376 260.755 338.532 260.755Z" fill="white"/>
<path d="M327.058 101.081H112.9C112.658 101.081 112.419 101.091 112.183 101.11C106.709 101.562 107.827 109.906 113.352 109.906H327.875C333.4 109.906 333.319 101.562 327.78 101.11C327.541 101.091 327.3 101.081 327.058 101.081Z" fill="#330874"/>
<path d="M118.478 105.494C118.558 106.611 117.72 107.517 116.604 107.517C115.489 107.517 114.52 106.611 114.44 105.494C114.36 104.376 115.198 103.471 116.314 103.471C117.43 103.471 118.398 104.375 118.478 105.494Z" fill="#FAFAFA"/>
<path d="M125.346 105.494C125.426 106.611 124.588 107.517 123.472 107.517C122.357 107.517 121.388 106.611 121.308 105.494C121.228 104.376 122.066 103.471 123.182 103.471C124.297 103.471 125.266 104.375 125.346 105.494Z" fill="#FAFAFA"/>
<path d="M132.214 105.494C132.294 106.611 131.455 107.517 130.34 107.517C129.225 107.517 128.256 106.611 128.175 105.494C128.095 104.376 128.934 103.471 130.049 103.471C131.164 103.471 132.133 104.375 132.214 105.494Z" fill="#FAFAFA"/>
<path d="M332.854 246.14H127.951C126.188 246.14 124.655 244.707 124.528 242.94L115.874 122.515C115.747 120.749 117.074 119.316 118.837 119.316H323.74C325.503 119.316 327.036 120.748 327.163 122.515L335.817 242.94C335.944 244.707 334.617 246.14 332.854 246.14Z" fill="white"/>
<path d="M246.53 200.265L243.195 153.849L233.087 147.752H205.283L209.057 200.265H246.53Z" fill="white"/>
<path d="M246.53 200.751H209.057C208.803 200.751 208.592 200.555 208.574 200.3L204.8 147.787C204.79 147.653 204.837 147.52 204.929 147.421C205.021 147.322 205.149 147.267 205.284 147.267H233.088C233.176 147.267 233.263 147.291 233.338 147.337L243.445 153.433C243.58 153.514 243.667 153.657 243.678 153.814L247.013 200.23C247.023 200.364 246.976 200.498 246.884 200.596C246.793 200.695 246.664 200.751 246.53 200.751ZM209.508 199.78H246.009L242.729 154.136L232.953 148.238H205.804L209.508 199.78Z" fill="#330874"/>
<path d="M243.195 153.849L233.087 147.752L236.798 155.829L243.195 153.849Z" fill="#EBEBEB"/>
<path d="M236.798 156.314C236.613 156.314 236.439 156.207 236.358 156.032L232.647 147.956C232.558 147.762 232.605 147.533 232.764 147.39C232.922 147.248 233.155 147.227 233.337 147.336L243.444 153.433C243.608 153.531 243.698 153.718 243.675 153.908C243.652 154.098 243.52 154.257 243.337 154.313L236.941 156.293C236.894 156.307 236.846 156.314 236.798 156.314ZM234.186 148.982L237.061 155.239L242.017 153.705L234.186 148.982Z" fill="#330874"/>
<path d="M220.969 171.412C221.053 172.583 220.174 173.533 219.004 173.533C217.834 173.533 216.819 172.583 216.735 171.412C216.651 170.24 217.53 169.29 218.699 169.29C219.868 169.29 220.885 170.24 220.969 171.412Z" fill="#330874"/>
<path d="M234.705 171.412C234.789 172.583 233.91 173.533 232.74 173.533C231.571 173.533 230.555 172.583 230.47 171.412C230.386 170.24 231.265 169.29 232.435 169.29C233.605 169.291 234.621 170.24 234.705 171.412Z" fill="#330874"/>
<path d="M238.58 185.17C238.328 185.17 238.116 184.975 238.097 184.72C237.852 181.308 232.514 178.534 226.197 178.534C222.012 178.534 218.255 179.78 216.391 181.787C215.562 182.68 215.179 183.642 215.251 184.649C215.27 184.917 215.069 185.149 214.802 185.168C214.534 185.185 214.303 184.986 214.284 184.718C214.193 183.45 214.676 182.207 215.681 181.125C217.722 178.926 221.751 177.562 226.197 177.562C233.126 177.562 238.778 180.675 239.064 184.648C239.083 184.916 238.882 185.148 238.615 185.167C238.603 185.17 238.591 185.17 238.58 185.17Z" fill="#330874"/>
<path d="M213.167 167.115C213.049 167.115 212.931 167.072 212.837 166.985C212.641 166.803 212.629 166.495 212.811 166.299L214.935 164.006C215.117 163.809 215.424 163.799 215.62 163.98C215.816 164.162 215.827 164.47 215.646 164.667L213.523 166.959C213.427 167.063 213.297 167.115 213.167 167.115Z" fill="#330874"/>
<path d="M237.584 167.115C237.466 167.115 237.347 167.072 237.253 166.984L234.8 164.692C234.604 164.509 234.594 164.202 234.776 164.005C234.958 163.809 235.265 163.799 235.461 163.981L237.914 166.274C238.11 166.456 238.12 166.764 237.938 166.96C237.843 167.063 237.714 167.115 237.584 167.115Z" fill="#330874"/>
<path d="M202.257 210.642H204.517L207.778 214.985L207.466 210.642H209.747L210.311 218.491H208.029L204.786 214.181L205.096 218.491H202.82L202.257 210.642Z" fill="#330874"/>
<path d="M211.334 214.571C211.242 213.289 211.526 212.292 212.188 211.578C212.849 210.864 213.816 210.507 215.087 210.507C216.391 210.507 217.42 210.857 218.176 211.559C218.932 212.26 219.355 213.242 219.446 214.506C219.512 215.423 219.412 216.175 219.146 216.763C218.88 217.35 218.468 217.807 217.909 218.133C217.35 218.46 216.636 218.624 215.767 218.624C214.884 218.624 214.142 218.482 213.543 218.201C212.944 217.919 212.443 217.472 212.039 216.862C211.635 216.253 211.4 215.489 211.334 214.571ZM213.755 214.582C213.812 215.375 214 215.944 214.318 216.29C214.637 216.636 215.049 216.809 215.555 216.809C216.075 216.809 216.465 216.639 216.726 216.3C216.987 215.961 217.085 215.352 217.022 214.474C216.969 213.735 216.781 213.195 216.459 212.854C216.137 212.514 215.721 212.343 215.212 212.343C214.724 212.343 214.345 212.517 214.074 212.862C213.804 213.21 213.698 213.782 213.755 214.582Z" fill="#330874"/>
<path d="M224.152 210.642H227.748C228.457 210.642 229.036 210.738 229.487 210.93C229.937 211.123 230.318 211.399 230.629 211.76C230.94 212.121 231.177 212.54 231.339 213.019C231.502 213.497 231.602 214.004 231.641 214.539C231.701 215.378 231.653 216.028 231.495 216.491C231.338 216.953 231.101 217.341 230.785 217.652C230.469 217.965 230.121 218.173 229.74 218.276C229.22 218.419 228.744 218.49 228.313 218.49H224.717L224.152 210.642ZM226.7 212.42L227.008 216.708H227.601C228.107 216.708 228.462 216.652 228.668 216.54C228.874 216.428 229.027 216.231 229.128 215.951C229.229 215.67 229.257 215.216 229.212 214.588C229.152 213.756 228.976 213.187 228.683 212.88C228.39 212.574 227.93 212.421 227.303 212.421H226.7V212.42Z" fill="#330874"/>
<path d="M237.448 217.194H234.7L234.411 218.49H231.94L234.32 210.641H236.96L240.467 218.49H237.932L237.448 217.194ZM236.824 215.498L235.756 212.676L235.103 215.498H236.824Z" fill="#330874"/>
<path d="M239.369 210.642H246.726L246.865 212.58H244.397L244.822 218.491H242.402L241.977 212.58H239.509L239.369 210.642Z" fill="#330874"/>
<path d="M252.365 217.194H249.617L249.328 218.49H246.857L249.237 210.641H251.877L255.384 218.49H252.849L252.365 217.194ZM251.741 215.498L250.674 212.676L250.021 215.498H251.741Z" fill="#330874"/>
<path d="M353.688 118.376C354.582 117.927 355.647 117.347 356.632 116.804C357.635 116.252 358.633 115.676 359.615 115.077C361.574 113.868 363.549 112.674 365.423 111.347C369.205 108.737 372.748 105.839 375.936 102.676C376.354 102.293 376.709 101.868 377.095 101.463L377.665 100.85L377.951 100.543L378.094 100.39C378.132 100.35 378.123 100.358 378.105 100.382L378.073 100.431C377.931 100.699 378.049 100.618 378.104 100.359C378.171 100.111 378.227 99.7047 378.245 99.2657C378.309 97.4459 377.951 95.1521 377.516 92.9345C376.626 88.4401 375.278 83.8174 373.946 79.2879L377.831 77.5804C380.265 81.9355 382.293 86.3838 383.944 91.2069C384.73 93.65 385.452 96.1031 385.663 99.1164C385.702 99.884 385.719 100.691 385.58 101.632C385.433 102.558 385.2 103.666 384.357 104.923L384.19 105.154L384.061 105.322L383.907 105.511L383.599 105.886L382.982 106.637C382.565 107.132 382.169 107.654 381.726 108.118C378.278 111.955 374.442 115.344 370.347 118.292C368.309 119.784 366.227 121.201 364.064 122.49C362.987 123.144 361.896 123.771 360.787 124.379C359.664 125.005 358.596 125.549 357.32 126.149L353.688 118.376Z" fill="#FFB573"/>
<path d="M344.794 353.967C345.568 353.967 346.414 353.806 347.005 353.666C347.082 353.648 347.141 353.586 347.155 353.507C347.169 353.429 347.135 353.349 347.069 353.306C346.782 353.117 344.239 351.473 343.264 351.914C343.11 351.985 342.917 352.138 342.869 352.474C342.806 352.919 342.917 353.273 343.198 353.53C343.555 353.856 344.15 353.967 344.794 353.967ZM346.444 353.383C344.986 353.674 343.889 353.624 343.465 353.236C343.285 353.072 343.218 352.84 343.262 352.529C343.285 352.361 343.363 352.306 343.427 352.277C343.94 352.045 345.407 352.754 346.444 353.383Z" fill="#330874"/>
<path d="M346.96 353.672C346.994 353.672 347.029 353.663 347.06 353.645C347.121 353.609 347.159 353.544 347.159 353.473C347.159 353.37 347.148 350.953 346.237 350.146C345.995 349.931 345.713 349.842 345.397 349.88C344.9 349.94 344.766 350.254 344.729 350.434C344.54 351.38 346.063 353.191 346.862 353.645C346.892 353.663 346.926 353.672 346.96 353.672ZM345.535 350.269C345.698 350.269 345.842 350.326 345.974 350.443C346.518 350.925 346.704 352.282 346.75 353.087C345.953 352.45 345.004 351.089 345.119 350.513C345.138 350.418 345.192 350.306 345.445 350.275C345.475 350.271 345.505 350.269 345.535 350.269Z" fill="#330874"/>
<path d="M346.223 93.3102C345.249 98.2907 343.195 108.379 346.673 111.703C346.673 111.703 345.314 116.755 336.079 116.755C325.924 116.755 331.226 111.704 331.226 111.704C336.769 110.377 336.626 106.256 335.66 102.386L346.223 93.3102Z" fill="#FFB573"/>
<path d="M329.284 113.71C327.69 113.926 329.046 109.789 329.694 109.36C331.19 108.369 350.545 106.966 350.419 109.32C350.339 110.333 349.864 112.31 349.018 112.981C348.171 113.653 343.199 111.624 329.284 113.71Z" fill="#263238"/>
<path d="M332.437 112.317C331.171 112.746 331.291 108.576 331.722 108.074C332.72 106.914 348.386 102.88 348.851 105.162C349.03 106.147 349.116 108.115 348.579 108.88C348.042 109.643 343.439 108.38 332.437 112.317Z" fill="#263238"/>
<path d="M326.61 84.3325C326.487 84.3395 326.363 84.2904 326.279 84.1872C325.159 82.8143 323.703 82.9546 323.689 82.9566C323.468 82.9796 323.275 82.8223 323.252 82.6038C323.228 82.3854 323.386 82.189 323.604 82.1659C323.681 82.1579 325.504 81.9806 326.894 83.6831C327.033 83.8535 327.008 84.104 326.838 84.2423C326.771 84.2984 326.691 84.3275 326.61 84.3325Z" fill="#263238"/>
<path d="M324.672 89.2357C324.672 89.2357 323.816 92.249 322.697 93.7722C323.666 94.5148 325.138 93.9867 325.138 93.9867L324.672 89.2357Z" fill="#FF5652"/>
<path d="M325.16 88.0182C325.226 88.6916 324.923 89.2728 324.484 89.3169C324.044 89.36 323.635 88.8489 323.568 88.1755C323.502 87.5021 323.805 86.9209 324.244 86.8768C324.684 86.8337 325.094 87.3448 325.16 88.0182Z" fill="#263238"/>
<path d="M324.443 86.8949L322.782 86.5872C322.782 86.5872 323.735 87.7707 324.443 86.8949Z" fill="#263238"/>
<path d="M356.7 353.473H348.324L348.981 334.035H357.357L356.7 353.473Z" fill="#FFB573"/>
<path d="M347.661 352.502H357.071C357.413 352.502 357.691 352.74 357.739 353.075L358.811 360.535C358.922 361.309 358.258 362.042 357.468 362.029C354.187 361.972 352.606 361.779 348.468 361.779C345.922 361.779 342.202 362.044 338.687 362.044C335.248 362.044 334.984 358.559 336.448 358.245C343.012 356.83 344.049 354.879 346.261 353.018C346.659 352.682 347.16 352.502 347.661 352.502Z" fill="#263238"/>
<g opacity="0.2">
<path d="M357.359 334.04H348.979L348.645 344.06H357.025L357.359 334.04Z" fill="black"/>
</g>
<path d="M323.374 123.35C318.191 121.317 313.247 119.105 308.324 116.582C303.409 114.062 298.57 111.377 293.92 107.791C292.762 106.878 291.617 105.88 290.498 104.714C290.219 104.414 289.94 104.135 289.666 103.79C289.378 103.427 289.161 103.214 288.787 102.657C288.111 101.683 287.588 100.375 287.449 99.0403C287.318 97.7045 287.557 96.4288 287.94 95.4117C288.322 94.3765 288.823 93.5317 289.347 92.7992C290.398 91.3321 291.563 90.2479 292.736 89.2718C295.079 87.3288 297.557 85.9158 300.039 84.595C301.279 83.9356 302.543 83.3414 303.823 82.7943C305.109 82.2381 306.364 81.721 307.729 81.25L309.504 85.1111C305.142 87.8659 300.624 90.8942 297.302 94.2893C296.495 95.1301 295.789 96.0099 295.345 96.7845C294.869 97.5732 294.875 98.1634 294.956 98.1183C294.997 98.1183 294.981 98.1003 295.097 98.2165L295.495 98.6444C295.645 98.8238 295.856 99.0072 296.045 99.1916C296.83 99.9261 297.751 100.664 298.744 101.365C300.729 102.781 302.916 104.106 305.178 105.343C307.432 106.598 309.751 107.799 312.113 108.938C316.825 111.2 321.711 113.376 326.505 115.364L323.374 123.35Z" fill="#FFB573"/>
<path d="M311.969 82.3744L313.354 79.3641L307.058 77.1735C307.058 77.1735 305.097 83.0889 307.434 85.8186C309.424 85.4989 311.125 84.2082 311.969 82.3744Z" fill="#FFB573"/>
<path d="M313.354 72.8565L308.321 71.4024L307.058 77.1725L313.354 79.3641V72.8565Z" fill="#FFB573"/>
<path d="M378.35 79.6557L379.084 72.621L372.596 74.1492C372.596 74.1492 372.501 80.743 375.933 81.7942L378.35 79.6557Z" fill="#FFB573"/>
<path d="M375.958 67.6967L371.731 69.6748L372.595 74.1492L379.083 72.621L375.958 67.6967Z" fill="#FFB573"/>
<path d="M347.54 83.4777C347.845 91.8021 348.152 95.3195 344.398 99.9782C338.752 106.985 328.481 105.54 325.7 97.474C323.197 90.2138 323.118 77.8198 330.878 73.7293C338.523 69.7009 347.235 75.1523 347.54 83.4777Z" fill="#FFB573"/>
<path d="M343.921 99.9622C352.076 96.4308 357.44 88.9842 355.176 77.3408C353.01 66.2015 345.505 65.1012 342.405 67.4121C339.305 69.7229 331.578 66.2787 326.941 70.1889C318.906 76.964 326.502 84.2683 330.459 88.5964C332.823 93.4646 335.919 103.427 343.921 99.9622Z" fill="#263238"/>
<path d="M340.535 75.3426C343.287 79.336 348.565 80.4633 352.325 77.8609C356.085 75.2595 356.902 69.9133 354.15 65.9199C351.398 61.9266 346.12 60.7992 342.36 63.4017C338.6 66.0031 337.783 71.3493 340.535 75.3426Z" fill="#330874"/>
<path d="M342.652 68.1927C341.475 61.4806 347.813 56.3048 356.288 58.806C364.763 61.3073 360.28 68.836 358.542 74.8486C356.804 80.8612 361.365 86.5882 363.271 82.0086C365.177 77.43 361.973 76.0161 361.973 76.0161C361.973 76.0161 370.972 78.3539 362.612 88.5192C354.252 98.6855 346.684 87.46 348.731 80.8351C350.385 75.4819 343.765 74.537 342.652 68.1927Z" fill="#263238"/>
<path d="M334.182 70.729C330.313 68.7068 323.761 67.0714 320.032 73.3575C318.269 76.3297 318.952 80.3612 318.952 80.3612L330.341 81.1208L334.182 70.729Z" fill="#263238"/>
<path d="M317.612 78.39C317.607 78.39 317.602 78.39 317.596 78.389C317.458 78.381 317.354 78.2618 317.362 78.1235C317.372 77.9531 317.648 73.9217 320.076 71.3924C325.945 65.2816 332.826 70.3502 334.795 72.0498C334.9 72.14 334.912 72.2983 334.821 72.4035C334.73 72.5087 334.573 72.5198 334.468 72.4296C332.583 70.8032 326.001 65.946 320.436 71.7401C318.137 74.1341 317.863 78.1145 317.86 78.1545C317.853 78.2868 317.743 78.39 317.612 78.39Z" fill="#263238"/>
<path d="M331.853 88.2657C331.841 89.8871 331.116 91.4744 330.198 92.5517C328.816 94.1711 327.232 93.3734 326.869 91.5776C326.542 89.9612 326.866 87.1714 328.613 86.1934C330.333 85.2303 331.867 86.4118 331.853 88.2657Z" fill="#FFB573"/>
<path d="M330.053 164.514C330.053 164.514 330.587 222.78 335.631 255.249C339.705 281.474 347.244 342.12 347.244 342.12H358.666C358.666 342.12 359.782 283.573 357.714 257.635C352.481 192 365.985 179.729 355.088 164.514H330.053Z" fill="#263238"/>
<path opacity="0.1" d="M330.053 164.514C330.053 164.514 330.587 222.78 335.631 255.249C339.705 281.474 347.244 342.12 347.244 342.12H358.666C358.666 342.12 359.782 283.573 357.714 257.635C352.481 192 365.985 179.729 355.088 164.514H330.053Z" fill="white"/>
<path opacity="0.3" d="M336.057 190.948C340.067 208.534 336.867 236.232 334.677 248.428C332.357 229.909 331.187 205.909 330.607 188.322C332.677 184.955 334.637 184.735 336.057 190.948Z" fill="black"/>
<path d="M345.681 342.346H360.23L360.994 337.232L345.598 336.71L345.681 342.346Z" fill="#330874"/>
<path d="M349.833 115.331C351.201 112.605 358.558 110.889 362.579 110.895L365.589 124.288C365.589 124.288 357.577 136.203 354.246 134.939C350.31 133.449 346.901 121.174 349.833 115.331Z" fill="#330874"/>
<path opacity="0.4" d="M349.833 115.331C351.201 112.605 358.558 110.889 362.579 110.895L365.589 124.288C365.589 124.288 357.577 136.203 354.246 134.939C350.31 133.449 346.901 121.174 349.833 115.331Z" fill="black"/>
<path d="M341.353 339.071C341.389 339.011 341.392 338.936 341.359 338.874C341.32 338.8 341.238 338.758 341.154 338.771C340.734 338.834 337.032 339.423 336.532 340.482C336.435 340.688 336.449 340.904 336.571 341.109C336.775 341.451 337.064 341.643 337.429 341.68C338.642 341.805 340.394 340.119 341.33 339.103C341.338 339.092 341.346 339.082 341.353 339.071ZM336.912 340.611C337.254 340.049 339.168 339.531 340.629 339.261C339.31 340.605 338.148 341.353 337.468 341.283C337.23 341.258 337.048 341.134 336.91 340.903C336.856 340.813 336.85 340.736 336.89 340.652C336.897 340.638 336.904 340.624 336.912 340.611Z" fill="#330874"/>
<path d="M341.353 339.071C341.361 339.059 341.367 339.045 341.371 339.03C341.394 338.964 341.379 338.89 341.334 338.837C341.271 338.764 339.788 337.051 338.421 336.962C338.002 336.935 337.636 337.059 337.331 337.333C336.92 337.702 336.955 338.022 337.058 338.226C337.491 339.086 340.151 339.385 341.224 339.162C341.278 339.15 341.324 339.117 341.353 339.071ZM337.438 337.809C337.469 337.758 337.519 337.698 337.596 337.629C337.821 337.426 338.083 337.338 338.395 337.359C339.293 337.418 340.314 338.349 340.778 338.823C339.593 338.923 337.672 338.562 337.412 338.046C337.397 338.015 337.358 337.939 337.438 337.809Z" fill="#330874"/>
<path d="M350.083 335.515L342.422 338.925L339.008 331.805L334.547 322.482L334.024 321.398L341.676 317.982L342.268 319.203L346.593 328.232L350.083 335.515Z" fill="#FFB573"/>
<path opacity="0.2" d="M346.593 328.232L339.008 331.805L334.547 322.482L342.268 319.203L346.593 328.232Z" fill="black"/>
<path d="M321.069 164.514C321.069 164.514 296.595 225.477 303.229 254.184C309.224 280.128 335.733 329.262 335.733 329.262L345.983 324.106C345.983 324.106 329.595 264.794 327.817 251.909C324.358 226.839 346.593 191.45 346.593 164.514H321.069Z" fill="#263238"/>
<path opacity="0.1" d="M321.069 164.514C321.069 164.514 296.595 225.477 303.229 254.184C309.224 280.128 335.733 329.262 335.733 329.262L345.983 324.106C345.983 324.106 329.595 264.794 327.817 251.909C324.358 226.839 346.593 191.45 346.593 164.514H321.069Z" fill="white"/>
<path d="M341.055 337.858L348.663 332.308C348.94 332.106 349.305 332.135 349.54 332.378L354.788 337.778C355.332 338.338 355.225 339.322 354.579 339.777C351.893 341.666 350.501 342.443 347.156 344.883C345.097 346.384 340.995 349.704 338.153 351.777C335.373 353.804 333.113 351.144 334.112 350.025C338.589 345.011 339.532 341.909 340.227 339.101C340.352 338.595 340.65 338.154 341.055 337.858Z" fill="#263238"/>
<path d="M335.073 331.436L348.304 325.371L346.606 319.969L332.438 326.444L335.073 331.436Z" fill="#330874"/>
<path d="M327.564 114.648C326.466 111.801 316.907 108.678 312.112 107.588L310.005 123.389C310.005 123.389 317.836 134.668 321.275 133.735C325.335 132.634 329.916 120.748 327.564 114.648Z" fill="#330874"/>
<path opacity="0.4" d="M327.564 114.648C326.466 111.801 316.907 108.678 312.112 107.588L310.005 123.389C310.005 123.389 317.836 134.668 321.275 133.735C325.335 132.634 329.916 120.748 327.564 114.648Z" fill="black"/>
<path d="M317.066 113.853C317.066 113.853 313.076 115.261 321.069 164.514C334.568 164.514 348.52 164.514 355.088 164.514C354.517 150.639 354.501 142.084 361.118 113.61C361.118 113.61 353.99 112.056 346.672 111.703C340.947 111.426 336.257 111.243 331.224 111.704C324.591 112.31 317.066 113.853 317.066 113.853Z" fill="#330874"/>
<path opacity="0.4" d="M317.066 113.853C317.066 113.853 313.076 115.261 321.069 164.514C334.568 164.514 348.52 164.514 355.088 164.514C354.517 150.639 354.501 142.084 361.118 113.61C361.118 113.61 353.99 112.056 346.672 111.703C340.947 111.426 336.257 111.243 331.224 111.704C324.591 112.31 317.066 113.853 317.066 113.853Z" fill="black"/>
<path d="M355.598 162.513L357.132 165.565C357.251 165.801 356.971 166.043 356.578 166.043H320.901C320.594 166.043 320.34 165.892 320.321 165.699L320.014 162.647C319.993 162.436 320.259 162.257 320.594 162.257H355.044C355.297 162.258 355.521 162.361 355.598 162.513Z" fill="#330874"/>
<path opacity="0.3" d="M355.598 162.513L357.132 165.565C357.251 165.801 356.971 166.043 356.578 166.043H320.901C320.594 166.043 320.34 165.892 320.321 165.699L320.014 162.647C319.993 162.436 320.259 162.257 320.594 162.257H355.044C355.297 162.258 355.521 162.361 355.598 162.513Z" fill="white"/>
<path d="M350.971 166.373H351.894C352.078 166.373 352.218 166.278 352.205 166.163L351.772 162.198C351.759 162.082 351.599 161.988 351.415 161.988H350.492C350.308 161.988 350.168 162.083 350.181 162.198L350.614 166.163C350.627 166.279 350.788 166.373 350.971 166.373Z" fill="#263238"/>
<path d="M328.608 166.373H329.531C329.715 166.373 329.855 166.278 329.842 166.163L329.409 162.198C329.396 162.082 329.236 161.988 329.052 161.988H328.129C327.945 161.988 327.805 162.083 327.818 162.198L328.251 166.163C328.263 166.279 328.424 166.373 328.608 166.373Z" fill="#263238"/>
</g>
<defs>
<clipPath id="clip0_1_2">
<rect width="500" height="373" fill="white"/>
</clipPath>
</defs>
</svg>
