<svg xmlns="http://www.w3.org/2000/svg" width="14.429" height="14.143" viewBox="0 0 14.429 14.143">
  <path id="Path" d="M11.134,11.936A7.336,7.336,0,0,1,0,7.071,7.321,7.321,0,0,1,2.227,3.027L.141.943,1.084,0l13.2,13.2-.943.943-2.207-2.207ZM3.169,3.971a5.977,5.977,0,0,0-1.808,3.1,6,6,0,0,0,8.8,3.892L8.81,9.607A3,3,0,0,1,4.673,5.474Zm4.65,4.652L5.661,6.462A1.667,1.667,0,0,0,7.819,8.623Zm5.262,1.509-.954-.953a5.957,5.957,0,0,0,.934-2.108A6,6,0,0,0,5.581,2.63L4.529,1.578a7.34,7.34,0,0,1,9.9,5.493,7.3,7.3,0,0,1-1.341,3.061ZM7.028,4.077a3,3,0,0,1,3.179,3.179L7.027,4.077Z" fill="#b8babf"/>
</svg>
