<svg xmlns="http://www.w3.org/2000/svg" width="16" height="16" viewBox="0 0 16 16">
  <g id="Group_78671" data-name="Group 78671" transform="translate(523 -2111)">
    <g id="Eye-Icon" transform="translate(-819 1736)">
      <path id="Path" d="M0,0H16V16H0Z" transform="translate(296 375)" fill="none"/>
      <path id="Path-2" data-name="Path" d="M11.134,11.936A7.336,7.336,0,0,1,0,7.071,7.321,7.321,0,0,1,2.227,3.027l8.907,8.909ZM3.169,3.971a5.977,5.977,0,0,0-1.808,3.1,6,6,0,0,0,8.8,3.892L8.81,9.607A3,3,0,0,1,4.673,5.474Zm4.65,4.652L5.661,6.462A1.667,1.667,0,0,0,7.819,8.623Zm5.262,1.509-.954-.953a5.957,5.957,0,0,0,.934-2.108A6,6,0,0,0,5.581,2.63L4.529,1.578a7.34,7.34,0,0,1,9.9,5.493,7.3,7.3,0,0,1-1.341,3.061ZM7.028,4.077a3,3,0,0,1,3.179,3.179L7.027,4.077Z" transform="translate(296.787 375.929)" fill="#797f7e"/>
    </g>
    <g id="Eye-Icon-2" data-name="Eye-Icon" transform="translate(-523 2111)">
      <path id="Path-3" data-name="Path" d="M16,16H0V0H16Z" fill="none"/>
      <path id="Path-4" data-name="Path" d="M3.3,2.206A7.336,7.336,0,0,1,14.429,7.071,7.321,7.321,0,0,1,12.2,11.115L3.3,2.206Zm7.965,7.965a5.977,5.977,0,0,0,1.808-3.1,6,6,0,0,0-8.8-3.892L5.619,4.535A3,3,0,0,1,9.756,8.668ZM6.61,5.519,8.768,7.68A1.667,1.667,0,0,0,6.61,5.519ZM1.348,4.01l.954.953a5.957,5.957,0,0,0-.934,2.108,6,6,0,0,0,7.48,4.441L9.9,12.564A7.34,7.34,0,0,1,0,7.071,7.3,7.3,0,0,1,1.341,4.01ZM7.4,10.065A3,3,0,0,1,4.222,6.886L7.4,10.065Z" transform="translate(0.784 0.929)" fill="#797f7e"/>
    </g>
    <g id="Eye-Icon-3" data-name="Eye-Icon" transform="translate(-523 2111)">
      <path id="Path-5" data-name="Path" d="M0,16H16V0H0Z" fill="none"/>
      <path id="Path-6" data-name="Path" d="M11.134,2.206A7.336,7.336,0,0,0,0,7.071a7.321,7.321,0,0,0,2.227,4.044l8.907-8.909ZM3.169,10.171a5.977,5.977,0,0,1-1.808-3.1,6,6,0,0,1,8.8-3.892L8.81,4.535A3,3,0,0,0,4.673,8.668Zm4.65-4.652L5.661,7.68A1.667,1.667,0,0,1,7.819,5.519ZM13.081,4.01l-.954.953a5.957,5.957,0,0,1,.934,2.108,6,6,0,0,1-7.48,4.441L4.529,12.564a7.34,7.34,0,0,0,9.9-5.493A7.3,7.3,0,0,0,13.088,4.01ZM7.028,10.065a3,3,0,0,0,3.179-3.179l-3.18,3.179Z" transform="translate(0.787 0.929)" fill="#797f7e"/>
    </g>
    <g id="Ellipse_2971" data-name="Ellipse 2971" transform="translate(-518 2116)" fill="none" stroke="#797f7e" stroke-width="1.5">
      <circle cx="3" cy="3" r="3" stroke="none"/>
      <circle cx="3" cy="3" r="2.25" fill="none"/>
    </g>
  </g>
</svg>
