<svg width="24" height="24" viewBox="0 0 24 24" fill="none" xmlns="http://www.w3.org/2000/svg">
<mask id="mask0_682_1962" style="mask-type:alpha" maskUnits="userSpaceOnUse" x="0" y="0" width="24" height="24">
<rect width="24" height="24" fill="#D9D9D9"/>
</mask>
<g mask="url(#mask0_682_1962)">
<path fill-rule="evenodd" clip-rule="evenodd" d="M20.1876 6.05573L22.0026 7.15673C22.1696 7.26234 22.3365 7.25649 22.5035 7.13918C22.6703 7.02188 22.7316 6.86279 22.6874 6.66192L22.208 4.59647L23.8199 3.20382C23.9763 3.06431 24.0239 2.90005 23.9625 2.71104C23.9013 2.52187 23.765 2.4188 23.5537 2.40185L21.4374 2.22386L20.6061 0.275884C20.528 0.0919613 20.3885 0 20.1876 0C19.9867 0 19.8472 0.0919613 19.7691 0.275884L18.9379 2.22386L16.8216 2.40185C16.6102 2.4188 16.4739 2.52187 16.4127 2.71104C16.3513 2.90005 16.3989 3.06431 16.5553 3.20382L18.1672 4.59647L17.6879 6.66192C17.6436 6.86279 17.7049 7.02188 17.8717 7.13918C18.0387 7.25649 18.2056 7.26234 18.3726 7.15673L20.1876 6.05573ZM13.4278 16.8663H6.32619C6.07467 16.8663 5.86389 16.7812 5.69385 16.6112C5.52361 16.4413 5.43849 16.2306 5.43849 15.9789C5.43849 15.7273 5.52361 15.5165 5.69385 15.3462C5.86389 15.176 6.07467 15.0909 6.32619 15.0909H13.4278C13.6793 15.0909 13.8901 15.1759 14.0601 15.3459C14.2303 15.5158 14.3155 15.7266 14.3155 15.9783C14.3155 16.2298 14.2303 16.4407 14.0601 16.6109C13.8901 16.7811 13.6793 16.8663 13.4278 16.8663ZM18.1622 13.3155H6.32619C6.07467 13.3155 5.86389 13.2304 5.69385 13.0604C5.52361 12.8906 5.43849 12.6798 5.43849 12.4281C5.43849 12.1766 5.52361 11.9657 5.69385 11.7954C5.86389 11.6252 6.07467 11.5401 6.32619 11.5401H18.1622C18.4137 11.5401 18.6245 11.6251 18.7945 11.7951C18.9647 11.965 19.0499 12.1758 19.0499 12.4275C19.0499 12.679 18.9647 12.8899 18.7945 13.0601C18.6245 13.2303 18.4137 13.3155 18.1622 13.3155ZM16.3868 9.76468H6.32619C6.07467 9.76468 5.86389 9.67965 5.69385 9.50961C5.52361 9.33976 5.43849 9.12899 5.43849 8.87727C5.43849 8.62576 5.52361 8.41488 5.69385 8.24464C5.86389 8.0744 6.07467 7.98928 6.32619 7.98928H16.3868C16.6383 7.98928 16.8492 8.0743 17.0194 8.24434C17.1894 8.41419 17.2745 8.62497 17.2745 8.87668C17.2745 9.1282 17.1894 9.33907 17.0194 9.50931C16.8492 9.67955 16.6383 9.76468 16.3868 9.76468ZM2.8186 23.674L5.18816 21.3047H21.3487C21.9466 21.3047 22.4527 21.0976 22.867 20.6834C23.2812 20.2691 23.4883 19.763 23.4883 19.1651V11.2101C23.4883 10.9586 23.4033 10.7478 23.2333 10.5775C23.0634 10.4075 22.8527 10.3224 22.6009 10.3224C22.3494 10.3224 22.1385 10.4075 21.9683 10.5775C21.7981 10.7478 21.7129 10.9586 21.7129 11.2101V19.1651C21.7129 19.2562 21.675 19.3397 21.599 19.4154C21.5233 19.4914 21.4398 19.5294 21.3487 19.5294H4.43243L2.7754 21.1683V20.3487V5.69044C2.7754 5.5993 2.81337 5.51586 2.88932 5.44011C2.96507 5.36416 3.04851 5.32619 3.13965 5.32619H13.9968C14.2412 5.32619 14.4483 5.24314 14.6182 5.07704C14.7882 4.91074 14.877 4.70549 14.8845 4.46127C14.8922 4.20936 14.8098 3.99464 14.6374 3.8171C14.4652 3.63956 14.2517 3.55079 13.9968 3.55079H3.13965C2.54173 3.55079 2.03565 3.75792 1.62139 4.17218C1.20713 4.58644 1 5.09253 1 5.69044V22.907C1 23.3842 1.21887 23.7156 1.6566 23.9013C2.09453 24.0867 2.48186 24.0109 2.8186 23.674Z" fill="black"/>
</g>
</svg>
