<svg width="24" height="24" viewBox="0 0 24 24" fill="none" xmlns="http://www.w3.org/2000/svg">
<path fill-rule="evenodd" clip-rule="evenodd" d="M13.9386 19.6814V21.3152C13.9386 21.6246 14.042 21.8827 14.2488 22.0895C14.4558 22.2965 14.7139 22.4 15.0231 22.4H16.6569C16.8015 22.4 16.9392 22.3738 17.07 22.3214C17.2008 22.2692 17.3223 22.1869 17.4345 22.0745L23.5938 15.9152C23.743 15.766 23.848 15.6014 23.9088 15.4214C23.9696 15.2414 24 15.0645 24 14.8907C24 14.7169 23.9646 14.5431 23.8938 14.3693C23.823 14.1955 23.723 14.0339 23.5938 13.8845L22.4838 12.7631C22.3422 12.6215 22.1826 12.5153 22.005 12.4445C21.8272 12.3739 21.6453 12.3386 21.4593 12.3386C21.2853 12.3386 21.1114 12.3709 20.9376 12.4355C20.7638 12.5001 20.6023 12.6031 20.4531 12.7445L14.2638 18.9038C14.1516 19.0162 14.0693 19.1378 14.0169 19.2686C13.9647 19.3992 13.9386 19.5368 13.9386 19.6814ZM22.5693 14.8907L21.4593 16.0493L20.3193 14.9093L21.4593 13.7693L22.5693 14.8907ZM0.63 19.37C1.05 19.79 1.5631 20 2.1693 20H10.3962C10.6516 20 10.8674 19.9119 11.0436 19.7357C11.2196 19.5595 11.3076 19.3437 11.3076 19.0883V19.0331C11.3076 18.7439 11.3638 18.4677 11.4762 18.2045C11.5884 17.9415 11.743 17.7115 11.94 17.5145L18.6624 10.8038C19.047 10.4422 19.4708 10.1691 19.9338 9.9845C20.3968 9.7999 20.8814 9.7076 21.3876 9.7076H21.5907C21.9091 9.7522 22.1903 9.678 22.4343 9.485C22.6781 9.292 22.8 9.0424 22.8 8.7362V6.5693C22.8 5.9631 22.59 5.45 22.17 5.03C21.75 4.61 21.2369 4.4 20.6307 4.4H11.1576L9.39 2.6324C9.193 2.4354 8.9611 2.2808 8.6943 2.1686C8.4273 2.0562 8.1492 2 7.86 2H2.1693C1.5631 2 1.05 2.21 0.63 2.63C0.21 3.05 0 3.5631 0 4.1693V17.8307C0 18.4369 0.21 18.95 0.63 19.37ZM2.4 8.6C2.06863 8.6 1.8 8.86863 1.8 9.2C1.8 9.53137 2.06863 9.8 2.4 9.8H12C12.3314 9.8 12.6 9.53137 12.6 9.2C12.6 8.86863 12.3314 8.6 12 8.6H2.4ZM1.79995 11.5999C1.79995 11.2685 2.06858 10.9999 2.39995 10.9999H9.59995C9.93132 10.9999 10.2 11.2685 10.2 11.5999C10.2 11.9313 9.93132 12.1999 9.59995 12.1999H2.39995C2.06858 12.1999 1.79995 11.9313 1.79995 11.5999ZM2.39995 13.3999C2.06858 13.3999 1.79995 13.6685 1.79995 13.9999C1.79995 14.3313 2.06858 14.5999 2.39995 14.5999H7.19995C7.53132 14.5999 7.79995 14.3313 7.79995 13.9999C7.79995 13.6685 7.53132 13.3999 7.19995 13.3999H2.39995Z" fill="black"/>
</svg>
