<svg width="6" height="10" viewBox="0 0 6 10" fill="none" xmlns="http://www.w3.org/2000/svg">
<path d="M5.64844 5.39941L1.89844 9.14941C1.79276 9.25508 1.64944 9.31445 1.5 9.31445C1.35056 9.31445 1.20723 9.25508 1.10156 9.14941C0.995889 9.04374 0.936523 8.90042 0.936523 8.75098C0.936523 8.60153 0.995889 8.45821 1.10156 8.35254L4.45359 5.00144L1.1025 1.64941C1.05018 1.59709 1.00867 1.53497 0.980353 1.46661C0.952036 1.39824 0.937461 1.32497 0.937461 1.25098C0.937461 1.17698 0.952036 1.10371 0.980353 1.03534C1.00867 0.966979 1.05018 0.904862 1.1025 0.852538C1.15482 0.800215 1.21694 0.758709 1.2853 0.730392C1.35367 0.702075 1.42694 0.6875 1.50094 0.6875C1.57493 0.6875 1.64821 0.702075 1.71657 0.730392C1.78493 0.758709 1.84705 0.800215 1.89937 0.852538L5.64937 4.60254C5.70175 4.65486 5.74329 4.717 5.7716 4.78541C5.79991 4.85382 5.81444 4.92714 5.81435 5.00117C5.81426 5.0752 5.79956 5.14849 5.77109 5.21683C5.74262 5.28517 5.70094 5.34722 5.64844 5.39941Z" fill="#FF4E00"/>
</svg>
