<svg width="24" height="24" viewBox="0 0 24 24" fill="none" xmlns="http://www.w3.org/2000/svg">
<path d="M6.125 14.5V13.875H5.5H5C4.87406 13.875 4.79811 13.8392 4.72944 13.7706C4.66077 13.7019 4.625 13.6259 4.625 13.5V9C4.625 8.61708 4.75405 8.30483 5.02944 8.02944C5.30483 7.75405 5.61708 7.625 6 7.625H9C9.38292 7.625 9.69517 7.75405 9.97056 8.02944C10.2459 8.30483 10.375 8.61708 10.375 9V13.5C10.375 13.6259 10.3392 13.7019 10.2706 13.7706C10.2019 13.8392 10.1259 13.875 10 13.875H9.5H8.875V14.5V21C8.875 21.1259 8.83923 21.2019 8.77056 21.2706C8.70189 21.3392 8.62594 21.375 8.5 21.375H6.5C6.37406 21.375 6.29811 21.3392 6.22944 21.2706C6.16077 21.2019 6.125 21.1259 6.125 21V14.5ZM15.625 16V15.375H15H13.375C13.2463 15.375 13.1657 15.337 13.0805 15.2199C13.0066 15.1183 12.9879 15.0301 13.0399 14.8815L13.04 14.8815L13.0432 14.8719L15.1432 8.54694L15.1433 8.54699L15.1474 8.5338C15.2405 8.23118 15.4006 8.02221 15.6285 7.87375C15.88 7.71004 16.1644 7.625 16.5 7.625C16.8356 7.625 17.12 7.71004 17.3715 7.87375C17.5994 8.0222 17.7595 8.23118 17.8526 8.5338L17.8525 8.53385L17.8568 8.54694L19.9568 14.8719L19.9568 14.872L19.9601 14.8815C20.0121 15.0301 19.9934 15.1183 19.9195 15.2199C19.8344 15.337 19.7537 15.375 19.625 15.375H18H17.375V16V21C17.375 21.1259 17.3392 21.2019 17.2706 21.2706C17.2019 21.3392 17.1259 21.375 17 21.375H16C15.8741 21.375 15.7981 21.3392 15.7294 21.2706C15.6608 21.2019 15.625 21.1259 15.625 21V16ZM7.5 5.375C7.11708 5.375 6.80483 5.24595 6.52944 4.97056C6.25405 4.69517 6.125 4.38292 6.125 4C6.125 3.61708 6.25405 3.30483 6.52944 3.02944C6.80483 2.75405 7.11708 2.625 7.5 2.625C7.88292 2.625 8.19517 2.75405 8.47056 3.02944C8.74595 3.30483 8.875 3.61708 8.875 4C8.875 4.38292 8.74595 4.69517 8.47056 4.97056C8.19517 5.24595 7.88292 5.375 7.5 5.375ZM16.5 5.375C16.1171 5.375 15.8048 5.24595 15.5294 4.97056C15.2541 4.69517 15.125 4.38292 15.125 4C15.125 3.61708 15.2541 3.30483 15.5294 3.02944C15.8048 2.75405 16.1171 2.625 16.5 2.625C16.8829 2.625 17.1952 2.75405 17.4706 3.02944C17.7459 3.30483 17.875 3.61708 17.875 4C17.875 4.38292 17.7459 4.69517 17.4706 4.97056C17.1952 5.24595 16.8829 5.375 16.5 5.375Z" stroke="black" stroke-width="1.25"/>
</svg>
