<svg width="24" height="24" viewBox="0 0 24 24" fill="none" xmlns="http://www.w3.org/2000/svg">
<path d="M8.66668 14H4L2 18H10.6667L8.66668 14Z" stroke="black" stroke-width="1.25" stroke-miterlimit="10" stroke-linecap="round" stroke-linejoin="round"/>
<path d="M4.66668 9.99982V7.33314M14.6667 7.33314V4.6665M3.66668 8.6665H5.66668M13.6667 5.99982H15.6667M13 9.99982H8.33332L6.33332 13.9998H14L14.6667 13.3331L13 9.99982ZM8.66668 17.9998H4L2 21.9998H10.6667L8.66668 17.9998Z" stroke="black" stroke-width="1.25" stroke-miterlimit="10" stroke-linecap="round" stroke-linejoin="round"/>
<path d="M19.3333 14H22L18 10L14 14H16.6667V22H19.3333V14Z" stroke="black" stroke-width="1.25" stroke-miterlimit="10" stroke-linecap="round" stroke-linejoin="round"/>
<path d="M16.6667 18V14H12.6667L10.6667 18H16.6667ZM16.6667 18V22H10.6667L12.6667 18H16.6667ZM19.3334 7.6093C19.3334 7.6093 19.9308 8 20.6667 8C21.4026 8 22.0001 7.40257 22.0001 6.66668C22.0001 5.96228 21.3334 5.56075 20.6667 5.33336C20.0001 5.10598 19.3334 4.70444 19.3334 4.00004C19.3334 3.26415 19.9309 2.66672 20.6667 2.66672C21.0347 2.66672 21.368 2.8161 21.6094 3.05743M20.6667 8V8.66668M20.6667 2V2.66668" stroke="black" stroke-width="1.25" stroke-miterlimit="10" stroke-linecap="round" stroke-linejoin="round"/>
</svg>
