<svg width="24" height="24" viewBox="0 0 24 24" fill="none" xmlns="http://www.w3.org/2000/svg">
<path d="M15.2258 22H8.77415C8.72515 22 8.6768 21.9888 8.63276 21.9673C8.58873 21.9458 8.55017 21.9146 8.52001 21.876C8.48985 21.8374 8.46888 21.7924 8.4587 21.7445C8.44852 21.6965 8.44939 21.6469 8.46125 21.5994L9.42899 17.7284C9.4464 17.6586 9.48666 17.5966 9.54336 17.5523C9.60005 17.508 9.66994 17.4839 9.74189 17.4839H14.258C14.33 17.4839 14.3999 17.508 14.4566 17.5523C14.5133 17.5966 14.5535 17.6586 14.5709 17.7284L15.5387 21.5994C15.5505 21.6469 15.5514 21.6965 15.5412 21.7445C15.531 21.7924 15.5101 21.8374 15.4799 21.876C15.4497 21.9146 15.4112 21.9458 15.3672 21.9673C15.3231 21.9888 15.2748 22 15.2258 22ZM9.18738 21.3549H14.8125L14.0061 18.129H9.99383L9.18738 21.3549Z" fill="black"/>
<path d="M8.7741 22H2.32249C2.27349 22 2.22514 21.9888 2.1811 21.9673C2.13707 21.9458 2.09851 21.9146 2.06835 21.876C2.03819 21.8374 2.01722 21.7924 2.00704 21.7445C1.99686 21.6965 1.99773 21.6469 2.00959 21.5994L2.97733 17.7284C2.99474 17.6586 3.035 17.5966 3.0917 17.5523C3.14839 17.508 3.21828 17.4839 3.29023 17.4839H7.80636C7.87832 17.4839 7.9482 17.508 8.0049 17.5523C8.0616 17.5966 8.10185 17.6586 8.11927 17.7284L9.08701 21.5994C9.09886 21.6469 9.09974 21.6965 9.08955 21.7445C9.07937 21.7924 9.05841 21.8374 9.02825 21.876C8.99809 21.9146 8.95953 21.9458 8.91549 21.9673C8.87146 21.9888 8.8231 22 8.7741 22ZM2.73572 21.3549H8.36088L7.55443 18.129H3.54217L2.73572 21.3549Z" fill="black"/>
<path d="M11.9999 18.1289H5.54832C5.49932 18.1289 5.45097 18.1177 5.40693 18.0962C5.3629 18.0748 5.32434 18.0435 5.29418 18.0049C5.26402 17.9663 5.24305 17.9213 5.23287 17.8734C5.22269 17.8254 5.22356 17.7758 5.23542 17.7283L6.20316 13.8573C6.22057 13.7875 6.26083 13.7255 6.31753 13.6812C6.37422 13.6369 6.44411 13.6128 6.51606 13.6128H11.0322C11.1041 13.6128 11.174 13.6369 11.2307 13.6812C11.2874 13.7255 11.3277 13.7875 11.3451 13.8573L12.3128 17.7283C12.3247 17.7758 12.3256 17.8254 12.3154 17.8734C12.3052 17.9213 12.2842 17.9663 12.2541 18.0049C12.2239 18.0435 12.1854 18.0748 12.1413 18.0962C12.0973 18.1177 12.0489 18.1289 11.9999 18.1289ZM5.96155 17.4838H11.5867L10.7803 14.258H6.768L5.96155 17.4838Z" fill="black"/>
<path d="M15.2258 14.2581H8.77415C8.72515 14.2581 8.6768 14.2469 8.63276 14.2254C8.58873 14.2039 8.55017 14.1727 8.52001 14.134C8.48985 14.0954 8.46888 14.0504 8.4587 14.0025C8.44852 13.9546 8.44939 13.905 8.46125 13.8574L9.42899 9.98646C9.4464 9.91664 9.48666 9.85465 9.54336 9.81035C9.60005 9.76604 9.66994 9.74196 9.74189 9.74194H14.258C14.33 9.74196 14.3999 9.76604 14.4566 9.81035C14.5133 9.85465 14.5535 9.91664 14.5709 9.98646L15.5387 13.8574C15.5505 13.905 15.5514 13.9546 15.5412 14.0025C15.531 14.0504 15.5101 14.0954 15.4799 14.134C15.4497 14.1727 15.4112 14.2039 15.3672 14.2254C15.3231 14.2469 15.2748 14.2581 15.2258 14.2581ZM9.18738 13.6129H14.8125L14.0061 10.3871H9.99383L9.18738 13.6129Z" fill="black"/>
<path d="M18.4515 18.1289H11.9999C11.9509 18.1289 11.9025 18.1177 11.8585 18.0962C11.8144 18.0748 11.7759 18.0435 11.7457 18.0049C11.7156 17.9663 11.6946 17.9213 11.6844 17.8734C11.6742 17.8254 11.6751 17.7758 11.687 17.7283L12.6547 13.8573C12.6721 13.7875 12.7124 13.7255 12.7691 13.6812C12.8258 13.6369 12.8956 13.6128 12.9676 13.6128H17.4837C17.5557 13.6128 17.6256 13.6369 17.6823 13.6812C17.739 13.7255 17.7792 13.7875 17.7966 13.8573L18.7644 17.7283C18.7762 17.7758 18.7771 17.8254 18.7669 17.8734C18.7567 17.9213 18.7358 17.9663 18.7056 18.0049C18.6755 18.0435 18.6369 18.0748 18.5929 18.0962C18.5488 18.1177 18.5005 18.1289 18.4515 18.1289ZM12.4131 17.4838H18.0382L17.2318 14.258H13.2195L12.4131 17.4838Z" fill="black"/>
<path d="M21.6774 22.0001H15.2258C15.1768 22 15.1284 21.9889 15.0844 21.9674C15.0403 21.9459 15.0018 21.9147 14.9716 21.876C14.9415 21.8374 14.9205 21.7924 14.9103 21.7445C14.9001 21.6966 14.901 21.647 14.9129 21.5994L15.8806 17.7284C15.898 17.6586 15.9383 17.5966 15.995 17.5523C16.0517 17.508 16.1215 17.484 16.1935 17.4839H20.7096C20.7816 17.484 20.8515 17.508 20.9082 17.5523C20.9649 17.5966 21.0051 17.6586 21.0225 17.7284L21.9903 21.5994C22.0021 21.647 22.003 21.6966 21.9928 21.7445C21.9826 21.7924 21.9617 21.8374 21.9315 21.876C21.9014 21.9147 21.8628 21.9459 21.8188 21.9674C21.7747 21.9889 21.7264 22 21.6774 22.0001ZM15.639 21.3549H21.2641L20.4577 18.1291H16.4454L15.639 21.3549ZM11.9999 9.09684C11.9144 9.09684 11.8323 9.06285 11.7718 9.00236C11.7114 8.94186 11.6774 8.85981 11.6774 8.77426V4.25813C11.6774 4.17257 11.7114 4.09052 11.7718 4.03003C11.8323 3.96953 11.9144 3.93555 11.9999 3.93555C12.0855 3.93555 12.1676 3.96953 12.228 4.03003C12.2885 4.09052 12.3225 4.17257 12.3225 4.25813V8.77426C12.3225 8.85981 12.2885 8.94186 12.228 9.00236C12.1676 9.06285 12.0855 9.09684 11.9999 9.09684Z" fill="black"/>
<path d="M12.9677 8.45153H10.387C10.3015 8.45153 10.2194 8.41755 10.1589 8.35705C10.0984 8.29656 10.0645 8.21451 10.0645 8.12895C10.0645 8.0434 10.0984 7.96135 10.1589 7.90085C10.2194 7.84036 10.3015 7.80637 10.387 7.80637H12.9677C13.0532 7.80637 13.1353 7.77239 13.1958 7.71189C13.2563 7.6514 13.2903 7.56935 13.2903 7.48379V7.16121C13.2903 7.07566 13.2563 6.99361 13.1958 6.93311C13.1353 6.87262 13.0532 6.83863 12.9677 6.83863H11.0322C10.7755 6.83863 10.5294 6.73667 10.3479 6.55519C10.1664 6.3737 10.0645 6.12755 10.0645 5.87089V5.54831C10.0645 5.29165 10.1664 5.0455 10.3479 4.86401C10.5294 4.68252 10.7755 4.58057 11.0322 4.58057H13.6128C13.6984 4.58057 13.7804 4.61455 13.8409 4.67505C13.9014 4.73554 13.9354 4.81759 13.9354 4.90315C13.9354 4.9887 13.9014 5.07075 13.8409 5.13125C13.7804 5.19174 13.6984 5.22573 13.6128 5.22573H11.0322C10.9466 5.22573 10.8646 5.25971 10.8041 5.32021C10.7436 5.38071 10.7096 5.46275 10.7096 5.54831V5.87089C10.7096 5.95644 10.7436 6.03849 10.8041 6.09899C10.8646 6.15948 10.9466 6.19347 11.0322 6.19347H12.9677C13.2243 6.19347 13.4705 6.29543 13.652 6.47691C13.8335 6.6584 13.9354 6.90455 13.9354 7.16121V7.48379C13.9354 7.74045 13.8335 7.9866 13.652 8.16809C13.4705 8.34958 13.2243 8.45153 12.9677 8.45153Z" fill="black"/>
<path d="M8.45147 9.95161C8.40258 9.95165 8.35433 9.94058 8.31035 9.91923C8.26637 9.89789 8.22781 9.86682 8.1976 9.82839C7.52368 8.97787 7.15828 7.92386 7.16115 6.83871C7.16115 5.5554 7.67094 4.32466 8.57837 3.41723C9.48581 2.50979 10.7166 2 11.9999 2C13.2832 2 14.5139 2.50979 15.4213 3.41723C16.3288 4.32466 16.8386 5.5554 16.8386 6.83871C16.8422 7.92331 16.4764 8.97682 15.8015 9.82581C15.7484 9.89297 15.6709 9.9363 15.5859 9.94629C15.5009 9.95627 15.4154 9.93208 15.3482 9.87903C15.2811 9.82599 15.2377 9.74844 15.2278 9.66344C15.2178 9.57845 15.242 9.49297 15.295 9.42581C15.8798 8.69062 16.1967 7.77812 16.1934 6.83871C16.1934 5.72651 15.7516 4.65987 14.9651 3.87342C14.1787 3.08698 13.1121 2.64516 11.9999 2.64516C10.8877 2.64516 9.82102 3.08698 9.03457 3.87342C8.24813 4.65987 7.80631 5.72651 7.80631 6.83871C7.804 7.77919 8.12084 8.69263 8.70502 9.42968C8.74242 9.47726 8.76569 9.53441 8.77215 9.59458C8.77861 9.65476 8.76802 9.71555 8.74157 9.76999C8.71512 9.82443 8.6739 9.87033 8.6226 9.90245C8.5713 9.93456 8.512 9.9516 8.45147 9.95161Z" fill="black"/>
</svg>
