<svg width="24" height="24" viewBox="0 0 24 24" fill="none" xmlns="http://www.w3.org/2000/svg">
<path d="M9.5 2C8.727 2 7.986 2.307 7.44 2.854L4.853 5.439C4.30667 5.98574 3.99985 6.72708 4 7.5V19.5C4 20.875 5.125 22 6.5 22H17.5C18.875 22 20 20.875 20 19.5V4.5C20 3.125 18.875 2 17.5 2H9.5ZM9.5 3H17.5C18.334 3 19 3.666 19 4.5V19.5C19 20.334 18.334 21 17.5 21H6.5C5.666 21 5 20.334 5 19.5V7.5C5 6.992 5.201 6.506 5.56 6.146L8.146 3.561C8.506 3.2 8.992 3 9.5 3Z" fill="black"/>
<path d="M8.00002 13C7.45402 13 7.00002 13.454 7.00002 14C7.00002 14.546 7.45402 15 8.00002 15C8.54602 15 9.00002 14.546 9.00002 14C9.00002 13.454 8.54602 13 8.00002 13ZM10.146 14.146L7.14602 17.146C7.05213 17.2399 6.99939 17.3672 6.99939 17.5C6.99939 17.6328 7.05213 17.7601 7.14602 17.854C7.23991 17.9479 7.36725 18.0006 7.50002 18.0006C7.6328 18.0006 7.76013 17.9479 7.85402 17.854L10.854 14.854C10.9479 14.7601 11.0007 14.6328 11.0007 14.5C11.0007 14.3672 10.9479 14.2399 10.854 14.146C10.7601 14.0521 10.6328 13.9994 10.5 13.9994C10.3672 13.9994 10.2399 14.0521 10.146 14.146ZM10.5 16.5C9.95402 16.5 9.50002 16.954 9.50002 17.5C9.50002 18.046 9.95402 18.5 10.5 18.5C11.046 18.5 11.5 18.046 11.5 17.5C11.5 16.954 11.046 16.5 10.5 16.5ZM14.975 12C14.8468 12.0064 14.7259 12.0619 14.6375 12.155C14.5491 12.2481 14.4999 12.3716 14.5 12.5V13C13.678 13 13 13.678 13 14.5C13 15.322 13.678 16 14.5 16H15.5C15.786 16 16 16.214 16 16.5C16 16.786 15.786 17 15.5 17H14.5C14.4339 17.0016 14.3682 16.9898 14.3067 16.9653C14.2453 16.9408 14.1896 16.904 14.1428 16.8572C14.096 16.8105 14.0593 16.7547 14.0347 16.6933C14.0102 16.6319 13.9984 16.5661 14 16.5C14 16.3674 13.9473 16.2402 13.8536 16.1464C13.7598 16.0527 13.6326 16 13.5 16C13.3674 16 13.2402 16.0527 13.1465 16.1464C13.0527 16.2402 13 16.3674 13 16.5C13 17.322 13.678 18 14.5 18V18.5C14.5 18.6326 14.5527 18.7598 14.6465 18.8536C14.7402 18.9473 14.8674 19 15 19C15.1326 19 15.2598 18.9473 15.3536 18.8536C15.4473 18.7598 15.5 18.6326 15.5 18.5V18C16.322 18 17 17.322 17 16.5C17 15.678 16.322 15 15.5 15H14.5C14.214 15 14 14.786 14 14.5C14 14.214 14.214 14 14.5 14H15.5C15.786 14 16 14.214 16 14.5C16 14.6326 16.0527 14.7598 16.1465 14.8536C16.2402 14.9473 16.3674 15 16.5 15C16.6326 15 16.7598 14.9473 16.8536 14.8536C16.9473 14.7598 17 14.6326 17 14.5C17 13.678 16.322 13 15.5 13V12.5C15.5 12.3674 15.4473 12.2402 15.3536 12.1464C15.2598 12.0527 15.1326 12 15 12H14.975ZM7.50002 9C7.36741 9 7.24024 9.05268 7.14647 9.14645C7.0527 9.24021 7.00002 9.36739 7.00002 9.5C7.00002 9.63261 7.0527 9.75979 7.14647 9.85355C7.24024 9.94732 7.36741 10 7.50002 10H16.5C16.6326 10 16.7598 9.94732 16.8536 9.85355C16.9473 9.75979 17 9.63261 17 9.5C17 9.36739 16.9473 9.24021 16.8536 9.14645C16.7598 9.05268 16.6326 9 16.5 9H7.50002ZM7.50002 7C7.36741 7 7.24024 7.05268 7.14647 7.14645C7.0527 7.24022 7.00002 7.36739 7.00002 7.5C7.00002 7.63261 7.0527 7.75979 7.14647 7.85355C7.24024 7.94732 7.36741 8 7.50002 8H16.5C16.6326 8 16.7598 7.94732 16.8536 7.85355C16.9473 7.75979 17 7.63261 17 7.5C17 7.36739 16.9473 7.24022 16.8536 7.14645C16.7598 7.05268 16.6326 7 16.5 7H7.50002ZM10.5 5C10.3674 5 10.2402 5.05268 10.1465 5.14645C10.0527 5.24021 10 5.36739 10 5.5C10 5.63261 10.0527 5.75979 10.1465 5.85355C10.2402 5.94732 10.3674 6 10.5 6H13.5C13.6326 6 13.7598 5.94732 13.8536 5.85355C13.9473 5.75979 14 5.63261 14 5.5C14 5.36739 13.9473 5.24021 13.8536 5.14645C13.7598 5.05268 13.6326 5 13.5 5H10.5Z" fill="black"/>
</svg>
