<svg width="24" height="24" viewBox="0 0 24 24" fill="none" xmlns="http://www.w3.org/2000/svg">
<path d="M7.24025 22.4805C6.51092 22.4805 5.82796 22.3432 5.19138 22.0685C4.55488 21.7938 4.00121 21.421 3.53038 20.9501C3.05946 20.4793 2.68667 19.9256 2.412 19.2891C2.13733 18.6525 2 17.9696 2 17.2402C2 16.5109 2.13733 15.828 2.412 15.1914C2.68667 14.5549 3.05946 14.0012 3.53038 13.5304C4.00121 13.0595 4.55488 12.6867 5.19138 12.412C5.82796 12.1373 6.51092 12 7.24025 12C7.96958 12 8.65254 12.1373 9.28912 12.412C9.92562 12.6867 10.4793 13.0595 10.9501 13.5304C11.421 14.0012 11.7938 14.5549 12.0685 15.1914C12.3432 15.828 12.4805 16.5109 12.4805 17.2402C12.4805 17.9696 12.3432 18.6525 12.0685 19.2891C11.7938 19.9256 11.421 20.4793 10.9501 20.9501C10.4793 21.421 9.92562 21.7938 9.28912 22.0685C8.65254 22.3432 7.96958 22.4805 7.24025 22.4805ZM7.24025 21.1555C8.33808 21.1555 9.26508 20.7774 10.0212 20.0212C10.7774 19.2651 11.1555 18.3381 11.1555 17.2402C11.1555 16.1424 10.7774 15.2154 10.0212 14.4592C9.26508 13.7031 8.33808 13.325 7.24025 13.325C6.14242 13.325 5.21542 13.7031 4.45925 14.4592C3.70308 15.2154 3.325 16.1424 3.325 17.2402C3.325 18.3381 3.70308 19.2651 4.45925 20.0212C5.21542 20.7774 6.14242 21.1555 7.24025 21.1555Z" fill="black"/>
<mask id="mask0_793_3164" style="mask-type:alpha" maskUnits="userSpaceOnUse" x="4" y="14" width="7" height="7">
<rect x="4" y="14" width="7" height="7" fill="#D9D9D9"/>
</mask>
<g mask="url(#mask0_793_3164)">
<path d="M6.1301 17.3469C5.79405 17.3469 5.50936 17.2281 5.27603 16.9905C5.04269 16.753 4.92603 16.4661 4.92603 16.1301C4.92603 15.794 5.04269 15.5094 5.27603 15.276C5.50936 15.0427 5.79405 14.926 6.1301 14.926C6.46615 14.926 6.75295 15.0427 6.99052 15.276C7.22808 15.5094 7.34686 15.794 7.34686 16.1301C7.34686 16.4661 7.22808 16.753 6.99052 16.9905C6.75295 17.2281 6.46615 17.3469 6.1301 17.3469ZM6.12959 16.4281C6.21252 16.4281 6.283 16.3991 6.34105 16.341C6.39909 16.283 6.42811 16.2125 6.42811 16.1296C6.42811 16.0467 6.39909 15.9785 6.34105 15.925C6.283 15.8715 6.21252 15.8448 6.12959 15.8448C6.04666 15.8448 5.97846 15.8715 5.92498 15.925C5.87151 15.9785 5.84478 16.0467 5.84478 16.1296C5.84478 16.2125 5.87151 16.283 5.92498 16.341C5.97846 16.3991 6.04666 16.4281 6.12959 16.4281ZM8.86965 20.0812C8.53501 20.0812 8.24859 19.963 8.0104 19.7264C7.77221 19.4899 7.65311 19.2043 7.65311 18.8697C7.65311 18.535 7.77189 18.2498 8.00945 18.014C8.24702 17.7783 8.53382 17.6604 8.86987 17.6604C9.20592 17.6604 9.49182 17.7787 9.72759 18.0152C9.96335 18.2518 10.0812 18.5373 10.0812 18.872C10.0812 19.2066 9.96296 19.4918 9.72642 19.7276C9.48988 19.9634 9.20429 20.0812 8.86965 20.0812ZM8.87038 19.1625C8.95331 19.1625 9.02151 19.1339 9.07498 19.0769C9.12846 19.0199 9.15519 18.9506 9.15519 18.8691C9.15519 18.7876 9.12846 18.7189 9.07498 18.663C9.02151 18.6071 8.95331 18.5792 8.87038 18.5792C8.78745 18.5792 8.71696 18.6077 8.65892 18.6648C8.60088 18.7218 8.57186 18.791 8.57186 18.8726C8.57186 18.954 8.60088 19.0227 8.65892 19.0786C8.71696 19.1345 8.78745 19.1625 8.87038 19.1625ZM5.23957 19.7604C5.15207 19.6729 5.10832 19.566 5.10832 19.4396C5.10832 19.3132 5.15207 19.2062 5.23957 19.1187L9.13332 15.2323C9.22082 15.1448 9.32655 15.1022 9.4505 15.1047C9.57446 15.1071 9.68019 15.1521 9.76769 15.2396C9.85519 15.3271 9.89894 15.4316 9.89894 15.5531C9.89894 15.6746 9.85519 15.7792 9.76769 15.8667L5.88123 19.7604C5.79373 19.8479 5.68679 19.8917 5.5604 19.8917C5.43401 19.8917 5.32707 19.8479 5.23957 19.7604Z" fill="black"/>
</g>
<path d="M8.8476 2H17.0949C17.3542 2 17.5772 2.09382 17.7601 2.27869L21.7195 6.27969C21.9024 6.46549 21.9952 6.69083 21.9952 6.95297V19.0526C21.9952 19.8895 21.32 20.572 20.491 20.572H10.3564C10.3081 20.572 10.2672 20.5463 10.2444 20.503C10.2226 20.4607 10.2262 20.412 10.2535 20.3724L10.896 19.9298C10.8315 20.5027 11.3139 19.9298 11.3558 19.9298L20.491 19.3027C20.6275 19.3027 20.7394 19.1896 20.7394 19.0526V7.14796H18.2242C17.4953 7.14796 16.901 6.54735 16.901 5.81061V3.26928H8.8476C8.7111 3.26928 8.59917 3.38242 8.59917 3.51946V13.1991C8.59917 13.2681 8.54276 13.3251 8.4736 13.3251H7.46896C7.3998 13.3251 7.34338 13.2681 7.34338 13.1991V3.51946C7.34338 2.68247 8.0186 2 8.8476 2Z" fill="black"/>
<path d="M11.3294 5.98422C11.3199 5.94518 11.3048 5.91093 11.2842 5.88147C11.2635 5.85127 11.2377 5.82586 11.2068 5.80524C11.1766 5.78388 11.1413 5.76804 11.1008 5.75773C11.061 5.74669 11.0172 5.74116 10.9693 5.74116C10.8662 5.74116 10.7782 5.76584 10.7052 5.81518C10.6331 5.86453 10.5778 5.93561 10.5395 6.02841C10.502 6.12121 10.4832 6.23316 10.4832 6.36427C10.4832 6.49684 10.5012 6.61027 10.5373 6.70455C10.5734 6.79882 10.6272 6.871 10.6986 6.92109C10.7701 6.97117 10.8588 6.99621 10.9649 6.99621C11.0584 6.99621 11.1361 6.98259 11.198 6.95533C11.2606 6.92808 11.3074 6.88941 11.3383 6.83933C11.3692 6.78925 11.3847 6.73032 11.3847 6.66256L11.4907 6.67361H10.9737V6.23611H11.9769V6.54987C11.9769 6.7561 11.933 6.9325 11.8454 7.07907C11.7585 7.22491 11.6384 7.33686 11.4852 7.41493C11.3328 7.49227 11.1578 7.53093 10.9604 7.53093C10.7402 7.53093 10.5469 7.48416 10.3804 7.39062C10.214 7.29709 10.084 7.16377 9.99043 6.99069C9.89763 6.8176 9.85123 6.61174 9.85123 6.37311C9.85123 6.18603 9.87958 6.02031 9.9363 5.87595C9.99375 5.73159 10.0733 5.60969 10.1749 5.51026C10.2766 5.41009 10.3941 5.3346 10.5274 5.28378C10.6607 5.23222 10.8036 5.20644 10.956 5.20644C11.0901 5.20644 11.2145 5.22559 11.3294 5.26389C11.4451 5.30145 11.5471 5.35522 11.6355 5.42519C11.7246 5.49442 11.7964 5.57655 11.8509 5.67156C11.9054 5.76657 11.9386 5.87079 11.9503 5.98422H11.3294ZM13.483 5.94444C13.4771 5.87079 13.4495 5.81334 13.4001 5.7721C13.3515 5.73085 13.2775 5.71023 13.1781 5.71023C13.1147 5.71023 13.0628 5.71796 13.0223 5.73343C12.9825 5.74816 12.953 5.76841 12.9339 5.79419C12.9147 5.81997 12.9048 5.84943 12.9041 5.88258C12.9026 5.90983 12.9074 5.9345 12.9184 5.9566C12.9302 5.97796 12.9486 5.99747 12.9737 6.01515C12.9987 6.03209 13.0307 6.04756 13.0698 6.06155C13.1088 6.07555 13.1552 6.08807 13.209 6.09912L13.3946 6.13889C13.5198 6.1654 13.627 6.20039 13.7161 6.24384C13.8052 6.2873 13.8781 6.33849 13.9348 6.39741C13.9916 6.4556 14.0332 6.52115 14.0597 6.59407C14.0869 6.66698 14.1009 6.74653 14.1017 6.8327C14.1009 6.98148 14.0637 7.10743 13.9901 7.21054C13.9164 7.31366 13.8111 7.3921 13.6741 7.44586C13.5378 7.49963 13.374 7.52652 13.1825 7.52652C12.9858 7.52652 12.8142 7.49742 12.6676 7.43924C12.5218 7.38105 12.4084 7.29156 12.3274 7.17077C12.2471 7.04924 12.2066 6.89383 12.2058 6.70455H12.7892C12.7928 6.77378 12.8102 6.83197 12.8411 6.8791C12.872 6.92624 12.9155 6.96196 12.9715 6.98627C13.0282 7.01057 13.0956 7.02273 13.1736 7.02273C13.2392 7.02273 13.2941 7.01463 13.3382 6.99842C13.3824 6.98222 13.416 6.95975 13.4388 6.93103C13.4616 6.9023 13.4734 6.86953 13.4741 6.8327C13.4734 6.79808 13.462 6.76789 13.4399 6.74211C13.4185 6.71559 13.3832 6.69202 13.3338 6.6714C13.2845 6.65004 13.2178 6.63016 13.1339 6.61174L12.9085 6.56313C12.7081 6.51968 12.5502 6.44713 12.4345 6.34549C12.3196 6.24311 12.2625 6.10354 12.2633 5.92677C12.2625 5.78314 12.3008 5.65757 12.3782 5.55003C12.4562 5.44176 12.5642 5.35743 12.7019 5.29703C12.8404 5.23664 12.9991 5.20644 13.1781 5.20644C13.3607 5.20644 13.5187 5.23701 13.652 5.29814C13.7853 5.35927 13.8881 5.44544 13.9602 5.55666C14.0332 5.66714 14.07 5.7964 14.0707 5.94444H13.483ZM14.2735 5.73232V5.23737H16.24V5.73232H15.5594V7.5H14.954V5.73232H14.2735Z" fill="black"/>
<path d="M15.244 11H19.756C19.8906 11 20 11.0756 20 11.1675V11.8333C20 11.9253 19.8906 12 19.756 12H15.244C15.1094 12 15 11.9253 15 11.8333V11.1675C15 11.0756 15.1094 11 15.244 11Z" fill="black"/>
<path d="M16.1952 9H19.8048C19.9125 9 20 9.0756 20 9.16753V9.83333C20 9.92526 19.9125 10 19.8048 10H16.1952C16.0875 10 16 9.92526 16 9.83333V9.16753C16 9.0756 16.0875 9 16.1952 9Z" fill="black"/>
<path d="M14.2928 13H19.7072C19.8687 13 20 13.0756 20 13.1675V13.8333C20 13.9253 19.8687 14 19.7072 14H14.2928C14.1313 14 14 13.9253 14 13.8333V13.1675C14 13.0756 14.1313 13 14.2928 13Z" fill="black"/>
<path d="M13.3416 16H19.6585C19.8468 16 20 15.9244 20 15.8325V15.1667C20 15.0747 19.8468 15 19.6585 15H13.3416C13.1532 15 13 15.0747 13 15.1667V15.8325C13 15.9244 13.1532 16 13.3416 16Z" fill="black"/>
</svg>
