<svg width="24" height="24" viewBox="0 0 24 24" fill="none" xmlns="http://www.w3.org/2000/svg">
<path d="M21.409 16.5715L19.0983 12.5921C20.0112 12.3602 20.6886 11.5315 20.6886 10.5475C20.6886 9.57605 20.0283 8.75634 19.1331 8.51236C19.2317 8.265 19.2823 8.00113 19.2822 7.73484C19.2822 6.81816 18.6943 6.03656 17.8759 5.74631V4.09805C18.6943 3.8078 19.2822 3.0262 19.2822 2.10952C19.2822 0.946312 18.3359 0 17.1728 0C16.0096 0 15.0633 0.946312 15.0633 2.10947C15.0633 3.02616 15.6512 3.80775 16.4696 4.098V5.74627C15.6512 6.03652 15.0633 6.81811 15.0633 7.7348C15.0633 8.0093 15.1166 8.27152 15.2124 8.51231C14.3172 8.75625 13.657 9.57595 13.657 10.5474C13.657 11.5314 14.3343 12.3601 15.2473 12.592L12.9364 16.5716C12.4877 17.3283 12.2506 18.1952 12.2506 19.0791C12.2506 21.7867 14.4383 24 17.1821 24C19.6396 24 21.5776 22.2202 21.9986 20.065C22.2355 18.8525 22.0261 17.612 21.409 16.5715ZM17.1728 1.40634C17.5605 1.40634 17.8759 1.72177 17.8759 2.10952C17.8759 2.49727 17.5605 2.81269 17.1728 2.81269C16.785 2.81269 16.4696 2.49727 16.4696 2.10952C16.4696 1.72177 16.785 1.40634 17.1728 1.40634ZM17.1728 7.03162C17.5605 7.03162 17.8759 7.34705 17.8759 7.7348C17.8759 8.12255 17.5605 8.43797 17.1728 8.43797C16.785 8.43797 16.4696 8.12255 16.4696 7.7348C16.4696 7.34705 16.785 7.03162 17.1728 7.03162ZM15.0632 10.5474C15.0632 10.1597 15.3787 9.84427 15.7664 9.84427H18.5791C18.9668 9.84427 19.2822 10.1597 19.2822 10.5474C19.2822 10.9352 18.9668 11.2506 18.5791 11.2506H15.7664C15.3787 11.2506 15.0632 10.9351 15.0632 10.5474ZM15.2216 15.4369L16.5698 13.1151C16.8424 12.66 17.5029 12.6593 17.7759 13.1151L19.1241 15.4369C19.226 15.6984 19.2823 15.985 19.2823 16.2665C19.2823 17.4296 18.336 18.3759 17.1728 18.3759C16.0097 18.3759 15.0633 17.4296 15.0633 16.2665C15.0633 15.985 15.1195 15.6985 15.2216 15.4369ZM20.6184 19.7954C20.2743 21.5565 18.7002 22.6286 17.0875 22.5949C15.1948 22.5555 13.657 20.9964 13.657 19.0791C13.6569 18.5946 13.7569 18.1153 13.9507 17.6712C14.494 18.9125 15.7334 19.7822 17.1728 19.7822C18.6123 19.7822 19.8519 18.9122 20.395 17.6708C20.6849 18.3294 20.7629 19.0555 20.6184 19.7954ZM10.1584 16.5715L7.84769 12.5921C8.76058 12.3602 9.43797 11.5315 9.43797 10.5475C9.43797 9.57605 8.77769 8.75634 7.88252 8.51236C7.98112 8.265 8.03173 8.00113 8.03162 7.73484C8.03162 6.81816 7.44372 6.03656 6.62528 5.74631V4.09805C7.44372 3.8078 8.03162 3.0262 8.03162 2.10952C8.03162 0.946312 7.08531 0 5.92216 0C4.759 0 3.81269 0.946312 3.81269 2.10947C3.81269 3.02616 4.40059 3.80775 5.21903 4.098V5.74627C4.40059 6.03652 3.81269 6.81811 3.81269 7.7348C3.81269 8.0093 3.86598 8.27152 3.9618 8.51231C3.06662 8.75625 2.40634 9.57595 2.40634 10.5474C2.40634 11.5314 3.08373 12.3601 3.99667 12.592L1.68583 16.5716C1.23709 17.3283 1 18.1952 1 19.0791C1.00005 21.7868 3.1877 24 5.93148 24C8.38427 24 10.3266 22.2219 10.748 20.065C10.9849 18.8525 10.7755 17.612 10.1584 16.5715ZM5.92216 1.40634C6.30986 1.40634 6.62533 1.72177 6.62533 2.10952C6.62533 2.49727 6.30991 2.81269 5.92216 2.81269C5.53441 2.81269 5.21898 2.49727 5.21898 2.10952C5.21898 1.72177 5.53445 1.40634 5.92216 1.40634ZM5.92216 7.03162C6.30986 7.03162 6.62533 7.34705 6.62533 7.7348C6.62533 8.12255 6.30991 8.43797 5.92216 8.43797C5.53441 8.43797 5.21898 8.12255 5.21898 7.7348C5.21898 7.34705 5.53445 7.03162 5.92216 7.03162ZM3.81269 10.5474C3.81269 10.1597 4.12811 9.84427 4.51586 9.84427H7.3285C7.7162 9.84427 8.03167 10.1597 8.03167 10.5474C8.03167 10.9352 7.71625 11.2506 7.3285 11.2506H4.51586C4.12811 11.2506 3.81269 10.9351 3.81269 10.5474ZM3.97098 15.4369L5.3192 13.1151C5.59183 12.66 6.25225 12.6593 6.52525 13.1151L7.87347 15.4369C7.97542 15.6984 8.03167 15.985 8.03167 16.2665C8.03167 17.4296 7.08536 18.3759 5.9222 18.3759C4.75905 18.3759 3.81273 17.4296 3.81273 16.2665C3.81269 15.985 3.86894 15.6985 3.97098 15.4369ZM9.36775 19.7954C9.02645 21.5426 7.47452 22.6115 5.87523 22.5955C3.96053 22.5764 2.40634 21.005 2.40634 19.0791C2.40629 18.5946 2.50629 18.1153 2.70006 17.6712C3.24339 18.9125 4.48281 19.7822 5.92216 19.7822C7.36169 19.7822 8.60125 18.9122 9.14444 17.6708C9.43426 18.3294 9.51227 19.0555 9.36775 19.7954Z" fill="black"/>
</svg>
