<svg width="24" height="24" viewBox="0 0 24 24" fill="none" xmlns="http://www.w3.org/2000/svg">
<path d="M12 4.24481V3M15.7344 5.24543L17.0193 3.01996M18.4682 7.97924L19.5463 7.35684M8.26557 5.24543L6.98067 3.01996M5.53175 7.97924L4.45375 7.35684M10.135 20.4689H3.24549C2.42848 20.4689 1.83296 19.6951 2.04217 18.9053L3.28773 14.2033H10.0927L11.3383 18.9053C11.5475 19.6951 10.952 20.4689 10.135 20.4689ZM20.7545 20.4689H13.865C13.048 20.4689 12.4525 19.6951 12.6617 18.9053L13.9073 14.2033H20.7123L21.9578 18.9053C22.167 19.6951 21.5715 20.4689 20.7545 20.4689ZM15.4835 14.2033H8.51652C7.69864 14.2033 7.103 13.428 7.31374 12.6377L8.55602 7.97924H15.444L16.6863 12.6377C16.897 13.428 16.3014 14.2033 15.4835 14.2033Z" stroke="black" stroke-width="1.25" stroke-miterlimit="10" stroke-linecap="round" stroke-linejoin="round"/>
</svg>
