<svg width="512" height="512" viewBox="0 0 512 512" fill="none" xmlns="http://www.w3.org/2000/svg">
<g clip-path="url(#clip0_2895_1556)">
<path d="M511.8 224.372L499.886 69.4248C497.515 38.5858 473.412 14.4838 442.574 12.1128L287.627 0.197795C268.945 -1.2372 252.07 5.00579 238.823 18.2538L17.536 239.541C6.228 250.849 0 265.929 0 282.005C0 298.08 6.228 313.161 17.536 324.469L187.53 494.463C199.238 506.172 214.613 512.025 229.994 512.025C245.37 512.025 260.752 506.17 272.458 494.463L493.746 273.176C506.994 259.927 513.237 243.051 511.8 224.372ZM471.118 250.549L249.831 471.836C238.892 482.774 221.095 482.772 210.158 471.836L40.164 301.842C34.899 296.577 32 289.532 32 282.005C32 274.477 34.899 267.432 40.163 262.168L261.451 40.8808C267.413 34.9178 274.297 31.9968 282.424 31.9968C283.342 31.9971 284.259 32.0328 285.174 32.1038L440.121 44.0188C455.111 45.1698 466.828 56.8868 467.98 71.8768L479.895 226.825C480.613 236.165 477.742 243.925 471.118 250.549ZM374.744 76.4608C341.222 76.4608 313.95 103.733 313.95 137.255C313.95 170.777 341.222 198.049 374.744 198.05C408.266 198.049 435.538 170.777 435.538 137.255C435.538 103.733 408.266 76.4608 374.744 76.4608ZM374.744 166.05C358.867 166.049 345.95 153.132 345.95 137.255C345.95 121.378 358.867 108.461 374.744 108.461C390.621 108.461 403.538 121.378 403.538 137.255C403.538 153.132 390.621 166.049 374.744 166.05Z" fill="black"/>
</g>
<defs>
<clipPath id="clip0_2895_1556">
<rect width="512" height="512" fill="white"/>
</clipPath>
</defs>
</svg>
