<svg width="24" height="24" viewBox="0 0 24 24" fill="none" xmlns="http://www.w3.org/2000/svg">
<path d="M7 4.5L16.6968 1.41466C17.3417 1.20945 18 1.69078 18 2.36758V4.5" stroke="black" stroke-width="1.25"/>
<rect x="5.375" y="4.375" width="14.25" height="18.25" rx="2.625" stroke="black" stroke-width="1.25"/>
<path d="M16.756 12H12.244C12.1094 12 12 12.0756 12 12.1675V12.8333C12 12.9253 12.1094 13 12.244 13H16.756C16.8906 13 17 12.9253 17 12.8333V12.1675C17 12.0756 16.8906 12 16.756 12Z" fill="black"/>
<path d="M14.8536 14H12.1464C12.0656 14 12 14.0756 12 14.1675V14.8333C12 14.9253 12.0656 15 12.1464 15H14.8536C14.9344 15 15 14.9253 15 14.8333V14.1675C15 14.0756 14.9344 14 14.8536 14Z" fill="black"/>
<rect x="8" y="12" width="3" height="3" rx="0.5" stroke="black"/>
<path d="M16.756 7H12.244C12.1094 7 12 7.0756 12 7.16753V7.83333C12 7.92526 12.1094 8 12.244 8H16.756C16.8906 8 17 7.92526 17 7.83333V7.16753C17 7.0756 16.8906 7 16.756 7Z" fill="black"/>
<path d="M14.8536 9H12.1464C12.0656 9 12 9.0756 12 9.16753V9.83333C12 9.92526 12.0656 10 12.1464 10H14.8536C14.9344 10 15 9.92526 15 9.83333V9.16753C15 9.0756 14.9344 9 14.8536 9Z" fill="black"/>
<rect x="8" y="7" width="3" height="3" rx="0.5" stroke="black"/>
<path d="M16.756 17H12.244C12.1094 17 12 17.0756 12 17.1675V17.8333C12 17.9253 12.1094 18 12.244 18H16.756C16.8906 18 17 17.9253 17 17.8333V17.1675C17 17.0756 16.8906 17 16.756 17Z" fill="black"/>
<path d="M14.8536 19H12.1464C12.0656 19 12 19.0756 12 19.1675V19.8333C12 19.9253 12.0656 20 12.1464 20H14.8536C14.9344 20 15 19.9253 15 19.8333V19.1675C15 19.0756 14.9344 19 14.8536 19Z" fill="black"/>
<rect x="8" y="17" width="3" height="3" rx="0.5" stroke="black"/>
</svg>
