<svg width="24" height="24" viewBox="0 0 24 24" fill="none" xmlns="http://www.w3.org/2000/svg">
<path d="M20.8164 11.7194L17.4675 8.37043C17.3484 8.25952 17.191 8.19913 17.0283 8.202C16.8657 8.20487 16.7104 8.27077 16.5954 8.38582C16.4804 8.50087 16.4145 8.65608 16.4116 8.81875C16.4087 8.98143 16.4691 9.13887 16.58 9.2579L18.8573 11.5352H6.97693C6.81039 11.5352 6.65067 11.6013 6.53291 11.7191C6.41516 11.8369 6.349 11.9966 6.349 12.1631C6.349 12.3296 6.41516 12.4894 6.53291 12.6071C6.65067 12.7249 6.81039 12.791 6.97693 12.791H18.8573L16.58 15.0683C16.4624 15.186 16.3964 15.3456 16.3964 15.512C16.3964 15.6784 16.4624 15.838 16.58 15.9558C16.6977 16.0734 16.8573 16.1394 17.0237 16.1394C17.1901 16.1394 17.3497 16.0734 17.4675 15.9558L20.8164 12.6068C20.934 12.4891 21.0001 12.3295 21.0001 12.1631C21.0001 11.9967 20.934 11.8371 20.8164 11.7194Z" fill="black"/>
<path d="M13.6747 15.7213C13.5089 15.7235 13.3504 15.7903 13.2331 15.9076C13.1158 16.0249 13.049 16.1834 13.0468 16.3492V18.0237C13.0468 18.3012 12.9366 18.5674 12.7403 18.7637C12.544 18.96 12.2778 19.0702 12.0003 19.0702H5.3024C5.02484 19.0702 4.75864 18.96 4.56238 18.7637C4.36611 18.5674 4.25585 18.3012 4.25585 18.0237V6.3024C4.25585 6.02484 4.36611 5.75864 4.56238 5.56238C4.75864 5.36611 5.02484 5.25585 5.3024 5.25585H12.0003C12.2778 5.25585 12.544 5.36611 12.7403 5.56238C12.9366 5.75864 13.0468 6.02484 13.0468 6.3024V7.97687C13.0468 8.1434 13.113 8.30312 13.2307 8.42088C13.3485 8.53864 13.5082 8.60479 13.6747 8.60479C13.8413 8.60479 14.001 8.53864 14.1188 8.42088C14.2365 8.30312 14.3027 8.1434 14.3027 7.97687V6.3024C14.3027 5.69176 14.0601 5.10614 13.6283 4.67436C13.1965 4.24257 12.6109 4 12.0003 4H5.3024C4.69176 4 4.10614 4.24257 3.67436 4.67436C3.24257 5.10614 3 5.69176 3 6.3024V18.0237C3 18.6343 3.24257 19.2199 3.67436 19.6517C4.10614 20.0835 4.69176 20.3261 5.3024 20.3261H12.0003C12.6109 20.3261 13.1965 20.0835 13.6283 19.6517C14.0601 19.2199 14.3027 18.6343 14.3027 18.0237V16.3492C14.3005 16.1834 14.2337 16.0249 14.1164 15.9076C13.9991 15.7903 13.8406 15.7235 13.6747 15.7213Z" fill="black"/>
</svg>
