<svg width="24" height="24" viewBox="0 0 24 24" fill="none" xmlns="http://www.w3.org/2000/svg">
<path d="M2.31473 20.8385C6.31236 20.8385 15.0647 20.8385 21.6971 20.8385C21.788 20.8385 21.8789 20.8082 21.9394 20.7173C22 20.6265 22 20.5356 22 20.4448L20.9097 16.8409C20.8795 16.7197 20.7583 16.6289 20.6069 16.6289H18.6989L17.6692 13.2369C17.639 13.1158 17.5178 13.0249 17.3664 13.0249H15.4281L14.4287 9.6633C14.3985 9.54216 14.2773 9.45131 14.1259 9.45131H9.82542C9.70428 9.45131 9.58314 9.54216 9.52257 9.6633L8.49288 13.0552H6.58492C6.46378 13.0552 6.34264 13.1461 6.28207 13.2672L5.25238 16.6591H3.40499C3.28385 16.6591 3.16271 16.75 3.10214 16.8711L2.01188 20.4448C1.9816 20.5356 2.01188 20.6265 2.07245 20.7173C2.13302 20.8082 2.22388 20.8385 2.31473 20.8385ZM8.76544 19.5059L8.09917 17.2648H9.462L8.76544 19.5059ZM9.18943 20.2328L10.098 17.2346C11.4305 17.2346 12.5814 17.2346 13.9442 17.2346L14.8527 20.2328H9.18943ZM15.2464 19.5059L14.5802 17.2648H15.943L15.2464 19.5059ZM21.3034 20.2328H15.6401L16.5487 17.2346H18.4567H20.3646L21.3034 20.2328ZM18.0629 16.6289C14.883 16.6289 15.5493 16.6289 12.4299 16.6289L13.3385 13.6306C17.7298 13.6306 16.7304 13.6306 17.1847 13.6306L18.0629 16.6289ZM12.0059 15.902L11.3397 13.6609H12.7025L12.0059 15.902ZM10.098 10.057H13.9442L14.8224 13.0552C14.247 13.0552 16.9121 13.0552 9.18943 13.0552L10.098 10.057ZM6.85749 13.6609H10.7037L11.6122 16.6591C8.43231 16.6591 9.09858 16.6591 5.97922 16.6591L6.85749 13.6609ZM3.61699 17.2346H5.52494H7.4329L8.34145 20.2328H2.70844L3.61699 17.2346ZM12.0059 6.54394C12.1877 6.54394 12.3088 6.4228 12.3088 6.24109V4.30285C12.3088 4.12114 12.1877 4 12.0059 4C11.8242 4 11.7031 4.12114 11.7031 4.30285V6.24109C11.7031 6.39252 11.8242 6.54394 12.0059 6.54394ZM7.85689 8.05819C7.97803 8.17933 8.15974 8.17933 8.28088 8.05819C8.40202 7.93705 8.40202 7.75534 8.28088 7.6342L6.91806 6.27138C6.79692 6.15024 6.61521 6.15024 6.49407 6.27138C6.37293 6.39252 6.37293 6.57423 6.49407 6.69537L7.85689 8.05819ZM4.52554 12.0861H6.46378C6.64549 12.0861 6.76663 11.965 6.76663 11.7833C6.76663 11.6015 6.64549 11.4804 6.46378 11.4804H4.52554C4.34383 11.4804 4.22269 11.6015 4.22269 11.7833C4.22269 11.965 4.34383 12.0861 4.52554 12.0861ZM17.2453 11.7833C17.2453 11.965 17.3664 12.0861 17.5481 12.0861H19.4863C19.6681 12.0861 19.7892 11.965 19.7892 11.7833C19.7892 11.6015 19.6681 11.4804 19.4863 11.4804H17.5481C17.3664 11.4804 17.2453 11.6015 17.2453 11.7833ZM16.1247 8.05819L17.4875 6.69537C17.6087 6.57423 17.6087 6.39252 17.4875 6.27138C17.3664 6.15024 17.1847 6.15024 17.0635 6.27138L15.7007 7.6342C15.5796 7.75534 15.5796 7.93705 15.7007 8.05819C15.8219 8.17933 16.0338 8.17933 16.1247 8.05819Z" fill="black"/>
</svg>
