<svg width="24" height="24" viewBox="0 0 24 24" fill="none" xmlns="http://www.w3.org/2000/svg">
<path d="M2 11.7704V10.9286C2 9.66988 2.94167 8.60141 4.19037 8.44321L9.43771 7.77845C10.322 7.66642 11.0459 7.03865 11.282 6.17909L11.2927 6.14011C11.7013 4.65235 12.8856 3.4981 14.3833 3.12783C15.1118 2.94775 15.8805 2.76041 16.6239 2.5792C17.367 2.39807 18.1356 2.21077 18.8632 2.03085C19.4264 1.89171 19.999 2.23643 20.1398 2.79943L20.1433 2.81361C20.284 3.3763 19.9412 3.94993 19.3792 4.09239C19.1702 4.1454 18.9616 4.19548 18.76 4.24391C18.6396 4.27282 18.5168 4.30235 18.3932 4.33262C18.3925 4.49528 18.3913 4.66332 18.3813 4.83914L18.3675 5.08414L16.1209 5.59546C15.482 5.74089 14.9989 6.20546 14.8285 6.83819C14.6582 7.47095 14.8428 8.11528 15.3224 8.5618C15.6582 8.87453 15.8477 9.29949 15.8559 9.75832C15.8641 10.2171 15.6899 10.6486 15.3653 10.9731L15.3562 10.9822C15.0398 11.2987 14.6189 11.4729 14.1714 11.4729C13.7238 11.4729 13.303 11.2987 12.9865 10.9822L12.3892 10.3848C12.1269 10.4198 11.5634 10.4949 10.8277 10.5928C8.35092 10.9227 3.74077 11.5367 2.36929 11.7208L2 11.7704ZM19.1161 2.65201C19.0843 2.65201 19.052 2.65584 19.0197 2.66377C18.2909 2.84393 17.5219 3.03135 16.7783 3.21263C16.0354 3.39369 15.2672 3.58095 14.5398 3.76075C13.2708 4.07442 12.2675 5.05234 11.9213 6.31284L11.9106 6.35182C11.6046 7.46611 10.6661 8.27997 9.51962 8.4252L4.27228 9.08996C3.3485 9.20699 2.65191 9.99742 2.65191 10.9286V11.0253C4.34744 10.7983 8.45432 10.2513 10.7416 9.94667L12.3845 9.72781C12.5356 9.70761 12.6842 9.758 12.7924 9.86609L13.4475 10.5212C13.6409 10.7146 13.898 10.8211 14.1714 10.8211C14.4448 10.8211 14.702 10.7146 14.8953 10.5213L14.9045 10.5121C15.1027 10.3139 15.2091 10.0503 15.2041 9.77C15.1991 9.48969 15.0834 9.23008 14.8782 9.03903C14.2187 8.42497 13.9649 7.53892 14.1991 6.66881C14.4334 5.7987 15.0978 5.15984 15.9764 4.95992L17.7392 4.55872C17.7408 4.47461 17.7411 4.39122 17.7415 4.30926C17.7419 4.22923 17.7423 4.15009 17.7437 4.07181L17.748 3.82271L17.9895 3.7615C18.1982 3.70857 18.4065 3.65857 18.6078 3.61017C18.8075 3.5622 19.014 3.51259 19.2191 3.4606C19.4338 3.40619 19.5647 3.18697 19.5109 2.97193L19.5074 2.95775C19.4617 2.77475 19.2968 2.65209 19.1162 2.65209L19.1161 2.65201Z" fill="black"/>
<path d="M13.0617 22H12.2198L12.2694 21.6307C12.4541 20.2545 13.07 15.6303 13.4009 13.1461C13.4971 12.4234 13.5708 11.8702 13.6054 11.6108L13.0081 11.0135L13.4691 10.5525L14.2945 11.3779L14.2729 11.5379C14.2671 11.5813 14.178 12.25 14.0472 13.2322C13.7415 15.527 13.1927 19.6478 12.9651 21.3481H13.0618C13.9929 21.3481 14.7833 20.6515 14.9004 19.7277L15.5651 14.4803C15.7104 13.3339 16.5242 12.3954 17.6386 12.0894L17.6775 12.0787C18.938 11.7325 19.9159 10.7291 20.2296 9.46024C20.4093 8.73337 20.5964 7.9658 20.7773 7.22354C20.9587 6.47925 21.1463 5.70964 21.3266 4.98032C21.3797 4.76524 21.2479 4.54653 21.0328 4.49274L21.0185 4.48919C20.8034 4.4354 20.5843 4.56637 20.5299 4.78102C20.4779 4.98606 20.4283 5.19254 20.3803 5.39219C20.3319 5.59359 20.2819 5.80183 20.229 6.01062L20.1677 6.2521L19.9186 6.25644C19.8403 6.2578 19.7611 6.25819 19.681 6.25855C19.5991 6.25894 19.5158 6.25933 19.4317 6.26089L19.0305 8.02373C18.8306 8.90235 18.1917 9.56676 17.3216 9.80097C16.4515 10.0353 15.5654 9.78133 14.9514 9.12188L15.4285 8.67763C15.875 9.15719 16.5194 9.34188 17.1521 9.17149C17.7849 9.00114 18.2495 8.51798 18.3949 7.87908L18.9062 5.63246L19.1512 5.61863C19.327 5.60871 19.4951 5.60754 19.6577 5.60676C19.688 5.4832 19.7175 5.36031 19.7464 5.23992C19.7949 5.03828 19.8449 4.82981 19.8979 4.62079C20.0404 4.05884 20.6142 3.71615 21.1766 3.85673L21.1909 3.86029C21.7539 4.00103 22.0987 4.57368 21.9595 5.1368C21.7794 5.86511 21.592 6.63421 21.4107 7.37799C21.2296 8.1208 21.0425 8.88887 20.8625 9.61676C20.4923 11.1146 19.338 12.2988 17.8502 12.7074L17.8113 12.7181C16.9517 12.9541 16.324 13.6781 16.2119 14.5624L15.5472 19.8097C15.389 21.0585 14.3205 22.0001 13.0618 22.0001L13.0617 22Z" fill="black"/>
<path d="M20.786 4.18549L20.7592 3.23468L19.8131 3.20433L19.834 2.55273L20.9313 2.58793C21.1905 2.59625 21.3993 2.80586 21.4066 3.06511L21.4377 4.16713L20.786 4.18549ZM18.4566 4.15795L18.9176 3.69702L20.2832 5.06271L19.8222 5.52364L18.4566 4.15795ZM14.0824 10.1583C13.8214 10.1583 13.6091 9.94599 13.6091 9.68505C13.6091 9.42412 13.8214 9.21177 14.0824 9.21177C14.3434 9.21177 14.5557 9.42408 14.5557 9.68505C14.5557 9.94603 14.3434 10.1583 14.0824 10.1583Z" fill="black"/>
</svg>
