<svg width="24" height="24" viewBox="0 0 24 24" fill="none" xmlns="http://www.w3.org/2000/svg">
<path d="M19.3202 19.0109L18.1188 12.3299C18.0615 12.0115 17.7563 11.7992 17.4377 11.8571L17.2338 11.894L16.2043 5.90622C15.9435 4.06028 14.5197 2.43243 12.4936 2.07153C10.0059 1.6284 7.65195 3.292 7.2191 5.73755L6.12953 11.8945C5.91238 11.8552 5.71378 11.793 5.48429 11.9523C5.42104 11.9962 5.36706 12.0522 5.32544 12.117C5.28382 12.1818 5.25539 12.2541 5.24175 12.3299L4.0403 19.0109C3.7928 20.3873 4.71093 21.7098 6.08699 21.9589C7.46433 22.2083 8.7891 21.2966 9.03848 19.9098L9.82242 15.5502L9.82246 15.5499L9.8225 15.5497L10.239 13.2335C10.2963 12.9152 10.0849 12.6108 9.76676 12.5532L9.58328 12.5199L9.90711 10.6998C11.0103 11.1724 12.2915 11.2038 13.4568 10.7161L13.7774 12.5199L13.5937 12.5531C13.2756 12.6108 13.0642 12.9152 13.1215 13.2334L14.322 19.9097C14.5708 21.2934 15.8929 22.2089 17.2735 21.9589C18.6495 21.7098 19.5677 20.3873 19.3202 19.0109ZM14.3784 13.6021L17.0692 13.1147L17.2799 14.2865L14.5879 14.7672L14.3784 13.6021ZM8.98207 13.6021L8.77254 14.7672L6.08054 14.2865L6.29125 13.1147L8.98207 13.6021ZM7.88508 19.7023C7.75117 20.4469 7.04011 20.9403 6.29578 20.8058C5.55484 20.6716 5.06038 19.9595 5.19367 19.2184L5.87312 15.4399L8.56512 15.9206L7.88508 19.7023ZM11.0936 5.71427C11.8256 5.21056 12.8366 5.83087 12.6802 6.70915C12.584 7.24951 12.0571 7.60911 11.5058 7.51111C10.618 7.35298 10.3612 6.21837 11.0936 5.71427ZM10.1199 9.50365L10.3443 8.2422C11.6359 9.23834 13.5479 8.5208 13.8339 6.91462C14.1716 5.01868 12.0178 3.65575 10.4292 4.74888C9.59594 5.32251 9.51473 6.20896 9.52664 6.14775L8.43008 12.3111L7.28258 12.1033C8.83723 3.31844 8.19555 6.94247 8.37371 5.94208C8.89746 3.00126 12.7484 2.16426 14.4657 4.61524C14.9826 5.35286 15.1808 6.24474 15.0237 7.12654C14.6251 9.36482 12.1373 10.5726 10.1199 9.50365ZM14.534 10.0801C14.9293 9.76693 15.2697 9.39005 15.5411 8.96498L16.0807 12.1028L14.9305 12.3111L14.534 10.0801ZM17.0647 20.8058C16.3205 20.9405 15.6093 20.4468 15.4754 19.7023L14.7953 15.9206L17.4873 15.4399L18.1668 19.2183C18.3001 19.9595 17.8057 20.6716 17.0647 20.8058Z" fill="black"/>
</svg>
