<svg width="24" height="24" viewBox="0 0 24 24" fill="none" xmlns="http://www.w3.org/2000/svg">
<mask id="mask0_751_1720" style="mask-type:alpha" maskUnits="userSpaceOnUse" x="0" y="0" width="24" height="24">
<rect width="24" height="24" fill="#D9D9D9"/>
</mask>
<g mask="url(#mask0_751_1720)">
<path d="M14.4636 17.7264C14.5819 17.6125 14.6468 17.4807 14.6581 17.3311C14.6695 17.1817 14.6161 17.0478 14.4978 16.9294L10.9872 13.1667L11.015 13.0833H11.2928C12.3781 13.0833 13.2638 12.8063 13.9497 12.2522C14.6356 11.698 15.0242 10.9565 15.1153 10.0278H15.7372C15.8667 10.0278 15.9734 9.98352 16.0575 9.895C16.1418 9.8063 16.1839 9.6987 16.1839 9.57222C16.1839 9.44574 16.1418 9.34009 16.0575 9.25528C15.9734 9.17065 15.8667 9.12833 15.7372 9.12833H15.0875C15.0319 8.73648 14.9098 8.38 14.7211 8.05889C14.5324 7.73759 14.2934 7.45658 14.0042 7.21583H15.7372C15.8667 7.21583 15.9734 7.17157 16.0575 7.08306C16.1418 6.99435 16.1839 6.88676 16.1839 6.76028C16.1839 6.6338 16.1418 6.52815 16.0575 6.44333C15.9734 6.35852 15.8667 6.31611 15.7372 6.31611H8.30139C8.1675 6.31611 8.05315 6.36389 7.95833 6.45944C7.86352 6.55481 7.81611 6.66982 7.81611 6.80445C7.81611 6.93908 7.86352 7.05195 7.95833 7.14306C8.05315 7.23435 8.1675 7.28 8.30139 7.28H11.3589C12.0826 7.28 12.6792 7.44306 13.1486 7.76917C13.6179 8.09546 13.9081 8.54852 14.0192 9.12833H8.26278C8.13333 9.12833 8.02657 9.17259 7.9425 9.26111C7.85824 9.34963 7.81611 9.45713 7.81611 9.58361C7.81611 9.71028 7.85824 9.81593 7.9425 9.90056C8.02657 9.98537 8.13333 10.0278 8.26278 10.0278H14.0469C13.9644 10.6689 13.6837 11.1735 13.205 11.5417C12.7265 11.9098 12.1047 12.0939 11.3397 12.0939H10.5619C10.3618 12.0939 10.1885 12.1424 10.0422 12.2394C9.89593 12.3363 9.79065 12.4652 9.72639 12.6261C9.66232 12.787 9.64167 12.9491 9.66445 13.1122C9.68722 13.2754 9.76778 13.4353 9.90611 13.5919L13.6881 17.6986C13.8019 17.8169 13.9302 17.8796 14.0728 17.8867C14.2152 17.8939 14.3455 17.8405 14.4636 17.7264ZM12.0036 22C10.6208 22 9.32074 21.7376 8.10333 21.2128C6.88611 20.688 5.82722 19.9757 4.92667 19.0761C4.02611 18.1765 3.31324 17.1185 2.78806 15.9022C2.26269 14.6861 2 13.3866 2 12.0036C2 10.6208 2.26241 9.32074 2.78722 8.10333C3.31204 6.88611 4.02426 5.82722 4.92389 4.92667C5.82352 4.02611 6.88148 3.31324 8.09778 2.78806C9.31389 2.26269 10.6134 2 11.9964 2C13.3792 2 14.6793 2.26241 15.8967 2.78722C17.1139 3.31204 18.1728 4.02426 19.0733 4.92389C19.9739 5.82352 20.6868 6.88148 21.2119 8.09778C21.7373 9.31389 22 10.6134 22 11.9964C22 13.3792 21.7376 14.6793 21.2128 15.8967C20.688 17.1139 19.9757 18.1728 19.0761 19.0733C18.1765 19.9739 17.1185 20.6868 15.9022 21.2119C14.6861 21.7373 13.3866 22 12.0036 22ZM12 20.8889C14.4815 20.8889 16.5833 20.0278 18.3056 18.3056C20.0278 16.5833 20.8889 14.4815 20.8889 12C20.8889 9.51852 20.0278 7.41667 18.3056 5.69444C16.5833 3.97222 14.4815 3.11111 12 3.11111C9.51852 3.11111 7.41667 3.97222 5.69444 5.69444C3.97222 7.41667 3.11111 9.51852 3.11111 12C3.11111 14.4815 3.97222 16.5833 5.69444 18.3056C7.41667 20.0278 9.51852 20.8889 12 20.8889Z" fill="black"/>
</g>
</svg>
