<svg width="24" height="24" viewBox="0 0 24 24" fill="none" xmlns="http://www.w3.org/2000/svg">
<path d="M13.3267 6.28992C13.1835 6.29348 13.041 6.26737 12.9084 6.21322C12.7654 6.13823 12.6426 6.03012 12.55 5.89792C12.4574 5.76571 12.3978 5.61326 12.3762 5.45332C12.3546 5.29337 12.3716 5.13057 12.4257 4.97854C12.4799 4.8265 12.5697 4.68965 12.6876 4.57941C12.8055 4.46918 12.9481 4.38878 13.1034 4.34492C13.2587 4.30107 13.4223 4.29504 13.5804 4.32733C13.7386 4.35963 13.8867 4.42932 14.0124 4.53057C14.1381 4.63182 14.2377 4.76169 14.3029 4.90932C14.4041 5.1574 14.4041 5.43522 14.3029 5.6833C14.2218 5.87217 14.0848 6.03161 13.9102 6.1401C13.7356 6.24858 13.532 6.30088 13.3267 6.28992Z" fill="black"/>
<path d="M10.9002 21.9995C10.4711 21.9973 10.0468 21.9096 9.65207 21.7415L3.8926 19.2453C3.514 19.0829 3.17126 18.8473 2.8841 18.5519C2.59693 18.2566 2.37102 17.9074 2.21937 17.5243C2.06772 17.1413 1.99333 16.7321 2.00047 16.3202C2.00761 15.9083 2.09615 15.5019 2.26098 15.1244L6.44462 5.48811C6.60481 5.11218 6.83752 4.7715 7.12944 4.48555C7.42137 4.19961 7.76679 3.974 8.14596 3.82163L12.2738 2.2179C13.0479 1.9137 13.9109 1.92853 14.6741 2.25914C15.4373 2.58976 16.0384 3.20924 16.3459 3.982L17.9775 8.10288C18.1325 8.48589 18.2093 8.89606 18.2033 9.3092C18.1973 9.72235 18.1087 10.1301 17.9426 10.5085L13.759 20.1378C13.4295 20.9019 12.81 21.5039 12.0367 21.8113C11.6724 21.9424 11.2873 22.0062 10.9002 21.9995ZM3.53699 15.6753C3.35652 16.1001 3.35043 16.5788 3.52004 17.0081C3.68965 17.4373 4.02135 17.7826 4.44345 17.9693L10.2099 20.4586C10.4195 20.5497 10.6451 20.5985 10.8736 20.6022C11.1022 20.6059 11.3292 20.5645 11.5417 20.4803C11.7542 20.3961 11.9479 20.2707 12.1119 20.1114C12.2758 19.9522 12.4067 19.7621 12.4969 19.5521L16.6806 9.91579C16.8546 9.48891 16.8546 9.01088 16.6806 8.584L15.049 4.45615C14.8782 4.02762 14.5445 3.68426 14.1211 3.50129C13.6976 3.31831 13.2189 3.31065 12.7898 3.47996L8.66195 5.11158C8.4485 5.19583 8.25405 5.32188 8.09001 5.48234C7.92596 5.64279 7.79564 5.8344 7.70668 6.04593L3.53699 15.6753Z" fill="black"/>
<path d="M14.4702 21.0441C14.14 21.0428 13.8124 20.9862 13.501 20.8767C13.3321 20.8102 13.1958 20.6804 13.1211 20.515C13.0464 20.3496 13.0392 20.1615 13.1009 19.9908C13.1626 19.8201 13.2885 19.6803 13.4518 19.6009C13.615 19.5215 13.8028 19.509 13.9751 19.5659C14.3273 19.6923 14.7145 19.6797 15.0577 19.5307C15.401 19.3818 15.6746 19.1076 15.8229 18.764L19.5324 10.1527C19.6789 9.79041 19.6789 9.38537 19.5324 9.0231L18.096 5.35545C17.9665 5.02709 17.7238 4.7559 17.4118 4.59092C17.0997 4.42595 16.7389 4.37808 16.3947 4.45597C16.2097 4.4948 16.017 4.45858 15.8587 4.35528C15.7005 4.25198 15.5898 4.09005 15.551 3.90512C15.5121 3.72019 15.5483 3.52741 15.6516 3.36919C15.755 3.21096 15.9169 3.10025 16.1018 3.06142C16.7723 2.91594 17.4728 3.01524 18.0764 3.34137C18.6801 3.6675 19.1471 4.19891 19.3929 4.83947L20.8502 8.49317C20.9888 8.84386 21.0565 9.21856 21.0493 9.59557C21.0421 9.97258 20.9602 10.3444 20.8084 10.6896L17.0919 19.287C16.8742 19.8038 16.5099 20.2456 16.044 20.5578C15.5781 20.87 15.031 21.0391 14.4702 21.0441Z" fill="black"/>
<mask id="mask0_831_2453" style="mask-type:alpha" maskUnits="userSpaceOnUse" x="4" y="7" width="13" height="13">
<rect x="7.71484" y="7.3313" width="9.27485" height="9.27485" transform="rotate(23.0976 7.71484 7.3313)" fill="#D9D9D9"/>
</mask>
<g mask="url(#mask0_831_2453)">
<path d="M9.20994 16.8139L8.0097 13.542C7.98693 13.4854 7.97674 13.4273 7.97911 13.3679C7.98148 13.3085 7.99491 13.2501 8.0194 13.1927L8.13181 12.9291C8.18333 12.8083 8.26963 12.7236 8.39071 12.675C8.51176 12.6262 8.63269 12.6276 8.75349 12.6792L9.71256 13.0882C9.97294 13.1992 10.2322 13.2217 10.4905 13.1556C10.7487 13.0894 10.9526 12.9512 11.1022 12.741L8.77235 11.7474C8.64147 11.6916 8.54979 11.5984 8.49729 11.4678C8.44476 11.3371 8.4464 11.2064 8.50222 11.0755C8.55804 10.9446 8.65126 10.853 8.78189 10.8005C8.91249 10.7479 9.04322 10.7496 9.1741 10.8054L11.4274 11.7664C11.4157 11.552 11.3394 11.3537 11.1983 11.1716C11.0572 10.9895 10.879 10.8525 10.6636 10.7607L9.41947 10.23C9.2886 10.1742 9.19691 10.081 9.14442 9.95046C9.09189 9.8198 9.09353 9.68903 9.14934 9.55816C9.20513 9.42735 9.29836 9.33567 9.42902 9.28314C9.55961 9.23059 9.69035 9.23222 9.82122 9.28803L13.376 10.8041C13.5068 10.8599 13.5985 10.9531 13.651 11.0837C13.7035 11.2144 13.7019 11.3451 13.6461 11.476C13.5903 11.6068 13.497 11.6985 13.3664 11.7511C13.2358 11.8036 13.1051 11.8019 12.9742 11.7461L12.3452 11.4778C12.3779 11.5752 12.4028 11.6897 12.4198 11.8211C12.4368 11.9525 12.4395 12.0765 12.4278 12.193L12.7288 12.3214C12.8597 12.3772 12.9514 12.4705 13.0038 12.6011C13.0564 12.7317 13.0548 12.8624 12.999 12.9933C12.9431 13.1242 12.8499 13.2159 12.7192 13.2684C12.5887 13.3209 12.458 13.3192 12.3271 13.2634L12.0682 13.153C11.8017 13.6187 11.419 13.9366 10.9202 14.1068C10.4215 14.2769 9.92164 14.263 9.42057 14.0651L9.27838 14.0045L10.1849 16.4575C10.2632 16.6714 10.2194 16.8565 10.0535 17.0127C9.88768 17.169 9.70095 17.2028 9.49335 17.1143C9.42581 17.0855 9.36787 17.0453 9.31953 16.9938C9.27122 16.9423 9.23468 16.8823 9.20994 16.8139Z" fill="black"/>
</g>
</svg>
