<svg width="24" height="24" viewBox="0 0 24 24" fill="none" xmlns="http://www.w3.org/2000/svg">
<path d="M22.9147 10.2262L20.6427 6.26086C20.5676 6.12963 20.4487 6.02906 20.3068 5.97679C20.3062 5.97658 20.3058 5.97628 20.3053 5.9761L12.292 3.03936C12.1499 2.98731 11.9941 2.98687 11.8517 3.03812L3.69812 5.97486L3.69756 5.9752C3.55383 6.02699 3.43321 6.12823 3.35729 6.26081L1.08528 10.2262C1.03916 10.3067 1.01096 10.3962 1.00261 10.4887C0.994267 10.5811 1.00597 10.6742 1.03692 10.7616C1.06787 10.8491 1.11735 10.9289 1.18196 10.9955C1.24657 11.062 1.32479 11.1139 1.41128 11.1475L3.272 11.8698V16.7987C3.27201 16.9313 3.31293 17.0607 3.38919 17.1692C3.46545 17.2778 3.57333 17.3601 3.69812 17.4051L11.7897 20.3194C11.8746 20.3592 11.9672 20.3798 12.061 20.3799C12.0624 20.3799 12.0638 20.3797 12.0652 20.3797C12.0669 20.3797 12.0685 20.3799 12.0701 20.3799C12.1441 20.3799 12.218 20.3672 12.2886 20.3418L20.4422 17.4051C20.567 17.3601 20.6748 17.2778 20.7511 17.1692C20.8274 17.0607 20.8683 16.9313 20.8683 16.7987V11.8153L22.5887 11.1475C22.6752 11.1139 22.7534 11.0621 22.818 10.9955C22.8827 10.9289 22.9321 10.8491 22.9631 10.7617C22.994 10.6742 23.0057 10.5811 22.9974 10.4887C22.989 10.3962 22.9608 10.3067 22.9147 10.2262ZM12.0683 4.33027L18.2135 6.58239L12.0593 8.84637L5.81343 6.58312L12.0683 4.33027ZM4.2064 7.37186L11.1162 9.87573L9.38319 12.8593L2.57625 10.2169L4.2064 7.37186ZM4.56106 12.3702L9.43041 14.2604C9.50471 14.2893 9.58374 14.3041 9.66347 14.3042C9.77636 14.3042 9.88727 14.2745 9.98511 14.2182C10.083 14.1619 10.1643 14.0809 10.221 13.9833L11.4164 11.9253V18.8149L4.56106 16.3458V12.3702ZM19.5792 16.3458L12.7055 18.8215V12.0365L13.7719 13.9707C13.8472 14.1074 13.9696 14.2121 14.1163 14.2654C14.263 14.3186 14.4241 14.3169 14.5696 14.2604L19.5792 12.3157V16.3458ZM14.6286 12.8547L12.9877 9.87839L19.7949 7.37418L21.4237 10.2169L14.6286 12.8547Z" fill="black"/>
</svg>
