<svg width="24" height="24" viewBox="0 0 24 24" fill="none" xmlns="http://www.w3.org/2000/svg">
<path fill-rule="evenodd" clip-rule="evenodd" d="M0.63 19.37C1.05 19.79 1.5631 20 2.1693 20H10.4076C10.663 20 10.8769 19.9138 11.0493 19.7414C11.2215 19.5692 11.3076 19.3554 11.3076 19.1C11.3076 18.8446 11.2215 18.6308 11.0493 18.4586C10.8769 18.2862 10.663 18.2 10.4076 18.2H2.1693C2.0769 18.2 1.9923 18.1615 1.9155 18.0845C1.8385 18.0077 1.8 17.9231 1.8 17.8307V4.1693C1.8 4.0615 1.8346 3.973 1.9038 3.9038C1.973 3.8346 2.0615 3.8 2.1693 3.8H8.0214L10.4214 6.2H20.6307C20.7231 6.2 20.8077 6.2385 20.8845 6.3155C20.9615 6.3923 21 6.4769 21 6.5693V8.7845C21 9.0399 21.0862 9.2538 21.2586 9.4262C21.4308 9.5984 21.6446 9.6845 21.9 9.6845C22.1554 9.6845 22.3692 9.5984 22.5414 9.4262C22.7138 9.2538 22.8 9.0399 22.8 8.7845V6.5693C22.8 5.9631 22.59 5.45 22.17 5.03C21.75 4.61 21.2369 4.4 20.6307 4.4H11.1576L9.39 2.6324C9.193 2.4354 8.9611 2.2808 8.6943 2.1686C8.4273 2.0562 8.1492 2 7.86 2H2.1693C1.5631 2 1.05 2.21 0.63 2.63C0.21 3.05 0 3.5631 0 4.1693V17.8307C0 18.4369 0.21 18.95 0.63 19.37ZM13.9386 19.6814V21.3152C13.9386 21.6246 14.042 21.8827 14.2488 22.0895C14.4558 22.2965 14.7139 22.4 15.0231 22.4H16.6569C16.8015 22.4 16.9392 22.3738 17.07 22.3214C17.2008 22.2692 17.3223 22.1869 17.4345 22.0745L23.5938 15.9152C23.7354 15.766 23.8385 15.6014 23.9031 15.4214C23.9677 15.2414 24 15.0645 24 14.8907C24 14.7169 23.9646 14.5431 23.8938 14.3693C23.823 14.1955 23.723 14.0339 23.5938 13.8845L22.4838 12.7631C22.3422 12.6215 22.1826 12.5153 22.005 12.4445C21.8272 12.3739 21.6453 12.3386 21.4593 12.3386C21.2853 12.3386 21.1114 12.3689 20.9376 12.4295C20.7638 12.4903 20.6023 12.5953 20.4531 12.7445L14.2638 18.9038C14.1516 19.0162 14.0693 19.1378 14.0169 19.2686C13.9647 19.3992 13.9386 19.5368 13.9386 19.6814ZM16.5093 20.9693H15.3693V19.8293L19.2945 15.9224L20.4045 17.0552L16.5093 20.9693ZM4.79995 8.6001C4.46858 8.6001 4.19995 8.86873 4.19995 9.2001C4.19995 9.53147 4.46858 9.8001 4.79995 9.8001H14.4C14.7313 9.8001 15 9.53147 15 9.2001C15 8.86873 14.7313 8.6001 14.4 8.6001H4.79995ZM4.19995 11.6C4.19995 11.2686 4.46858 11 4.79995 11H12C12.3313 11 12.6 11.2686 12.6 11.6C12.6 11.9314 12.3313 12.2 12 12.2H4.79995C4.46858 12.2 4.19995 11.9314 4.19995 11.6ZM4.79995 13.3999C4.46858 13.3999 4.19995 13.6685 4.19995 13.9999C4.19995 14.3313 4.46858 14.5999 4.79995 14.5999H9.59995C9.93132 14.5999 10.2 14.3313 10.2 13.9999C10.2 13.6685 9.93132 13.3999 9.59995 13.3999H4.79995Z" fill="black"/>
</svg>
