<svg width="20" height="18" viewBox="0 0 20 18" fill="none" xmlns="http://www.w3.org/2000/svg">
<path d="M8.00195 12.7544L7.59375 12.6782C7.03815 12.5745 6.50442 12.3245 6.10938 11.9468L6.1084 11.9448L6.07617 11.8999C6.06858 11.8828 6.06398 11.8639 6.06348 11.8452C6.06302 11.8264 6.06643 11.8071 6.07324 11.7896C6.08005 11.772 6.09052 11.7563 6.10352 11.7427C6.11654 11.729 6.13215 11.718 6.14941 11.7104C6.16662 11.7029 6.18532 11.6981 6.2041 11.6978C6.22275 11.6974 6.2414 11.7008 6.25879 11.7075C6.27619 11.7143 6.29216 11.7249 6.30566 11.7378L6.30762 11.7388C6.80643 12.2157 7.56455 12.4682 8.25684 12.4438C8.95799 12.4188 9.5365 12.1167 9.74707 11.5513V11.5503C9.8306 11.3254 9.87236 11.0963 9.85156 10.8638C9.8305 10.6285 9.74784 10.4198 9.62695 10.2339C9.36069 9.82471 8.85088 9.43902 8.04785 9.10596C7.25821 8.77832 6.69274 8.38095 6.39062 7.91455H6.3916C6.08334 7.43817 6.05903 6.90662 6.32031 6.35303H6.32129C6.55926 5.84838 7.04188 5.51889 7.60938 5.39404L8.00195 5.30713V4.21436C8.00195 4.17645 8.01721 4.13965 8.04395 4.11279C8.07078 4.08596 8.10757 4.07085 8.14551 4.0708C8.18351 4.0708 8.2202 4.08592 8.24707 4.11279C8.27392 4.13966 8.28906 4.17637 8.28906 4.21436V5.31299L8.68066 5.3999C9.10066 5.49334 9.49266 5.68448 9.8252 5.95752L9.82617 5.9585C9.84022 5.96999 9.85311 5.98437 9.8623 6.00146C9.87116 6.01799 9.87605 6.03652 9.87793 6.05518C9.87978 6.07382 9.87844 6.0929 9.87305 6.11084C9.86763 6.12872 9.85848 6.14519 9.84668 6.15967C9.83477 6.17425 9.82029 6.18689 9.80371 6.1958C9.78715 6.2047 9.76871 6.20954 9.75 6.21143C9.73131 6.2133 9.71233 6.21195 9.69434 6.20654C9.67644 6.20114 9.66001 6.19197 9.64551 6.18018C9.09366 5.72942 8.43216 5.57002 7.85547 5.64209C7.27426 5.71474 6.79582 6.01826 6.58008 6.47412V6.4751C6.47716 6.69347 6.41788 6.91882 6.42871 7.15088C6.43979 7.38654 6.52122 7.58731 6.63184 7.7583V7.75928C6.88815 8.15464 7.39155 8.52342 8.1582 8.84131C8.98673 9.18501 9.55659 9.60006 9.86719 10.0776C10.1829 10.5629 10.2212 11.0983 10.0156 11.6509C9.7977 12.2363 9.28961 12.561 8.69043 12.6812L8.28906 12.7612V13.7856C8.28906 13.8236 8.27392 13.8603 8.24707 13.8872C8.2202 13.9141 8.18351 13.9292 8.14551 13.9292C8.10757 13.9292 8.07078 13.914 8.04395 13.8872C8.01721 13.8604 8.00195 13.8235 8.00195 13.7856V12.7544Z" fill="black" stroke="black"/>
<path d="M3.53027 0.643799H12.667C13.8394 0.64394 14.7891 1.59463 14.7891 2.76685V15.2336C14.789 16.4058 13.8393 17.3565 12.667 17.3567H3.53027C2.35801 17.3567 1.40724 16.4059 1.40723 15.2336V2.76685L1.41797 2.54907C1.52684 1.47891 2.43139 0.643799 3.53027 0.643799ZM3.53027 0.929932C3.28916 0.929932 3.04991 0.978285 2.82715 1.07056C2.60448 1.16283 2.40188 1.29758 2.23145 1.46802C2.06101 1.63845 1.92625 1.84105 1.83398 2.06372C1.74171 2.28649 1.69336 2.52573 1.69336 2.76685V15.2336C1.69336 15.4747 1.74178 15.7131 1.83398 15.9358C1.9262 16.1584 2.06109 16.3611 2.23145 16.5315C2.40191 16.702 2.60442 16.8377 2.82715 16.9299C3.04991 17.0222 3.28916 17.0696 3.53027 17.0696H12.667C13.1539 17.0695 13.6206 16.8758 13.9648 16.5315C14.3091 16.1872 14.5029 15.7205 14.5029 15.2336V2.76685C14.5029 2.27989 14.3092 1.81235 13.9648 1.46802C13.6206 1.12386 13.1538 0.930001 12.667 0.929932H3.53027Z" fill="black" stroke="black"/>
<path d="M17.1636 5.29565H18.0737C18.3741 5.29576 18.6621 5.4153 18.8745 5.62769C19.0869 5.84011 19.2065 6.12809 19.2065 6.42847V14.3572C19.2064 14.6575 19.0869 14.9456 18.8745 15.158C18.6621 15.3703 18.3741 15.4899 18.0737 15.49H17.1636C17.1256 15.49 17.0889 15.4748 17.062 15.448C17.0351 15.4211 17.02 15.3844 17.02 15.3464C17.02 15.3085 17.0352 15.2717 17.062 15.2449C17.0889 15.2181 17.1256 15.2029 17.1636 15.2029H18.0737C18.2981 15.2028 18.5128 15.1135 18.6714 14.9548C18.83 14.7962 18.9193 14.5815 18.9194 14.3572V6.42847C18.9194 6.20405 18.8301 5.98852 18.6714 5.82983C18.5128 5.67143 18.2979 5.58189 18.0737 5.58179H17.1636C17.1256 5.58179 17.0889 5.56667 17.062 5.53979C17.0353 5.513 17.0201 5.47701 17.02 5.43921C17.02 5.40121 17.0351 5.36452 17.062 5.33765C17.0889 5.31077 17.1256 5.29565 17.1636 5.29565Z" fill="black" stroke="black"/>
</svg>
