<svg width="24" height="24" viewBox="0 0 24 24" fill="none" xmlns="http://www.w3.org/2000/svg">
<path d="M18.9214 5.48571L16.6571 3.22143C15.876 2.44159 14.8181 2.00248 13.7143 2H6.57143C5.62423 2 4.71582 2.37627 4.04605 3.04605C3.37627 3.71582 3 4.62423 3 5.57143V18.4286C3 19.3758 3.37627 20.2842 4.04605 20.954C4.71582 21.6237 5.62423 22 6.57143 22H16.5714C17.5186 22 18.427 21.6237 19.0968 20.954C19.7666 20.2842 20.1429 19.3758 20.1429 18.4286V8.42857C20.144 7.88165 20.0366 7.33994 19.8269 6.83479C19.6173 6.32965 19.3095 5.87111 18.9214 5.48571ZM17.9143 6.49286C18.0264 6.60831 18.1291 6.73251 18.2214 6.86429L18.2857 7C18.4258 7.22186 18.534 7.46231 18.6071 7.71429H15.1429C14.9534 7.71429 14.7717 7.63903 14.6378 7.50508C14.5038 7.37112 14.4286 7.18944 14.4286 7V3.53571C14.5379 3.56148 14.6453 3.5949 14.75 3.63571C14.8941 3.70055 15.0326 3.77699 15.1643 3.86429L15.2643 3.92857C15.3976 4.0162 15.522 4.11668 15.6357 4.22857L17.9143 6.49286ZM16.5714 20.5714H6.57143C6.00311 20.5714 5.45806 20.3457 5.0562 19.9438C4.65434 19.5419 4.42857 18.9969 4.42857 18.4286V5.57143C4.42857 5.00311 4.65434 4.45806 5.0562 4.0562C5.45806 3.65434 6.00311 3.42857 6.57143 3.42857H13V7C13 7.56832 13.2258 8.11337 13.6276 8.51523C14.0295 8.91709 14.5745 9.14286 15.1429 9.14286H18.7143V18.4286C18.7143 18.9969 18.4885 19.5419 18.0867 19.9438C17.6848 20.3457 17.1397 20.5714 16.5714 20.5714Z" fill="black"/>
<path d="M15.8571 16.2858C15.6677 16.2858 15.486 16.361 15.352 16.495C15.2181 16.6289 15.1428 16.8106 15.1428 17.0001C15.1428 17.1895 15.0676 17.3712 14.9336 17.5051C14.7997 17.6391 14.618 17.7143 14.4286 17.7143H8.71427C8.52483 17.7143 8.34315 17.6391 8.20919 17.5051C8.07524 17.3712 7.99998 17.1895 7.99998 17.0001C7.99998 16.8106 7.92473 16.6289 7.79077 16.495C7.65682 16.361 7.47514 16.2858 7.2857 16.2858C7.09626 16.2858 6.91458 16.361 6.78062 16.495C6.64667 16.6289 6.57141 16.8106 6.57141 17.0001C6.57141 17.5684 6.79718 18.1134 7.19904 18.5153C7.6009 18.9171 8.14595 19.1429 8.71427 19.1429H14.4286C14.9969 19.1429 15.5419 18.9171 15.9438 18.5153C16.3456 18.1134 16.5714 17.5684 16.5714 17.0001C16.5714 16.8106 16.4962 16.6289 16.3622 16.495C16.2282 16.361 16.0466 16.2858 15.8571 16.2858Z" fill="black"/>
<path d="M10.6358 15.9C10.8846 16.1469 11.221 16.2854 11.5715 16.2854C11.922 16.2854 12.2584 16.1469 12.5072 15.9L14.2215 14.1857C14.356 14.0512 14.4316 13.8688 14.4316 13.6786C14.4316 13.4883 14.356 13.3059 14.2215 13.1714C14.087 13.0369 13.9046 12.9613 13.7143 12.9613C13.5241 12.9613 13.3417 13.0369 13.2072 13.1714L12.2858 14.1V11.2857C12.2858 11.0963 12.2105 10.9146 12.0766 10.7806C11.9426 10.6467 11.7609 10.5714 11.5715 10.5714C11.3821 10.5714 11.2004 10.6467 11.0664 10.7806C10.9325 10.9146 10.8572 11.0963 10.8572 11.2857V14.1L9.93578 13.1714C9.80127 13.0369 9.61885 12.9613 9.42863 12.9613C9.23842 12.9613 9.05599 13.0369 8.92149 13.1714C8.78699 13.3059 8.71143 13.4883 8.71143 13.6786C8.71143 13.8688 8.78699 14.0512 8.92149 14.1857L10.6358 15.9Z" fill="black"/>
</svg>
