<svg width="24" height="24" viewBox="0 0 24 24" fill="none" xmlns="http://www.w3.org/2000/svg">
<path d="M6.14132 13.1758C5.78776 13.1758 5.50134 12.8894 5.50134 12.5359V2.63986C5.50134 2.2863 5.78776 2 6.14132 2H21.3604C21.714 2 22.0004 2.2863 22.0004 2.63986C22.0004 2.99354 21.714 3.27983 21.3604 3.27983H6.78129V12.5362C6.78129 12.8894 6.495 13.1758 6.14132 13.1758ZM21.3607 22H11.0812C10.7276 22 10.4412 21.7137 10.4412 21.36C10.4412 21.0065 10.7279 20.7206 11.0812 20.7206H20.7209V4.76463C20.7209 4.41111 21.0072 4.12469 21.3608 4.12469C21.7143 4.12469 22.0008 4.41111 22.0008 4.76463V21.3605C22.0004 21.7137 21.714 22 21.3608 22L21.3607 22Z" fill="black"/>
<path d="M14.476 7.98291H8.15368C7.8 7.98291 7.5137 7.69666 7.5137 7.34294C7.5137 6.98942 7.8 6.703 8.15368 6.703H14.4761C14.8296 6.703 15.1161 6.98942 15.1161 7.34294C15.1161 7.69666 14.8296 7.98291 14.4761 7.98291H14.476ZM14.476 12.7025H8.15368C7.8 12.7025 7.5137 12.4163 7.5137 12.0626C7.5137 11.709 7.8 11.4226 8.15368 11.4226H14.4761C14.8296 11.4226 15.1161 11.709 15.1161 12.0626C15.1161 12.4163 14.8296 12.7025 14.4761 12.7025H14.476ZM14.476 17.4233H12.2372C11.8835 17.4233 11.5973 17.137 11.5973 16.7833C11.5973 16.4298 11.8835 16.1434 12.2372 16.1434H14.476C14.8296 16.1434 15.116 16.4298 15.116 16.7833C15.116 17.137 14.8296 17.4233 14.476 17.4233ZM17.1884 8.91907C17.1043 8.91918 17.021 8.9027 16.9433 8.87057C16.8656 8.83844 16.7951 8.7913 16.7356 8.73184L15.7525 7.74869C15.5025 7.4983 15.5025 7.09348 15.7525 6.84352C16.0024 6.59359 16.408 6.59359 16.6576 6.84352L17.188 7.37423L18.8875 5.67451C19.1374 5.42458 19.5429 5.42458 19.7926 5.67451C20.0426 5.92478 20.0426 6.32975 19.7926 6.57968L17.6405 8.73184C17.5812 8.79132 17.5107 8.83849 17.4331 8.87062C17.3555 8.90275 17.2723 8.91922 17.1884 8.91907ZM17.1884 13.7222C17.1043 13.7222 17.021 13.7056 16.9433 13.6735C16.8657 13.6413 16.7951 13.5941 16.7356 13.5347L15.7525 12.5512C15.5025 12.3013 15.5025 11.896 15.7528 11.6463C16.0027 11.3964 16.408 11.3961 16.6576 11.6466L17.188 12.177L18.8875 10.4779C19.1374 10.228 19.5429 10.228 19.7926 10.4779C20.0426 10.7283 20.0426 11.1336 19.7926 11.3831L17.6405 13.5349C17.5205 13.6548 17.3579 13.7221 17.1884 13.7222ZM17.1884 18.525C17.1043 18.525 17.021 18.5085 16.9433 18.4763C16.8656 18.4441 16.795 18.397 16.7356 18.3375L15.7525 17.354C15.5025 17.104 15.5025 16.6988 15.7528 16.4492C16.0027 16.1992 16.408 16.1989 16.6576 16.4494L17.188 16.9799L18.8875 15.2809C19.1374 15.031 19.5429 15.031 19.7926 15.2809C20.0426 15.5312 20.0426 15.9364 19.7926 16.1861L17.6405 18.3379C17.5811 18.3973 17.5106 18.4444 17.4331 18.4765C17.3555 18.5086 17.2723 18.5251 17.1884 18.525V18.525ZM10.4334 17.8688C10.1426 17.8688 9.87938 17.6691 9.81086 17.3734L9.22249 14.8444H3.8528L3.26349 17.3737C3.18369 17.7179 2.83883 17.934 2.49488 17.8518C2.15062 17.7718 1.93667 17.4275 2.01683 17.0833L2.72164 14.0591C2.75436 13.9183 2.83379 13.7928 2.94699 13.703C3.06018 13.6131 3.20047 13.5643 3.34498 13.5644H9.73074C9.8753 13.5644 10.0156 13.6133 10.1288 13.7032C10.242 13.7931 10.3214 13.9187 10.3541 14.0596L11.0574 17.0836C11.1375 17.4278 10.9233 17.7718 10.579 17.8518C10.5302 17.8637 10.4817 17.8688 10.4335 17.8688H10.4334Z" fill="black"/>
<path d="M8.48466 17.8686C8.16407 17.8686 7.88739 17.6283 7.84957 17.3021L7.49816 14.278C7.45753 13.9269 7.70891 13.6094 8.06001 13.5685C8.414 13.529 8.72912 13.7795 8.76971 14.1305L9.12128 17.1545C9.16187 17.5056 8.91038 17.8232 8.55928 17.8641C8.53428 17.8673 8.50892 17.8686 8.48466 17.8686ZM6.53744 17.8682C6.18391 17.8682 5.89746 17.582 5.89746 17.2282V14.2042C5.89746 13.8506 6.18387 13.5642 6.53744 13.5642C6.891 13.5642 7.17741 13.8506 7.17741 14.2042V17.2282C7.17741 17.582 6.89069 17.8682 6.53744 17.8682ZM4.5895 17.8686C4.56445 17.8685 4.53943 17.8669 4.51454 17.8641C4.16344 17.8232 3.91211 17.5053 3.95301 17.1541L4.30594 14.13C4.34715 13.7789 4.66685 13.5307 5.01596 13.5685C5.36706 13.6094 5.61839 13.9272 5.57749 14.2785L5.22456 17.3025C5.18612 17.6288 4.90978 17.8686 4.5895 17.8686ZM9.44371 21.9999H3.56511C3.21143 21.9999 2.92517 21.7136 2.92517 21.3599V18.5092C2.92517 18.1557 3.21143 17.8693 3.56511 17.8693C3.91867 17.8693 4.20508 18.1557 4.20508 18.5092V20.7204H8.80401V18.5095C8.80401 18.156 9.0903 17.8697 9.44398 17.8697C9.79754 17.8697 10.084 18.156 10.084 18.5095V21.3604C10.0832 21.7136 9.79696 21.9999 9.44371 21.9999Z" fill="black"/>
</svg>
