<svg width="24" height="24" viewBox="0 0 24 24" fill="none" xmlns="http://www.w3.org/2000/svg">
<path d="M21 11H17.738C17.9052 10.8181 17.9986 10.5804 18 10.3333V4C18 3.73478 17.8946 3.48043 17.7071 3.29289C17.5196 3.10536 17.2652 3 17 3H10.6667C10.412 3 10.167 3.09767 9.98233 3.273L6.91167 5.42967C6.73937 5.50979 6.59348 5.63733 6.49105 5.79738C6.38863 5.95742 6.33392 6.14332 6.33333 6.33333V11C6.07867 11 5.83367 11.0977 5.649 11.273L2.57833 13.4297C2.40604 13.5098 2.26014 13.6373 2.15772 13.7974C2.05529 13.9574 2.00059 14.1433 2 14.3333V21C2 21.2652 2.10536 21.5196 2.29289 21.7071C2.48043 21.8946 2.73478 22 3 22H10C10.2468 21.9991 10.4844 21.9065 10.6667 21.74C10.849 21.9067 11.0867 21.999 11.3333 22H18.3333C18.6037 22 18.8627 21.8897 19.05 21.6947L21.7027 19.042C21.8927 18.8553 22 18.6 22 18.3333V12C21.9987 11.7352 21.8929 11.4816 21.7057 11.2943C21.5184 11.1071 21.2648 11.0013 21 11ZM18.778 13.4423C18.6404 13.3717 18.488 13.3343 18.3333 13.3333H15.4113L17.078 11.6667H20.8073L18.778 13.4423ZM10 13.3333H7.33333C7.24493 13.3333 7.16014 13.2982 7.09763 13.2357C7.03512 13.1732 7 13.0884 7 13V6.33333C7 6.24493 7.03512 6.16014 7.09763 6.09763C7.16014 6.03512 7.24493 6 7.33333 6H14.3333C14.4217 6 14.5065 6.03512 14.569 6.09763C14.6315 6.16014 14.6667 6.24493 14.6667 6.33333V13C14.667 13.0873 14.6328 13.1711 14.5717 13.2333L14.565 13.24C14.5029 13.3001 14.4198 13.3336 14.3333 13.3333H10ZM15.2423 5.922L17.3333 4.09233V10.3333C17.3331 10.3769 17.3241 10.42 17.307 10.4601C17.2898 10.5002 17.2647 10.5364 17.2333 10.5667L15.3333 12.4697V6.33333C15.3329 6.19127 15.3019 6.05097 15.2423 5.922ZM14.778 5.44233C14.6404 5.37169 14.488 5.33435 14.3333 5.33333H11.9717L14.1143 3.66667H16.8073L14.778 5.44233ZM10.3883 3.80267C10.4052 3.79082 10.4209 3.77742 10.4353 3.76267C10.4656 3.7321 10.5016 3.70787 10.5413 3.69138C10.5811 3.6749 10.6237 3.6665 10.6667 3.66667H13.0283L10.8857 5.33333H8.209L10.3883 3.80267ZM6.055 11.8027C6.07187 11.7908 6.0876 11.7774 6.102 11.7627C6.13225 11.7321 6.16829 11.7079 6.208 11.6914C6.24772 11.6749 6.29033 11.6665 6.33333 11.6667V13C6.33433 13.1137 6.35533 13.2267 6.39467 13.3333H3.87567L6.055 11.8027ZM3 21.3333C2.91159 21.3333 2.82681 21.2982 2.7643 21.2357C2.70179 21.1732 2.66667 21.0884 2.66667 21V14.3333C2.66667 14.2449 2.70179 14.1601 2.7643 14.0976C2.82681 14.0351 2.91159 14 3 14H10C10.0884 14 10.1732 14.0351 10.2357 14.0976C10.2982 14.1601 10.3333 14.2449 10.3333 14.3333V21C10.3333 21.0873 10.2991 21.171 10.238 21.2333L10.232 21.239C10.17 21.2996 10.0867 21.3335 10 21.3333H3ZM11.3333 21.3333C11.2449 21.3333 11.1601 21.2982 11.0976 21.2357C11.0351 21.1732 11 21.0884 11 21V14.3333C11 14.2449 11.0351 14.1601 11.0976 14.0976C11.1601 14.0351 11.2449 14 11.3333 14H18.3333C18.4217 14 18.5065 14.0351 18.569 14.0976C18.6315 14.1601 18.6667 14.2449 18.6667 14.3333V21C18.6661 21.0852 18.6329 21.1669 18.574 21.2283L18.5667 21.2333L18.562 21.2387C18.5008 21.2984 18.4189 21.3323 18.3333 21.3333H11.3333ZM21.2333 18.5667L19.3333 20.4667V14.3333C19.3329 14.1913 19.3019 14.051 19.2423 13.922L21.3333 12.0923V18.3333C21.3331 18.3769 21.3241 18.42 21.307 18.4601C21.2898 18.5002 21.2647 18.5364 21.2333 18.5667Z" fill="black"/>
<path d="M9.66659 10.6665H8.33325C8.15644 10.6665 7.98687 10.7367 7.86185 10.8618C7.73682 10.9868 7.66659 11.1564 7.66659 11.3332V11.9998C7.66659 12.1766 7.73682 12.3462 7.86185 12.4712C7.98687 12.5963 8.15644 12.6665 8.33325 12.6665H9.66659C9.8434 12.6665 10.013 12.5963 10.138 12.4712C10.263 12.3462 10.3333 12.1766 10.3333 11.9998V11.3332C10.3333 11.1564 10.263 10.9868 10.138 10.8618C10.013 10.7367 9.8434 10.6665 9.66659 10.6665ZM8.33325 11.9998V11.3332H9.66659V11.9998H8.33325ZM13.6666 10.6665H12.6666C12.5782 10.6665 12.4934 10.7016 12.4309 10.7641C12.3684 10.8266 12.3333 10.9114 12.3333 10.9998C12.3333 11.0882 12.3684 11.173 12.4309 11.2355C12.4934 11.2981 12.5782 11.3332 12.6666 11.3332H13.6666C13.755 11.3332 13.8398 11.2981 13.9023 11.2355C13.9648 11.173 13.9999 11.0882 13.9999 10.9998C13.9999 10.9114 13.9648 10.8266 13.9023 10.7641C13.8398 10.7016 13.755 10.6665 13.6666 10.6665ZM13.6666 11.9998H12.6666C12.5782 11.9998 12.4934 12.035 12.4309 12.0975C12.3684 12.16 12.3333 12.2448 12.3333 12.3332C12.3333 12.4216 12.3684 12.5064 12.4309 12.5689C12.4934 12.6314 12.5782 12.6665 12.6666 12.6665H13.6666C13.755 12.6665 13.8398 12.6314 13.9023 12.5689C13.9648 12.5064 13.9999 12.4216 13.9999 12.3332C13.9999 12.2448 13.9648 12.16 13.9023 12.0975C13.8398 12.035 13.755 11.9998 13.6666 11.9998ZM5.33325 18.6665H3.99992C3.82311 18.6665 3.65354 18.7367 3.52851 18.8618C3.40349 18.9868 3.33325 19.1564 3.33325 19.3332V19.9998C3.33325 20.1766 3.40349 20.3462 3.52851 20.4712C3.65354 20.5963 3.82311 20.6665 3.99992 20.6665H5.33325C5.51006 20.6665 5.67963 20.5963 5.80466 20.4712C5.92968 20.3462 5.99992 20.1766 5.99992 19.9998V19.3332C5.99992 19.1564 5.92968 18.9868 5.80466 18.8618C5.67963 18.7367 5.51006 18.6665 5.33325 18.6665ZM3.99992 19.9998V19.3332H5.33325V19.9998H3.99992ZM9.33325 18.6665H8.33325C8.24485 18.6665 8.16006 18.7016 8.09755 18.7641C8.03504 18.8266 7.99992 18.9114 7.99992 18.9998C7.99992 19.0882 8.03504 19.173 8.09755 19.2355C8.16006 19.2981 8.24485 19.3332 8.33325 19.3332H9.33325C9.42166 19.3332 9.50644 19.2981 9.56895 19.2355C9.63147 19.173 9.66659 19.0882 9.66659 18.9998C9.66659 18.9114 9.63147 18.8266 9.56895 18.7641C9.50644 18.7016 9.42166 18.6665 9.33325 18.6665ZM9.33325 19.9998H8.33325C8.24485 19.9998 8.16006 20.035 8.09755 20.0975C8.03504 20.16 7.99992 20.2448 7.99992 20.3332C7.99992 20.4216 8.03504 20.5064 8.09755 20.5689C8.16006 20.6314 8.24485 20.6665 8.33325 20.6665H9.33325C9.42166 20.6665 9.50644 20.6314 9.56895 20.5689C9.63147 20.5064 9.66659 20.4216 9.66659 20.3332C9.66659 20.2448 9.63147 20.16 9.56895 20.0975C9.50644 20.035 9.42166 19.9998 9.33325 19.9998ZM13.6666 18.6665H12.3333C12.1564 18.6665 11.9869 18.7367 11.8618 18.8618C11.7368 18.9868 11.6666 19.1564 11.6666 19.3332V19.9998C11.6666 20.1766 11.7368 20.3462 11.8618 20.4712C11.9869 20.5963 12.1564 20.6665 12.3333 20.6665H13.6666C13.8434 20.6665 14.013 20.5963 14.138 20.4712C14.263 20.3462 14.3333 20.1766 14.3333 19.9998V19.3332C14.3333 19.1564 14.263 18.9868 14.138 18.8618C14.013 18.7367 13.8434 18.6665 13.6666 18.6665ZM12.3333 19.9998V19.3332H13.6666V19.9998H12.3333ZM17.6666 18.6665H16.6666C16.5782 18.6665 16.4934 18.7016 16.4309 18.7641C16.3684 18.8266 16.3333 18.9114 16.3333 18.9998C16.3333 19.0882 16.3684 19.173 16.4309 19.2355C16.4934 19.2981 16.5782 19.3332 16.6666 19.3332H17.6666C17.755 19.3332 17.8398 19.2981 17.9023 19.2355C17.9648 19.173 17.9999 19.0882 17.9999 18.9998C17.9999 18.9114 17.9648 18.8266 17.9023 18.7641C17.8398 18.7016 17.755 18.6665 17.6666 18.6665ZM17.6666 19.9998H16.6666C16.5782 19.9998 16.4934 20.035 16.4309 20.0975C16.3684 20.16 16.3333 20.2448 16.3333 20.3332C16.3333 20.4216 16.3684 20.5064 16.4309 20.5689C16.4934 20.6314 16.5782 20.6665 16.6666 20.6665H17.6666C17.755 20.6665 17.8398 20.6314 17.9023 20.5689C17.9648 20.5064 17.9999 20.4216 17.9999 20.3332C17.9999 20.2448 17.9648 20.16 17.9023 20.0975C17.8398 20.035 17.755 19.9998 17.6666 19.9998Z" fill="black"/>
</svg>
