<svg width="24" height="24" viewBox="0 0 24 24" fill="none" xmlns="http://www.w3.org/2000/svg">
<path d="M6.49219 7.15625H4.92969C4.60609 7.15625 4.34375 7.41859 4.34375 7.74219C4.34375 8.06578 4.60609 8.32812 4.92969 8.32812H6.49219C6.81578 8.32812 7.07813 8.06578 7.07813 7.74219C7.07813 7.41859 6.81578 7.15625 6.49219 7.15625ZM8.83594 8.32812H14.3047C14.6283 8.32812 14.8906 8.06578 14.8906 7.74219C14.8906 7.41859 14.6283 7.15625 14.3047 7.15625H8.83594C8.51234 7.15625 8.25 7.41859 8.25 7.74219C8.25 8.06578 8.51234 8.32812 8.83594 8.32812ZM6.49219 9.89062H4.92969C4.60609 9.89062 4.34375 10.153 4.34375 10.4766C4.34375 10.8002 4.60609 11.0625 4.92969 11.0625H6.49219C6.81578 11.0625 7.07813 10.8002 7.07813 10.4766C7.07813 10.153 6.81578 9.89062 6.49219 9.89062ZM8.83594 11.0625H14.3047C14.6283 11.0625 14.8906 10.8002 14.8906 10.4766C14.8906 10.153 14.6283 9.89062 14.3047 9.89062H8.83594C8.51234 9.89062 8.25 10.153 8.25 10.4766C8.25 10.8002 8.51234 11.0625 8.83594 11.0625ZM6.49219 12.625H4.92969C4.60609 12.625 4.34375 12.8873 4.34375 13.2109C4.34375 13.5345 4.60609 13.7969 4.92969 13.7969H6.49219C6.81578 13.7969 7.07813 13.5345 7.07813 13.2109C7.07813 12.8873 6.81578 12.625 6.49219 12.625ZM6.49219 15.3594H4.92969C4.60609 15.3594 4.34375 15.6217 4.34375 15.9453C4.34375 16.2689 4.60609 16.5312 4.92969 16.5312H6.49219C6.81578 16.5312 7.07813 16.2689 7.07813 15.9453C7.07813 15.6217 6.81578 15.3594 6.49219 15.3594ZM6.49219 18.0937H4.92969C4.60609 18.0937 4.34375 18.3561 4.34375 18.6797C4.34375 19.0033 4.60609 19.2656 4.92969 19.2656H6.49219C6.81578 19.2656 7.07813 19.0033 7.07813 18.6797C7.07813 18.3561 6.81578 18.0937 6.49219 18.0937Z" fill="black"/>
<path d="M17.2344 11.4859V5.32031C17.2344 4.35105 16.4458 3.5625 15.4766 3.5625H12.9264C12.8289 2.68484 12.0829 2 11.1797 2H8.05469C7.15145 2 6.40551 2.68484 6.30797 3.5625H3.75781C2.78855 3.5625 2 4.35105 2 5.32031V20.2422C2 21.2114 2.78855 22 3.75781 22H16.6484C19.5562 22 21.9219 19.6343 21.9219 16.7266C21.9219 14.0168 19.8674 11.7783 17.2344 11.4859ZM7.46875 3.75781C7.46875 3.43473 7.7316 3.17188 8.05469 3.17188H11.1797C11.5028 3.17188 11.7656 3.43473 11.7656 3.75781V4.34375H7.46875V3.75781ZM3.75781 20.8281C3.43473 20.8281 3.17188 20.5653 3.17188 20.2422V5.32031C3.17188 4.99723 3.43473 4.73438 3.75781 4.73438H6.29688V4.92969C6.29688 5.25328 6.55922 5.51562 6.88281 5.51562H12.3516C12.6752 5.51562 12.9375 5.25328 12.9375 4.92969V4.73438H15.4766C15.7996 4.73438 16.0625 4.99723 16.0625 5.32031V11.4859C15.0376 11.5997 14.1005 12.0084 13.3379 12.625H8.83594C8.51234 12.625 8.25 12.8873 8.25 13.2109C8.25 13.5345 8.51234 13.7969 8.83594 13.7969H12.2659C11.9448 14.2752 11.7047 14.8031 11.5551 15.3594H8.83594C8.51234 15.3594 8.25 15.6217 8.25 15.9453C8.25 16.2689 8.51234 16.5312 8.83594 16.5312H11.379C11.3766 16.5961 11.375 16.6611 11.375 16.7266C11.375 17.1993 11.4379 17.6575 11.5551 18.0938H8.83594C8.51234 18.0938 8.25 18.3561 8.25 18.6797C8.25 19.0033 8.51234 19.2656 8.83594 19.2656H12.0278C12.3595 19.8662 12.8044 20.3968 13.338 20.8281H3.75781ZM16.6484 20.8281C14.3868 20.8281 12.5469 18.9882 12.5469 16.7266C12.5469 14.465 14.3868 12.625 16.6484 12.625C18.91 12.625 20.75 14.465 20.75 16.7266C20.75 18.9882 18.91 20.8281 16.6484 20.8281Z" fill="black"/>
<mask id="mask0_832_2518" style="mask-type:alpha" maskUnits="userSpaceOnUse" x="13" y="13" width="8" height="8">
<rect x="13.6276" y="13.6667" width="6.69839" height="6.69839" fill="#D9D9D9"/>
</mask>
<g mask="url(#mask0_832_2518)">
<path d="M17.3074 19.5426L15.583 17.7091C15.5519 17.6779 15.5287 17.6423 15.5134 17.6021C15.4982 17.562 15.4905 17.5194 15.4905 17.4743V17.2673C15.4905 17.1725 15.5239 17.0918 15.5905 17.0252C15.6571 16.9585 15.7379 16.9252 15.8327 16.9252H16.5857C16.7902 16.9252 16.9688 16.8666 17.1216 16.7495C17.2744 16.6324 17.3707 16.4828 17.4105 16.3008H15.5812C15.4785 16.3008 15.3912 16.2649 15.3193 16.193C15.2474 16.1211 15.2114 16.0338 15.2114 15.931C15.2114 15.8283 15.2474 15.741 15.3193 15.6691C15.3912 15.5972 15.4785 15.5612 15.5812 15.5612H17.3504C17.2819 15.4221 17.175 15.312 17.0297 15.231C16.8844 15.15 16.7272 15.1095 16.5581 15.1095H15.5812C15.4785 15.1095 15.3912 15.0736 15.3193 15.0017C15.2474 14.9298 15.2114 14.8424 15.2114 14.7397C15.2114 14.637 15.2474 14.5497 15.3193 14.4777C15.3912 14.4058 15.4785 14.3699 15.5812 14.3699H18.3722C18.475 14.3699 18.5623 14.4058 18.6342 14.4777C18.7061 14.5497 18.742 14.637 18.742 14.7397C18.742 14.8424 18.7061 14.9298 18.6342 15.0017C18.5623 15.0736 18.475 15.1095 18.3722 15.1095H17.8784C17.9277 15.1649 17.9767 15.2339 18.0252 15.3164C18.0737 15.3989 18.1106 15.4805 18.1359 15.5612H18.3722C18.475 15.5612 18.5623 15.5972 18.6342 15.6691C18.7061 15.741 18.742 15.8283 18.742 15.931C18.742 16.0338 18.7061 16.1211 18.6342 16.193C18.5623 16.2649 18.475 16.3008 18.3722 16.3008H18.169C18.1239 16.6857 17.9597 17.0053 17.6766 17.2597C17.3935 17.514 17.0575 17.6464 16.6685 17.6569H16.5569L17.8541 19.0297C17.9667 19.1496 17.9901 19.2849 17.9241 19.4357C17.8582 19.5865 17.7438 19.6619 17.5808 19.6619C17.5277 19.6619 17.4779 19.6516 17.4312 19.6311C17.3845 19.6106 17.3432 19.5811 17.3074 19.5426Z" fill="black"/>
</g>
</svg>
