<svg width="24" height="24" viewBox="0 0 24 24" fill="none" xmlns="http://www.w3.org/2000/svg">
<g clip-path="url(#clip0_3_17)">
<path d="M17.2134 4.47704C17.1695 4.43307 17.1449 4.37348 17.1449 4.31134C17.1449 4.2492 17.1695 4.18961 17.2134 4.14564L18.7959 2.56314L18.067 1.83423C17.8875 1.6547 17.8327 1.39642 17.9231 1.1597C18.0136 0.922981 18.2273 0.767356 18.4805 0.753294L22.8159 0.516575C22.9969 0.506731 23.1722 0.573762 23.2992 0.700794C23.4263 0.827825 23.4933 1.00361 23.4834 1.18407L23.2467 5.51954C23.2331 5.77267 23.077 5.98642 22.8403 6.07689C22.6036 6.16736 22.3453 6.11204 22.1658 5.93298L21.4369 5.20407L19.8544 6.78657C19.8084 6.83251 19.7484 6.85501 19.6884 6.85501C19.6284 6.85501 19.5684 6.83204 19.5225 6.78657C19.4786 6.7426 19.4539 6.68301 19.4539 6.62087C19.4539 6.55873 19.4786 6.49914 19.5225 6.45517L21.2709 4.70673C21.3149 4.66283 21.3745 4.63817 21.4366 4.63817C21.4988 4.63817 21.5584 4.66283 21.6023 4.70673L22.4972 5.60157C22.5656 5.67001 22.643 5.65079 22.673 5.63907C22.703 5.62736 22.7733 5.59032 22.7784 5.49376L23.0152 1.15829C23.018 1.11048 23.0011 1.06548 22.9678 1.0322C22.9345 0.998919 22.89 0.982512 22.8417 0.984387L18.5063 1.22111C18.4097 1.22626 18.3727 1.29657 18.3609 1.32657C18.3497 1.35657 18.33 1.43392 18.3984 1.50236L19.2933 2.3972C19.3372 2.44117 19.3618 2.50077 19.3618 2.5629C19.3618 2.62504 19.3372 2.68464 19.2933 2.72861L17.5448 4.47704C17.5231 4.49888 17.4973 4.51622 17.4689 4.52804C17.4404 4.53987 17.4099 4.54596 17.3791 4.54596C17.3483 4.54596 17.3178 4.53987 17.2894 4.52804C17.261 4.51622 17.2352 4.49888 17.2134 4.47704ZM23.2467 18.481C23.2327 18.2278 23.077 18.0141 22.8403 17.9236C22.6036 17.8327 22.3453 17.8885 22.1658 18.0675L21.4369 18.7964L19.8544 17.2139C19.763 17.1225 19.6144 17.1225 19.523 17.2139C19.4316 17.3053 19.4316 17.4539 19.523 17.5453L21.2714 19.2938C21.3155 19.3378 21.375 19.3622 21.4373 19.3622C21.4997 19.3622 21.5592 19.3374 21.6033 19.2938L22.4981 18.3989C22.5666 18.3305 22.6439 18.3497 22.6739 18.3614C22.7039 18.3727 22.7742 18.4102 22.7794 18.5067L23.0161 22.8422C23.0189 22.89 23.002 22.935 22.9688 22.9683C22.9355 23.0016 22.8909 23.0175 22.8427 23.0156L18.5072 22.7789C18.4106 22.7738 18.3736 22.7035 18.3619 22.6735C18.3502 22.6435 18.3309 22.5661 18.3994 22.4977L19.2942 21.6028C19.3381 21.5589 19.3628 21.4993 19.3628 21.4371C19.3628 21.375 19.3381 21.3154 19.2942 21.2714L17.5458 19.523C17.4544 19.4316 17.3058 19.4316 17.2144 19.523C17.123 19.6144 17.123 19.763 17.2144 19.8544L18.7969 21.4369L18.068 22.1658C17.8884 22.3453 17.8336 22.6036 17.9241 22.8403C18.0145 23.077 18.2283 23.2327 18.4814 23.2467L22.8169 23.4835C22.9058 23.4883 22.9947 23.4745 23.0779 23.4427C23.1611 23.411 23.2366 23.3621 23.2997 23.2992C23.4267 23.1722 23.4938 22.9964 23.4839 22.8159L23.2467 18.481ZM6.45516 19.523L4.70672 21.2714C4.66266 21.3155 4.63828 21.375 4.63828 21.4374C4.63828 21.4997 4.66313 21.5592 4.70672 21.6033L5.60156 22.4981C5.67 22.5666 5.65078 22.6439 5.63906 22.6739C5.62734 22.7039 5.59031 22.7742 5.49375 22.7794L1.15828 23.0161C1.11047 23.0175 1.06547 23.002 1.03219 22.9688C0.998907 22.9355 0.982032 22.8905 0.984845 22.8427L1.22156 18.5072C1.22672 18.4106 1.29703 18.3736 1.32703 18.3619C1.35703 18.3502 1.43438 18.3309 1.50281 18.3994L2.39766 19.2942C2.44163 19.3381 2.50122 19.3628 2.56336 19.3628C2.6255 19.3628 2.68509 19.3381 2.72906 19.2942L4.4775 17.5458C4.56891 17.4544 4.56891 17.3058 4.4775 17.2144C4.38609 17.123 4.2375 17.123 4.14609 17.2144L2.56359 18.7969L1.83469 18.068C1.65516 17.8885 1.39688 17.8336 1.16016 17.9241C0.923438 18.0145 0.767813 18.2283 0.753751 18.4814L0.517032 22.8169C0.507188 22.9969 0.57422 23.1731 0.701251 23.3002C0.819845 23.4188 0.981563 23.4853 1.14938 23.4853C1.16109 23.4853 1.17234 23.4849 1.18406 23.4844L5.51953 23.2477C5.77266 23.2341 5.98641 23.078 6.07688 22.8413C6.16734 22.6045 6.11203 22.3463 5.93297 22.1667L5.20406 21.4378L6.78656 19.8553C6.83047 19.8114 6.85513 19.7518 6.85513 19.6896C6.85513 19.6275 6.83047 19.5679 6.78656 19.5239C6.76496 19.5019 6.73921 19.4844 6.7108 19.4725C6.68239 19.4605 6.65188 19.4543 6.62106 19.4542C6.59023 19.4541 6.55969 19.4601 6.53121 19.472C6.50273 19.4838 6.47688 19.5011 6.45516 19.523ZM0.753282 5.51907C0.767345 5.7722 0.92297 5.98595 1.15969 6.07642C1.39641 6.16689 1.65469 6.11157 1.83422 5.93251L2.56313 5.20361L4.14563 6.78611C4.19156 6.83204 4.25156 6.85454 4.31156 6.85454C4.37156 6.85454 4.43156 6.83157 4.4775 6.78611C4.5214 6.74214 4.54606 6.68254 4.54606 6.6204C4.54606 6.55827 4.5214 6.49867 4.4775 6.4547L2.72906 4.70626C2.68509 4.66236 2.6255 4.6377 2.56336 4.6377C2.50122 4.6377 2.44163 4.66236 2.39766 4.70626L1.50281 5.60157C1.43438 5.67001 1.35703 5.65079 1.32703 5.63907C1.29703 5.62782 1.22672 5.59032 1.22156 5.49376L0.984845 1.15829C0.982032 1.11048 0.998907 1.06548 1.03219 1.0322C1.06547 0.998919 1.11047 0.982512 1.15828 0.984856L5.49375 1.22157C5.59031 1.22673 5.62734 1.29704 5.63906 1.32704C5.65078 1.35704 5.67 1.43439 5.60156 1.50282L4.70672 2.39767C4.66282 2.44164 4.63816 2.50124 4.63816 2.56337C4.63816 2.62551 4.66282 2.6851 4.70672 2.72907L6.45516 4.47751C6.54656 4.56892 6.69516 4.56939 6.78656 4.47751C6.83047 4.43354 6.85513 4.37395 6.85513 4.31181C6.85513 4.24967 6.83047 4.19008 6.78656 4.14611L5.20406 2.56361L5.93297 1.8347C6.1125 1.65517 6.16734 1.39689 6.07688 1.16017C5.98641 0.92345 5.77266 0.767825 5.51953 0.754231L1.18406 0.517512C1.00359 0.507669 0.827813 0.5747 0.700782 0.701731C0.573751 0.828762 0.50672 1.00454 0.516563 1.18501L0.753282 5.51907ZM7.00641 5.29829H16.9936C17.4202 5.29829 17.767 5.64517 17.767 6.07173V6.71251L18.6853 9.04876C18.6961 9.07642 18.7013 9.10548 18.7013 9.13454C18.7013 9.76689 18.315 10.3106 17.7666 10.5427V16.9594H18.1973C18.4753 16.9594 18.7013 17.1853 18.7013 17.4633V18.1978C18.7013 18.4758 18.4753 18.7017 18.1973 18.7017H5.80219C5.52422 18.7017 5.29828 18.4758 5.29828 18.1978V17.4633C5.29828 17.1853 5.52422 16.9594 5.80219 16.9594H6.23297V10.5427C5.68406 10.3106 5.29828 9.76689 5.29828 9.13454C5.29828 9.10548 5.30344 9.07642 5.31422 9.04876L6.2325 6.71251V6.07173C6.23297 5.64517 6.58031 5.29829 7.00641 5.29829ZM5.87672 8.90017H7.93406L8.38453 6.99142H6.62719L5.87672 8.90017ZM13.3598 6.99142L13.5098 8.90017H15.5841L15.1336 6.99142H13.3598ZM13.5544 9.36892C13.6613 9.84048 14.0836 10.1934 14.587 10.1934C15.0905 10.1934 15.5128 9.84048 15.6197 9.36892H13.5544ZM11.1103 6.99142L10.9603 8.90017H13.0402L12.8902 6.99142H11.1103ZM10.9673 9.36892C11.0742 9.84048 11.4966 10.1934 12 10.1934C12.5034 10.1934 12.9258 9.84048 13.0327 9.36892H10.9673ZM10.6402 6.99142H8.86641L8.41594 8.90017H10.4902L10.6402 6.99142ZM8.38031 9.36892C8.48719 9.84048 8.90953 10.1934 9.41297 10.1934C9.91641 10.1934 10.3388 9.84048 10.4456 9.36892H8.38031ZM6.82641 10.1934C7.32984 10.1934 7.75219 9.84048 7.85906 9.36892H5.79375C5.90063 9.84048 6.32297 10.1934 6.82641 10.1934ZM18.1978 17.4281H5.80219C5.78297 17.4281 5.76703 17.4441 5.76703 17.4633V18.1978C5.76703 18.217 5.78297 18.233 5.80219 18.233H18.1978C18.217 18.233 18.233 18.217 18.233 18.1978V17.4633C18.233 17.4441 18.2166 17.4281 18.1978 17.4281ZM7.91672 16.9594H10.2877V12.1078L7.91578 12.1083L7.91672 16.9594ZM17.2983 10.657C17.257 10.6603 17.2158 10.6627 17.1741 10.6627C16.6298 10.6627 16.1513 10.3763 15.8808 9.94642C15.6103 10.3763 15.1317 10.6627 14.5875 10.6627C14.0433 10.6627 13.5647 10.3763 13.2942 9.94642C13.0238 10.3763 12.5452 10.6627 12.0009 10.6627C11.4567 10.6627 10.9781 10.3763 10.7077 9.94642C10.4372 10.3763 9.95859 10.6627 9.41438 10.6627C8.87016 10.6627 8.39156 10.3763 8.12109 9.94642C7.85063 10.3763 7.37203 10.6627 6.82781 10.6627C6.78609 10.6627 6.74438 10.6603 6.70359 10.657V16.9594H7.44984V12.1078C7.44984 11.8495 7.65984 11.6395 7.91813 11.6395H10.2905C10.5488 11.6395 10.7588 11.8495 10.7588 12.1078V16.9594H17.3002V10.657H17.2983ZM18.2063 9.36892H16.1409C16.2478 9.84048 16.6702 10.1934 17.1736 10.1934C17.677 10.1934 18.0994 9.84048 18.2063 9.36892ZM18.1233 8.90017L17.3728 6.99142H15.6155L16.0659 8.90017H18.1233ZM6.70172 6.07173V6.52267H17.2978V6.07173C17.2978 5.90392 17.1614 5.76704 16.9931 5.76704H7.00641C6.83859 5.76704 6.70172 5.90392 6.70172 6.07173ZM16.552 12.1078V15.4505C16.552 15.7088 16.342 15.9188 16.0838 15.9188H12.0234C11.7652 15.9188 11.5552 15.7088 11.5552 15.4505V12.1078C11.5552 11.8495 11.7652 11.6395 12.0234 11.6395H16.0838C16.342 11.6395 16.552 11.8495 16.552 12.1078ZM16.0838 15.45L16.0833 12.1078L12.0239 12.1083L12.0244 15.45H16.0838ZM9.79828 13.8164C9.66891 13.8164 9.56391 13.9214 9.56391 14.0508V15.0169C9.56391 15.1463 9.66891 15.2513 9.79828 15.2513C9.92766 15.2513 10.0327 15.1463 10.0327 15.0169V14.0508C10.0327 13.9214 9.92766 13.8164 9.79828 13.8164Z" fill="black"/>
</g>
<defs>
<clipPath id="clip0_3_17">
<rect width="24" height="24" fill="white"/>
</clipPath>
</defs>
</svg>
