<svg width="24" height="24" viewBox="0 0 24 24" fill="none" xmlns="http://www.w3.org/2000/svg">
<g clip-path="url(#clip0_688_2129)">
<path d="M6.64865 8.70025L5.47229 6.66277L6.64865 4.62524H9.00136L10.1777 6.66277L9.00136 8.70025M13.9944 19.38C14.6294 19.7706 15.3764 19.996 16.175 19.996C18.477 19.996 20.3498 18.1232 20.3498 15.8213C20.3498 15.6959 20.3439 15.572 20.333 15.4494" stroke="black" stroke-width="1.5" stroke-miterlimit="10" stroke-linecap="round" stroke-linejoin="round"/>
<path d="M23.2864 15.4495C23.2928 15.5726 23.2961 15.6966 23.2961 15.8213C23.2961 19.7542 20.1078 22.9424 16.175 22.9424C14.6153 22.9424 13.1727 22.4409 11.9996 21.5904" stroke="black" stroke-width="1.5" stroke-miterlimit="10" stroke-linecap="round" stroke-linejoin="round"/>
<path d="M12.0054 10.0558C10.8315 9.20305 9.38694 8.7002 7.82501 8.7002C3.89215 8.70015 0.703979 11.8884 0.703979 15.8212C0.703979 19.754 3.89215 22.9422 7.82501 22.9422C11.7579 22.9422 14.946 19.754 14.946 15.8212C14.946 14.525 14.5997 13.3097 13.9946 12.2627M11.9997 15.8212C11.9997 18.1231 10.1269 19.9959 7.82496 19.9959C5.52302 19.9959 3.65022 18.1231 3.65022 15.8212C3.65022 13.5192 5.52298 11.6464 7.82496 11.6464C8.62367 11.6464 9.3707 11.8719 10.0058 12.2625" stroke="black" stroke-width="1.5" stroke-miterlimit="10" stroke-linecap="round" stroke-linejoin="round"/>
<path d="M20.333 15.4493C20.1442 13.321 18.3517 11.6465 16.1751 11.6465C13.9985 11.6465 12.2059 13.321 12.0171 15.4493L11.9998 15.8212" stroke="black" stroke-width="1.5" stroke-miterlimit="10" stroke-linecap="round" stroke-linejoin="round"/>
<path d="M10.0056 19.3798C9.40035 18.3329 9.05401 17.1175 9.05401 15.8213C9.05401 15.6965 9.05729 15.5725 9.06363 15.4494C9.25708 11.6894 12.367 8.70023 16.175 8.70023C19.9831 8.70023 23.093 11.6894 23.2864 15.4494M7.87141 1.83136L7.90478 1.05762M3.90302 4.41947L3.37952 3.8488M11.8023 4.39587L12.3731 3.87236" stroke="black" stroke-width="1.5" stroke-miterlimit="10" stroke-linecap="round" stroke-linejoin="round"/>
</g>
<defs>
<clipPath id="clip0_688_2129">
<rect width="24" height="24" fill="white"/>
</clipPath>
</defs>
</svg>
