<svg width="24" height="24" viewBox="0 0 24 24" fill="none" xmlns="http://www.w3.org/2000/svg">
<rect x="1.71047" y="17.8683" width="20.5789" height="1.78947" rx="0.894737" stroke="black" stroke-width="0.894737"/>
<path d="M3.94739 19.6579V20.1052H3.50002C3.50002 20.8464 4.1009 21.4473 4.84212 21.4473H5.73686C6.47809 21.4473 7.07897 20.8464 7.07897 20.1052H6.6316V19.6579H3.94739Z" stroke="black" stroke-width="0.894737"/>
<path d="M11.1052 19.6579V20.1052H10.6579C10.6579 20.8464 11.2587 21.4473 12 21.4473H12.8947C13.6359 21.4473 14.2368 20.8464 14.2368 20.1052H13.7894V19.6579H11.1052Z" stroke="black" stroke-width="0.894737"/>
<path d="M17.3684 19.6579V20.1052H16.921C16.921 20.8464 17.5219 21.4473 18.2631 21.4473H19.1579C19.8991 21.4473 20.5 20.8464 20.5 20.1052H20.0526V19.6579H17.3684Z" stroke="black" stroke-width="0.894737"/>
<path d="M15.579 10.7105H16.0263V10.2632V4.89474C16.0263 4.15351 15.4254 3.55263 14.6842 3.55263H10.2105C9.46931 3.55263 8.86843 4.15351 8.86843 4.89474V10.2632V10.7105H9.3158H15.579Z" stroke="black" stroke-width="0.894737"/>
<path d="M10.2105 17.8685H10.6579V17.4211V12.0527C10.6579 11.3115 10.057 10.7106 9.31581 10.7106H4.84212C4.1009 10.7106 3.50002 11.3115 3.50002 12.0527V17.4211V17.8685H3.94739H10.2105Z" stroke="black" stroke-width="0.894737"/>
<path d="M20.0526 17.8685H20.5V17.4211V12.0527C20.5 11.3115 19.8991 10.7106 19.1578 10.7106H14.6842C13.9429 10.7106 13.3421 11.3115 13.3421 12.0527V17.4211V17.8685H13.7894H20.0526Z" stroke="black" stroke-width="0.894737"/>
<path d="M12 3.55263H11.5526V4V5.78947V6.23684H12H12.4474H12.8947H13.3421V5.78947V4V3.55263H12.8947H12Z" stroke="black" stroke-width="0.894737"/>
<path d="M6.63159 10.7106H6.18422V11.158V12.9474V13.3948H6.63159H7.07896H7.52633H7.9737V12.9474V11.158V10.7106H7.52633H6.63159Z" stroke="black" stroke-width="0.894737"/>
<path d="M16.4736 10.7106H16.0263V11.158V12.9474V13.3948H16.4736H16.921H17.3684H17.8157V12.9474V11.158V10.7106H17.3684H16.4736Z" stroke="black" stroke-width="0.894737"/>
<rect x="11.1052" y="7.57886" width="2.68421" height="0.894737" rx="0.447368" fill="black"/>
<rect x="5.73682" y="14.7368" width="2.68421" height="0.894737" rx="0.447368" fill="black"/>
<rect x="15.579" y="14.7368" width="2.68421" height="0.894737" rx="0.447368" fill="black"/>
</svg>
