<svg width="24" height="24" viewBox="0 0 24 24" fill="none" xmlns="http://www.w3.org/2000/svg">
<path d="M4 4.56543H5.09566C5.64348 4.56543 6.11305 4.87847 6.19131 5.4263L8.69567 13.9568L7.28697 15.6785C7.13044 15.835 7.13044 15.9915 7.13044 16.2263C7.13044 16.6959 7.52175 17.0872 7.99132 17.0872H18.8696" stroke="black" stroke-linecap="round" stroke-linejoin="round"/>
<path d="M8.69572 13.9565H16.5218C16.9914 13.9565 17.3827 13.7217 17.6175 13.2521L20.3566 7.46081C20.4349 7.38255 20.4349 7.22603 20.4349 7.0695V6.99124C20.4349 6.52168 20.0436 6.13037 19.574 6.13037H17.2262M9.55659 6.13037H6.42615" stroke="black" stroke-linecap="round" stroke-linejoin="round"/>
<path d="M8.30441 21.0002C8.95275 21.0002 9.47833 20.4746 9.47833 19.8263C9.47833 19.1779 8.95275 18.6523 8.30441 18.6523C7.65607 18.6523 7.13049 19.1779 7.13049 19.8263C7.13049 20.4746 7.65607 21.0002 8.30441 21.0002Z" stroke="black" stroke-linecap="round" stroke-linejoin="round"/>
<path d="M17.6956 21.0002C18.344 21.0002 18.8696 20.4746 18.8696 19.8263C18.8696 19.1779 18.344 18.6523 17.6956 18.6523C17.0473 18.6523 16.5217 19.1779 16.5217 19.8263C16.5217 20.4746 17.0473 21.0002 17.6956 21.0002Z" stroke="black" stroke-linecap="round" stroke-linejoin="round"/>
<path d="M13.3914 10.8261C15.5526 10.8261 17.3045 9.07418 17.3045 6.91305C17.3045 4.75193 15.5526 3 13.3914 3C11.2303 3 9.47839 4.75193 9.47839 6.91305C9.47839 9.07418 11.2303 10.8261 13.3914 10.8261Z" stroke="black" stroke-linecap="round" stroke-linejoin="round"/>
<path d="M13.3914 4.56543V7.69587" stroke="black" stroke-linecap="round" stroke-linejoin="round"/>
<path d="M13.3913 9.65224C13.6074 9.65224 13.7826 9.47705 13.7826 9.26093C13.7826 9.04482 13.6074 8.86963 13.3913 8.86963C13.1752 8.86963 13 9.04482 13 9.26093C13 9.47705 13.1752 9.65224 13.3913 9.65224Z" fill="black"/>
</svg>
