<svg width="24" height="24" viewBox="0 0 24 24" fill="none" xmlns="http://www.w3.org/2000/svg">
<mask id="mask0_761_1731" style="mask-type:alpha" maskUnits="userSpaceOnUse" x="0" y="0" width="24" height="24">
<rect width="24" height="24" fill="#D9D9D9"/>
</mask>
<g mask="url(#mask0_761_1731)">
<path d="M12 14.8571C12.7937 14.8571 13.4683 14.5794 14.0238 14.0238C14.5794 13.4683 14.8571 12.7937 14.8571 12C14.8571 11.2063 14.5794 10.5317 14.0238 9.97619C13.4683 9.42063 12.7937 9.14286 12 9.14286C11.2063 9.14286 10.5317 9.42063 9.97619 9.97619C9.42063 10.5317 9.14286 11.2063 9.14286 12C9.14286 12.7937 9.42063 13.4683 9.97619 14.0238C10.5317 14.5794 11.2063 14.8571 12 14.8571ZM12 15.8095C10.9389 15.8095 10.0387 15.4398 9.29952 14.7005C8.56016 13.9613 8.19048 13.0611 8.19048 12C8.19048 10.9389 8.56016 10.0387 9.29952 9.29952C10.0387 8.56016 10.9389 8.19048 12 8.19048C13.0611 8.19048 13.9613 8.56016 14.7005 9.29952C15.4398 10.0387 15.8095 10.9389 15.8095 12C15.8095 13.0611 15.4398 13.9613 14.7005 14.7005C13.9613 15.4398 13.0611 15.8095 12 15.8095ZM2.47619 12.4762C2.34127 12.4762 2.22817 12.4305 2.1369 12.339C2.04563 12.2476 2 12.1344 2 11.9993C2 11.8642 2.04563 11.7512 2.1369 11.6602C2.22817 11.5693 2.34127 11.5238 2.47619 11.5238H4.85714C4.99206 11.5238 5.10516 11.5695 5.19643 11.661C5.2877 11.7524 5.33333 11.8656 5.33333 12.0007C5.33333 12.1358 5.2877 12.2488 5.19643 12.3398C5.10516 12.4307 4.99206 12.4762 4.85714 12.4762H2.47619ZM19.1429 12.4762C19.0079 12.4762 18.8948 12.4305 18.8036 12.339C18.7123 12.2476 18.6667 12.1344 18.6667 11.9993C18.6667 11.8642 18.7123 11.7512 18.8036 11.6602C18.8948 11.5693 19.0079 11.5238 19.1429 11.5238H21.5238C21.6587 11.5238 21.7718 11.5695 21.8631 11.661C21.9544 11.7524 22 11.8656 22 12.0007C22 12.1358 21.9544 12.2488 21.8631 12.3398C21.7718 12.4307 21.6587 12.4762 21.5238 12.4762H19.1429ZM11.9993 5.33333C11.8642 5.33333 11.7512 5.2877 11.6602 5.19643C11.5693 5.10516 11.5238 4.99206 11.5238 4.85714V2.47619C11.5238 2.34127 11.5695 2.22817 11.661 2.1369C11.7524 2.04563 11.8656 2 12.0007 2C12.1358 2 12.2488 2.04563 12.3398 2.1369C12.4307 2.22817 12.4762 2.34127 12.4762 2.47619V4.85714C12.4762 4.99206 12.4305 5.10516 12.339 5.19643C12.2476 5.2877 12.1344 5.33333 11.9993 5.33333ZM11.9993 22C11.8642 22 11.7512 21.9544 11.6602 21.8631C11.5693 21.7718 11.5238 21.6587 11.5238 21.5238V19.1429C11.5238 19.0079 11.5695 18.8948 11.661 18.8036C11.7524 18.7123 11.8656 18.6667 12.0007 18.6667C12.1358 18.6667 12.2488 18.7123 12.3398 18.8036C12.4307 18.8948 12.4762 19.0079 12.4762 19.1429V21.5238C12.4762 21.6587 12.4305 21.7718 12.339 21.8631C12.2476 21.9544 12.1344 22 11.9993 22ZM6.63 7.26738L5.25833 5.93762C5.16548 5.84857 5.12 5.73937 5.1219 5.61C5.12365 5.48048 5.17095 5.36325 5.26381 5.25833C5.36508 5.15325 5.47738 5.10071 5.60071 5.10071C5.72405 5.10071 5.83635 5.15325 5.93762 5.25833L7.28571 6.61167C7.38698 6.71675 7.43762 6.82913 7.43762 6.94881C7.43762 7.06833 7.39 7.18064 7.29476 7.28571C7.19952 7.39079 7.09119 7.43937 6.96976 7.43143C6.84833 7.42349 6.73508 7.36881 6.63 7.26738ZM18.0624 18.7417L16.7143 17.3883C16.613 17.2833 16.5624 17.17 16.5624 17.0486C16.5624 16.927 16.613 16.8156 16.7143 16.7143C16.7973 16.6092 16.9011 16.5606 17.0257 16.5686C17.1502 16.5765 17.2649 16.6312 17.37 16.7326L18.7417 18.0624C18.8345 18.1514 18.88 18.2606 18.8781 18.39C18.8763 18.5195 18.829 18.6367 18.7362 18.7417C18.6349 18.8467 18.5226 18.8993 18.3993 18.8993C18.276 18.8993 18.1637 18.8467 18.0624 18.7417ZM16.7143 7.29476C16.6092 7.19952 16.5606 7.09119 16.5686 6.96976C16.5765 6.84833 16.6312 6.73508 16.7326 6.63L18.0624 5.25833C18.1514 5.16548 18.2606 5.12 18.39 5.1219C18.5195 5.12365 18.6367 5.17095 18.7417 5.26381C18.8467 5.36508 18.8993 5.47738 18.8993 5.60071C18.8993 5.72405 18.8467 5.83635 18.7417 5.93762L17.3883 7.28571C17.2833 7.38698 17.1709 7.43762 17.0512 7.43762C16.9317 7.43762 16.8194 7.39 16.7143 7.29476ZM5.25833 18.7457C5.15325 18.6381 5.10071 18.5226 5.10071 18.3993C5.10071 18.276 5.15325 18.1637 5.25833 18.0624L6.61167 16.7143C6.71675 16.613 6.83 16.5624 6.95143 16.5624C7.07302 16.5624 7.18444 16.613 7.28571 16.7143C7.37857 16.7973 7.42103 16.9011 7.4131 17.0257C7.40516 17.1502 7.35659 17.2649 7.26738 17.37L5.93762 18.7417C5.83635 18.8467 5.72405 18.8983 5.60071 18.8964C5.47738 18.8947 5.36325 18.8444 5.25833 18.7457Z" fill="black"/>
</g>
</svg>
