<svg width="24" height="24" viewBox="0 0 24 24" fill="none" xmlns="http://www.w3.org/2000/svg">
<path d="M15.5 12H17V3.5C17 3.10218 16.842 2.72064 16.5607 2.43934C16.2794 2.15804 15.8978 2 15.5 2H6.5C6.10218 2 5.72064 2.15804 5.43934 2.43934C5.15804 2.72064 5 3.10218 5 3.5V12H6.5V11.632C6.50032 11.2006 6.6123 10.7765 6.82503 10.4012C7.03776 10.0258 7.34402 9.71193 7.714 9.49L8.684 8.908C8.32269 8.46893 8.0936 7.93622 8.02343 7.37194C7.95326 6.80766 8.04491 6.23507 8.28768 5.72088C8.53046 5.20669 8.91436 4.77208 9.39466 4.46771C9.87497 4.16334 10.4319 4.00174 11.0005 4.00174C11.5691 4.00174 12.126 4.16334 12.6063 4.46771C13.0866 4.77208 13.4705 5.20669 13.7133 5.72088C13.9561 6.23507 14.0477 6.80766 13.9776 7.37194C13.9074 7.93622 13.6783 8.46893 13.317 8.908L14.287 9.49C14.6569 9.71214 14.9631 10.0263 15.1757 10.4018C15.3882 10.7773 15.5 11.2015 15.5 11.633V12ZM14.5 12V11.632C14.5 11.373 14.4329 11.1185 14.3054 10.8931C14.1778 10.6678 13.994 10.4793 13.772 10.346L12.513 9.591C12.069 9.851 11.552 10 11 10C10.448 10 9.931 9.851 9.487 9.591L8.228 10.346C8.00597 10.4793 7.82222 10.6678 7.69465 10.8931C7.56707 11.1185 7.50001 11.373 7.5 11.632V12H14.5ZM17 13H5V18.5C5 18.8978 5.15804 19.2794 5.43934 19.5607C5.72064 19.842 6.10218 20 6.5 20H15.5C15.8978 20 16.2794 19.842 16.5607 19.5607C16.842 19.2794 17 18.8978 17 18.5V13ZM17.958 3.042C18.5318 3.14892 19.05 3.45322 19.423 3.90215C19.7959 4.35109 20.0001 4.91636 20 5.5V20.5C20 21.163 19.7366 21.7989 19.2678 22.2678C18.7989 22.7366 18.163 23 17.5 23H8.5C7.91636 23.0001 7.35109 22.7959 6.90215 22.423C6.45322 22.05 6.14892 21.5318 6.042 20.958C5.46824 20.8511 4.94997 20.5468 4.57701 20.0978C4.20406 19.6489 3.99993 19.0836 4 18.5V3.5C4 2.83696 4.26339 2.20107 4.73223 1.73223C5.20107 1.26339 5.83696 1 6.5 1H15.5C16.0836 0.999927 16.6489 1.20406 17.0978 1.57701C17.5468 1.94997 17.8511 2.46824 17.958 3.042ZM7.085 21C7.18844 21.2926 7.38008 21.5459 7.63351 21.725C7.88694 21.9041 8.18967 22.0002 8.5 22H17.5C17.8978 22 18.2794 21.842 18.5607 21.5607C18.842 21.2794 19 20.8978 19 20.5V5.5C19.0002 5.18967 18.9041 4.88694 18.725 4.63351C18.5459 4.38008 18.2926 4.18844 18 4.085V18.5C18 19.163 17.7366 19.7989 17.2678 20.2678C16.7989 20.7366 16.163 21 15.5 21H7.085ZM11 9C11.5304 9 12.0391 8.78929 12.4142 8.41421C12.7893 8.03914 13 7.53043 13 7C13 6.46957 12.7893 5.96086 12.4142 5.58579C12.0391 5.21071 11.5304 5 11 5C10.4696 5 9.96086 5.21071 9.58579 5.58579C9.21071 5.96086 9 6.46957 9 7C9 7.53043 9.21071 8.03914 9.58579 8.41421C9.96086 8.78929 10.4696 9 11 9ZM7.5 16C7.36739 16 7.24021 15.9473 7.14645 15.8536C7.05268 15.7598 7 15.6326 7 15.5C7 15.3674 7.05268 15.2402 7.14645 15.1464C7.24021 15.0527 7.36739 15 7.5 15H14.5C14.6326 15 14.7598 15.0527 14.8536 15.1464C14.9473 15.2402 15 15.3674 15 15.5C15 15.6326 14.9473 15.7598 14.8536 15.8536C14.7598 15.9473 14.6326 16 14.5 16H7.5ZM7.5 18C7.36739 18 7.24021 17.9473 7.14645 17.8536C7.05268 17.7598 7 17.6326 7 17.5C7 17.3674 7.05268 17.2402 7.14645 17.1464C7.24021 17.0527 7.36739 17 7.5 17H12.5C12.6326 17 12.7598 17.0527 12.8536 17.1464C12.9473 17.2402 13 17.3674 13 17.5C13 17.6326 12.9473 17.7598 12.8536 17.8536C12.7598 17.9473 12.6326 18 12.5 18H7.5Z" fill="black"/>
</svg>
