<svg width="10" height="6" viewBox="0 0 10 6" fill="none" xmlns="http://www.w3.org/2000/svg">
<path d="M5.39746 1.10241L9.14746 4.85241C9.25313 4.95809 9.3125 5.10141 9.3125 5.25085C9.3125 5.40029 9.25313 5.54362 9.14746 5.64929C9.04179 5.75496 8.89847 5.81433 8.74903 5.81433C8.59958 5.81433 8.45626 5.75496 8.35059 5.64929L4.99949 2.29726L1.64746 5.64835C1.59514 5.70067 1.53302 5.74218 1.46466 5.7705C1.39629 5.79882 1.32302 5.81339 1.24903 5.81339C1.17503 5.81339 1.10176 5.79882 1.03339 5.7705C0.965026 5.74218 0.902909 5.70067 0.850585 5.64835C0.798262 5.59603 0.756756 5.53391 0.728439 5.46555C0.700122 5.39718 0.685547 5.32391 0.685547 5.24991C0.685547 5.17592 0.700122 5.10264 0.728439 5.03428C0.756756 4.96592 0.798262 4.9038 0.850585 4.85148L4.60059 1.10148C4.65291 1.0491 4.71505 1.00756 4.78346 0.979254C4.85187 0.950944 4.92519 0.936414 4.99922 0.936504C5.07325 0.936594 5.14654 0.951294 5.21488 0.979764C5.28322 1.00823 5.34527 1.04991 5.39746 1.10241Z" fill="#0D1442"/>
</svg>
