<svg width="24" height="24" viewBox="0 0 24 24" fill="none" xmlns="http://www.w3.org/2000/svg">
<g clip-path="url(#clip0_956_1645)">
<path d="M21.5 21H2.5C1.8372 20.9992 1.20178 20.7356 0.73311 20.2669C0.264441 19.7982 0.000793929 19.1628 0 18.5L0 5.5C0 4.122 1.122 3 2.5 3H21.5C22.878 3 24 4.122 24 5.5V18.5C24 19.878 22.878 21 21.5 21ZM2.5 4C1.673 4 1 4.673 1 5.5V18.5C1 19.327 1.673 20 2.5 20H21.5C22.327 20 23 19.327 23 18.5V5.5C23 4.673 22.327 4 21.5 4H2.5Z" fill="black"/>
<path d="M7.5 12C6.122 12 5 10.878 5 9.5C5 8.122 6.122 7 7.5 7C8.878 7 10 8.122 10 9.5C10 10.878 8.878 12 7.5 12ZM7.5 8C6.673 8 6 8.673 6 9.5C6 10.327 6.673 11 7.5 11C8.327 11 9 10.327 9 9.5C9 8.673 8.327 8 7.5 8ZM11.5 17C11.3674 17 11.2402 16.9473 11.1464 16.8536C11.0527 16.7598 11 16.6326 11 16.5V15.5C11 14.673 10.327 14 9.5 14H5.5C4.673 14 4 14.673 4 15.5V16.5C4 16.6326 3.94732 16.7598 3.85355 16.8536C3.75979 16.9473 3.63261 17 3.5 17C3.36739 17 3.24021 16.9473 3.14645 16.8536C3.05268 16.7598 3 16.6326 3 16.5V15.5C3 14.122 4.122 13 5.5 13H9.5C10.878 13 12 14.122 12 15.5V16.5C12 16.6326 11.9473 16.7598 11.8536 16.8536C11.7598 16.9473 11.6326 17 11.5 17ZM20.5 9H14.5C14.3674 9 14.2402 8.94732 14.1464 8.85355C14.0527 8.75979 14 8.63261 14 8.5C14 8.36739 14.0527 8.24021 14.1464 8.14645C14.2402 8.05268 14.3674 8 14.5 8H20.5C20.6326 8 20.7598 8.05268 20.8536 8.14645C20.9473 8.24021 21 8.36739 21 8.5C21 8.63261 20.9473 8.75979 20.8536 8.85355C20.7598 8.94732 20.6326 9 20.5 9ZM20.5 13H14.5C14.3674 13 14.2402 12.9473 14.1464 12.8536C14.0527 12.7598 14 12.6326 14 12.5C14 12.3674 14.0527 12.2402 14.1464 12.1464C14.2402 12.0527 14.3674 12 14.5 12H20.5C20.6326 12 20.7598 12.0527 20.8536 12.1464C20.9473 12.2402 21 12.3674 21 12.5C21 12.6326 20.9473 12.7598 20.8536 12.8536C20.7598 12.9473 20.6326 13 20.5 13ZM20.5 17H14.5C14.3674 17 14.2402 16.9473 14.1464 16.8536C14.0527 16.7598 14 16.6326 14 16.5C14 16.3674 14.0527 16.2402 14.1464 16.1464C14.2402 16.0527 14.3674 16 14.5 16H20.5C20.6326 16 20.7598 16.0527 20.8536 16.1464C20.9473 16.2402 21 16.3674 21 16.5C21 16.6326 20.9473 16.7598 20.8536 16.8536C20.7598 16.9473 20.6326 17 20.5 17Z" fill="black"/>
</g>
<defs>
<clipPath id="clip0_956_1645">
<rect width="24" height="24" fill="white"/>
</clipPath>
</defs>
</svg>
