<svg width="24" height="24" viewBox="0 0 24 24" fill="none" xmlns="http://www.w3.org/2000/svg">
<path d="M12.5 11.9333C11.4092 11.9333 10.4754 11.545 9.69868 10.7683C8.92178 9.99137 8.53333 9.0575 8.53333 7.96667C8.53333 6.87583 8.92178 5.94206 9.69868 5.16535C10.4754 4.38845 11.4092 4 12.5 4C13.5908 4 14.5246 4.38845 15.3013 5.16535C16.0782 5.94206 16.4667 6.87583 16.4667 7.96667C16.4667 9.0575 16.0782 9.99137 15.3013 10.7683C14.5246 11.545 13.5908 11.9333 12.5 11.9333ZM4 18.8424V18.0445C4 17.4896 4.15073 16.9756 4.4522 16.5026C4.75367 16.0297 5.15657 15.6661 5.6609 15.4118C6.78101 14.8627 7.91104 14.4508 9.05098 14.1762C10.1909 13.9016 11.3406 13.7642 12.5 13.7642C13.6594 13.7642 14.8091 13.9016 15.949 14.1762C17.089 14.4508 18.219 14.8627 19.3391 15.4118C19.8434 15.6661 20.2463 16.0297 20.5478 16.5026C20.8493 16.9756 21 17.4896 21 18.0445V18.8424C21 19.3203 20.8326 19.7268 20.4977 20.0619C20.1628 20.3968 19.7563 20.5642 19.2782 20.5642H5.72182C5.24374 20.5642 4.83725 20.3968 4.50235 20.0619C4.16745 19.7268 4 19.3203 4 18.8424ZM5.7 18.8642H19.3V18.0445C19.3 17.815 19.2335 17.6025 19.1005 17.407C18.9676 17.2117 18.7871 17.0523 18.5591 16.9288C17.5825 16.4479 16.5869 16.0835 15.5722 15.8357C14.5573 15.588 13.5332 15.4642 12.5 15.4642C11.4668 15.4642 10.4427 15.588 9.42782 15.8357C8.41311 16.0835 7.41747 16.4479 6.44092 16.9288C6.21293 17.0523 6.03244 17.2117 5.89947 17.407C5.76649 17.6025 5.7 17.815 5.7 18.0445V18.8642ZM12.5 10.2333C13.1233 10.2333 13.6569 10.0114 14.1008 9.5675C14.5447 9.12361 14.7667 8.59 14.7667 7.96667C14.7667 7.34333 14.5447 6.80972 14.1008 6.36583C13.6569 5.92194 13.1233 5.7 12.5 5.7C11.8767 5.7 11.3431 5.92194 10.8992 6.36583C10.4553 6.80972 10.2333 7.34333 10.2333 7.96667C10.2333 8.59 10.4553 9.12361 10.8992 9.5675C11.3431 10.0114 11.8767 10.2333 12.5 10.2333Z" fill="black"/>
</svg>
