<svg width="24" height="24" viewBox="0 0 24 24" fill="none" xmlns="http://www.w3.org/2000/svg">
<path d="M15.8527 7.56143C15.8527 7.74531 15.8396 7.92732 15.8152 8.10932C15.8227 8.05866 15.8283 8.00988 15.8358 7.95922C15.787 8.30259 15.697 8.63846 15.5637 8.95744L15.62 8.82234C15.5206 9.05877 15.3986 9.28581 15.256 9.49784C15.2204 9.55225 15.181 9.60666 15.1416 9.6592C15.059 9.76991 15.2129 9.57101 15.1547 9.64232C15.1341 9.66858 15.1134 9.69298 15.0928 9.71925C15.014 9.81306 14.9314 9.90501 14.8451 9.99132C14.7588 10.0776 14.6668 10.1621 14.573 10.239C14.5486 10.2596 14.5224 10.2803 14.4961 10.3009C14.4229 10.3591 14.6237 10.2052 14.513 10.2878C14.4604 10.3272 14.406 10.3647 14.3516 10.4022C14.1377 10.5448 13.9125 10.6649 13.6761 10.7663L13.8112 10.71C13.4904 10.8432 13.1564 10.9351 12.813 10.982C12.8637 10.9745 12.9124 10.9689 12.9631 10.9614C12.5991 11.0102 12.2332 11.0102 11.8692 10.9614C11.9198 10.9689 11.9686 10.9745 12.0193 10.982C11.6759 10.9333 11.34 10.8432 11.0211 10.71L11.1562 10.7663C10.9197 10.6668 10.6927 10.5448 10.4807 10.4022C10.4263 10.3666 10.3718 10.3272 10.3193 10.2878C10.2086 10.2052 10.4075 10.3591 10.3362 10.3009C10.3099 10.2803 10.2855 10.2596 10.2593 10.239C10.1654 10.1602 10.0735 10.0776 9.98718 9.99132C9.90087 9.90501 9.81643 9.81306 9.7395 9.71925C9.71886 9.69485 9.69822 9.66858 9.67758 9.64232C9.61942 9.56914 9.77328 9.76991 9.69072 9.6592C9.65131 9.60666 9.61379 9.55225 9.57626 9.49784C9.43366 9.28393 9.31357 9.05877 9.21224 8.82234L9.26853 8.95744C9.13531 8.63658 9.04337 8.30259 8.99646 7.95922C9.00397 8.00988 9.0096 8.05866 9.0171 8.10932C8.96832 7.74531 8.96832 7.37942 9.0171 7.0154C9.0096 7.06606 9.00397 7.11485 8.99646 7.16551C9.04525 6.82214 9.13531 6.48627 9.26853 6.16729L9.21224 6.30238C9.31169 6.06596 9.43366 5.83892 9.57626 5.62689C9.61191 5.57248 9.65131 5.51806 9.69072 5.46552C9.77328 5.35482 9.61942 5.55371 9.67758 5.48241C9.69822 5.45614 9.71886 5.43175 9.7395 5.40548C9.81831 5.31166 9.90087 5.21972 9.98718 5.13341C10.0735 5.04709 10.1654 4.96266 10.2593 4.88573C10.2836 4.86509 10.3099 4.84445 10.3362 4.82381C10.4094 4.76564 10.2086 4.9195 10.3193 4.83694C10.3718 4.79754 10.4263 4.76001 10.4807 4.72248C10.6946 4.57988 10.9197 4.45979 11.1562 4.35847L11.0211 4.41476C11.3419 4.28154 11.6759 4.1896 12.0193 4.14269C11.9686 4.15019 11.9198 4.15582 11.8692 4.16333C12.2332 4.11454 12.5991 4.11454 12.9631 4.16333C12.9124 4.15582 12.8637 4.15019 12.813 4.14269C13.1564 4.19147 13.4922 4.28154 13.8112 4.41476L13.6761 4.35847C13.9125 4.45792 14.1396 4.57988 14.3516 4.72248C14.406 4.75813 14.4604 4.79754 14.513 4.83694C14.6237 4.9195 14.4248 4.76564 14.4961 4.82381C14.5224 4.84445 14.5468 4.86509 14.573 4.88573C14.6668 4.96453 14.7588 5.04709 14.8451 5.13341C14.9314 5.21972 15.0158 5.31166 15.0928 5.40548C15.1134 5.42987 15.1341 5.45614 15.1547 5.48241C15.2129 5.55559 15.059 5.35482 15.1416 5.46552C15.181 5.51806 15.2185 5.57248 15.256 5.62689C15.3986 5.8408 15.5187 6.06596 15.62 6.30238L15.5637 6.16729C15.697 6.48814 15.7889 6.82214 15.8358 7.16551C15.8283 7.11485 15.8227 7.06606 15.8152 7.0154C15.8396 7.19741 15.8527 7.37942 15.8527 7.56143C15.8546 7.85601 16.1116 8.13747 16.4156 8.12434C16.7196 8.1112 16.9804 7.87665 16.9785 7.56143C16.9748 6.64013 16.6971 5.70758 16.1586 4.95515C15.6031 4.17646 14.8451 3.59479 13.9482 3.26455C12.1975 2.61908 10.1091 3.18574 8.92516 4.62679C8.30784 5.37921 7.94007 6.27611 7.86501 7.24807C7.79371 8.17312 8.02826 9.13007 8.51048 9.92377C8.97582 10.6893 9.67571 11.3329 10.4957 11.7007C10.9648 11.9108 11.4357 12.0403 11.9461 12.1004C12.419 12.1566 12.8993 12.1229 13.3665 12.0272C15.1622 11.6632 16.6427 10.1283 16.9166 8.31197C16.9541 8.06429 16.9804 7.81473 16.9804 7.5633C16.9823 7.26871 16.7215 6.98726 16.4175 7.00039C16.1098 7.01353 15.8546 7.2462 15.8527 7.56143ZM18.3577 19.8741H7.87627C7.41093 19.8741 6.94747 19.876 6.48213 19.8741C6.43522 19.8741 6.38831 19.8704 6.3414 19.8648C6.39207 19.8723 6.44085 19.8779 6.49151 19.8854C6.41646 19.8741 6.34516 19.8535 6.27573 19.8254L6.41083 19.8816C6.35829 19.8591 6.30763 19.8329 6.25884 19.801C6.21006 19.7691 6.19317 19.7259 6.29449 19.831C6.27573 19.8103 6.25134 19.7935 6.23257 19.7747C6.22695 19.7691 6.17253 19.7146 6.17628 19.7128C6.17628 19.7128 6.27385 19.8497 6.20631 19.7484C6.17441 19.7015 6.14814 19.6509 6.12562 19.5964L6.18191 19.7315C6.15377 19.6621 6.135 19.5889 6.12187 19.5158C6.12937 19.5664 6.135 19.6152 6.14251 19.6659C6.12937 19.5608 6.13313 19.452 6.13313 19.3469V17.7069C6.13313 17.4912 6.14251 17.2754 6.17065 17.0615C6.16315 17.1121 6.15752 17.1609 6.15001 17.2116C6.20255 16.8269 6.30388 16.4498 6.45586 16.0914L6.39957 16.2265C6.48401 16.0295 6.58158 15.8381 6.69416 15.6542C6.75045 15.5622 6.80862 15.4741 6.87242 15.3877C6.88743 15.3671 6.90056 15.3483 6.91557 15.3277C6.92308 15.3183 6.93058 15.3089 6.93809 15.2977C6.96999 15.2545 6.88555 15.3727 6.88743 15.3634C6.89493 15.324 6.96999 15.2602 6.99626 15.2301C7.13135 15.0706 7.27771 14.9224 7.43533 14.7836C7.47473 14.7479 7.51601 14.7141 7.55729 14.6804C7.57605 14.6653 7.59482 14.6503 7.61546 14.6334C7.67925 14.5809 7.49912 14.7198 7.58919 14.6541C7.6755 14.5903 7.76181 14.5284 7.85188 14.4721C8.0564 14.3407 8.27406 14.2263 8.49735 14.1306L8.36225 14.1869C8.72064 14.0368 9.09591 13.9336 9.48244 13.881C9.43178 13.8885 9.38299 13.8942 9.33233 13.9017C9.64006 13.8623 9.94778 13.8641 10.2574 13.8641H14.4548C14.8038 13.8641 15.1509 13.8566 15.4981 13.9017C15.4474 13.8942 15.3986 13.8885 15.348 13.881C15.7326 13.9336 16.1098 14.0349 16.4682 14.1869L16.3331 14.1306C16.5301 14.215 16.7215 14.3126 16.9053 14.4252C16.9973 14.4815 17.0855 14.5396 17.1718 14.6034C17.1924 14.6184 17.2112 14.6316 17.2318 14.6466C17.2412 14.6541 17.2506 14.6616 17.2619 14.6691C17.305 14.701 17.1868 14.6166 17.1962 14.6184C17.2356 14.6259 17.2994 14.701 17.3294 14.7273C17.4889 14.8624 17.6371 15.0087 17.776 15.1663C17.8116 15.2057 17.8454 15.247 17.8792 15.2883C17.8942 15.3071 17.9092 15.3258 17.9261 15.3465C17.9786 15.4103 17.8398 15.2301 17.9054 15.3202C17.9692 15.4065 18.0312 15.4928 18.0875 15.5829C18.2188 15.7874 18.3333 16.0051 18.429 16.2284L18.3727 16.0933C18.5228 16.4516 18.626 16.8269 18.6785 17.2135C18.671 17.1628 18.6654 17.114 18.6579 17.0633C18.701 17.4011 18.6954 17.7407 18.6954 18.0803V19.285C18.6954 19.4107 18.7029 19.5401 18.686 19.6659C18.6935 19.6152 18.6992 19.5664 18.7067 19.5158C18.6954 19.5908 18.6748 19.6621 18.6466 19.7315L18.7029 19.5964C18.6804 19.649 18.6541 19.6996 18.6222 19.7484C18.5903 19.7972 18.5472 19.8141 18.6522 19.7128C18.6316 19.7315 18.6147 19.7559 18.596 19.7747C18.5903 19.7803 18.5359 19.8347 18.534 19.831C18.534 19.831 18.671 19.7334 18.5697 19.801C18.5228 19.8329 18.4721 19.8591 18.4177 19.8816L18.5528 19.8254C18.4834 19.8535 18.4102 19.8723 18.337 19.8854C18.3877 19.8779 18.4365 19.8723 18.4871 19.8648C18.444 19.8704 18.4027 19.8723 18.3577 19.8741C18.0631 19.8779 17.7816 20.1293 17.7947 20.437C17.8079 20.7391 18.0424 21.0037 18.3577 21C19.035 20.9906 19.6805 20.5008 19.7912 19.8141C19.8325 19.5589 19.8212 19.3 19.8212 19.0429V18.0222C19.8212 17.7839 19.8268 17.5437 19.8081 17.3054C19.7274 16.2209 19.3033 15.2057 18.5866 14.3858C17.9148 13.6165 16.9729 13.0611 15.9728 12.8509C15.4587 12.7421 14.9483 12.7364 14.4285 12.7364H10.6176C10.2199 12.7364 9.81456 12.7196 9.41864 12.7627C8.85011 12.8265 8.31909 12.971 7.79934 13.2112C7.33963 13.4232 6.9137 13.7215 6.54405 14.0668C5.79726 14.7648 5.26437 15.7236 5.08799 16.7312C4.97353 17.3898 5.00355 18.0578 5.00355 18.7239V19.5026C5.00355 20.0449 5.29251 20.5928 5.7935 20.8348C6.02617 20.9474 6.26823 21 6.52716 21H18.3558C18.6504 21 18.9318 20.741 18.9187 20.437C18.9074 20.1312 18.6748 19.8741 18.3577 19.8741Z" fill="black"/>
</svg>
