<svg width="24" height="24" viewBox="0 0 24 24" fill="none" xmlns="http://www.w3.org/2000/svg">
<path d="M19.7083 20H4.29172C3.02754 20 2 18.9725 2 17.7083V7.29172C2 6.02754 3.02754 5 4.29172 5H19.7083C20.9725 5 22 6.02754 22 7.29172V17.7083C22 18.9725 20.9725 20 19.7083 20ZM4.29172 6.25C3.7175 6.25 3.25 6.71754 3.25 7.29172V17.7083C3.25 18.2825 3.71754 18.75 4.29172 18.75H19.7083C20.2825 18.75 20.75 18.2825 20.75 17.7083V7.29172C20.75 6.7175 20.2825 6.25 19.7083 6.25H4.29172Z" fill="black"/>
<path d="M8.25 12.5C7.10164 12.5 6.16672 11.5649 6.16672 10.4167C6.16672 9.26833 7.10164 8.33325 8.25 8.33325C9.39836 8.33325 10.3333 9.26833 10.3333 10.4167C10.3333 11.5649 9.39836 12.5 8.25 12.5ZM8.25 9.58325C7.79086 9.58325 7.41672 9.95739 7.41672 10.4167C7.41672 10.8758 7.79086 11.25 8.25 11.25C8.70914 11.25 9.08328 10.8758 9.08328 10.4167C9.08328 9.95739 8.70914 9.58325 8.25 9.58325ZM11.375 16.6667C11.03 16.6667 10.75 16.3867 10.75 16.0417V15.625C10.75 15.0508 10.2825 14.5833 9.70828 14.5833H6.79172C6.2175 14.5833 5.75 15.0508 5.75 15.625V16.0417C5.75 16.3867 5.47 16.6667 5.125 16.6667C4.78 16.6667 4.5 16.3867 4.5 16.0417V15.625C4.5 14.3608 5.52754 13.3333 6.79172 13.3333H9.70828C10.9725 13.3333 12 14.3608 12 15.625V16.0417C12 16.3867 11.72 16.6667 11.375 16.6667ZM18.875 9.99997H14.2917C13.9467 9.99997 13.6667 9.71997 13.6667 9.37497C13.6667 9.02997 13.9467 8.74997 14.2917 8.74997H18.875C19.22 8.74997 19.5 9.02997 19.5 9.37497C19.5 9.71997 19.22 9.99997 18.875 9.99997ZM18.875 13.3333H14.2917C13.9467 13.3333 13.6667 13.0533 13.6667 12.7083C13.6667 12.3633 13.9467 12.0833 14.2917 12.0833H18.875C19.22 12.0833 19.5 12.3633 19.5 12.7083C19.5 13.0533 19.22 13.3333 18.875 13.3333ZM18.875 16.6667H14.2917C13.9467 16.6667 13.6667 16.3867 13.6667 16.0417C13.6667 15.6967 13.9467 15.4167 14.2917 15.4167H18.875C19.22 15.4167 19.5 15.6967 19.5 16.0417C19.5 16.3867 19.22 16.6667 18.875 16.6667Z" fill="black"/>
</svg>
