<svg width="24" height="24" viewBox="0 0 24 24" fill="none" xmlns="http://www.w3.org/2000/svg">
<rect y="4" width="20.8696" height="2.08696" rx="1.04348" fill="black"/>
<rect y="10.261" width="8.34783" height="2.08696" rx="1.04348" fill="black"/>
<rect y="16.5217" width="10.4348" height="2.08696" rx="1.04348" fill="black"/>
<path d="M17.3333 16.8369C18.0675 16.8369 18.6916 16.5799 19.2055 16.066C19.7195 15.552 19.9765 14.928 19.9765 14.1938C19.9765 13.4595 19.7195 12.8355 19.2055 12.3215C18.6916 11.8076 18.0675 11.5506 17.3333 11.5506C16.5991 11.5506 15.975 11.8076 15.461 12.3215C14.9471 12.8355 14.6901 13.4595 14.6901 14.1938C14.6901 14.928 14.9471 15.552 15.461 16.066C15.975 16.5799 16.5991 16.8369 17.3333 16.8369ZM17.3359 15.4713C16.9818 15.4713 16.6798 15.3473 16.4302 15.0995C16.1806 14.8515 16.0558 14.5505 16.0558 14.1964C16.0558 13.8422 16.1797 13.5403 16.4276 13.2907C16.6755 13.041 16.9766 12.9162 17.3306 12.9162C17.6848 12.9162 17.9867 13.0402 18.2364 13.288C18.486 13.536 18.6108 13.837 18.6108 14.1911C18.6108 14.5453 18.4869 14.8472 18.239 15.0968C17.9911 15.3465 17.69 15.4713 17.3359 15.4713ZM17.3333 19.0543C15.9628 19.0543 14.7073 18.692 13.5668 17.9676C12.4263 17.2432 11.533 16.274 10.8869 15.0601C10.8086 14.9231 10.7523 14.7811 10.718 14.6343C10.6838 14.4874 10.6666 14.3406 10.6666 14.1938C10.6666 14.0469 10.6838 13.9001 10.718 13.7532C10.7523 13.6064 10.8086 13.4644 10.8869 13.3274C11.533 12.1135 12.4263 11.1443 13.5668 10.4199C14.7073 9.69546 15.9628 9.33325 17.3333 9.33325C18.7038 9.33325 19.9593 9.69546 21.0998 10.4199C22.2403 11.1443 23.1336 12.1135 23.7797 13.3274C23.858 13.4644 23.9143 13.6064 23.9486 13.7532C23.9828 13.9001 24 14.0469 24 14.1938C24 14.3406 23.9828 14.4874 23.9486 14.6343C23.9143 14.7811 23.858 14.9231 23.7797 15.0601C23.1336 16.274 22.2403 17.2432 21.0998 17.9676C19.9593 18.692 18.7038 19.0543 17.3333 19.0543ZM17.3346 17.4243C18.4302 17.4243 19.4356 17.1306 20.3509 16.5432C21.2662 15.9559 21.9686 15.1727 22.4581 14.1938C21.9686 13.2148 21.2658 12.4316 20.3496 11.8443C19.4334 11.2569 18.4275 10.9632 17.332 10.9632C16.2364 10.9632 15.231 11.2569 14.3157 11.8443C13.4004 12.4316 12.698 13.2148 12.2085 14.1938C12.698 15.1727 13.4008 15.9559 14.317 16.5432C15.2332 17.1306 16.2391 17.4243 17.3346 17.4243Z" fill="black"/>
</svg>
