<svg width="24" height="24" viewBox="0 0 24 24" fill="none" xmlns="http://www.w3.org/2000/svg">
<mask id="mask0_684_2065" style="mask-type:alpha" maskUnits="userSpaceOnUse" x="0" y="0" width="24" height="24">
<rect width="24" height="24" fill="#D9D9D9"/>
</mask>
<g mask="url(#mask0_684_2065)">
<path d="M3.30775 22.5C2.80258 22.5 2.375 22.325 2.025 21.975C1.675 21.625 1.5 21.1974 1.5 20.6923V18.6345C1.5 18.4217 1.57183 18.2435 1.7155 18.1C1.859 17.9563 2.03717 17.8845 2.25 17.8845C2.46283 17.8845 2.641 17.9563 2.7845 18.1C2.92817 18.2435 3 18.4217 3 18.6345V20.6923C3 20.7821 3.02883 20.8558 3.0865 20.9135C3.14417 20.9712 3.21792 21 3.30775 21H5.3655C5.57833 21 5.7565 21.0718 5.9 21.2155C6.04367 21.359 6.1155 21.5372 6.1155 21.75C6.1155 21.9628 6.04367 22.141 5.9 22.2845C5.7565 22.4282 5.57833 22.5 5.3655 22.5H3.30775ZM20.6923 22.5H18.6345C18.4217 22.5 18.2435 22.4282 18.1 22.2845C17.9563 22.141 17.8845 21.9628 17.8845 21.75C17.8845 21.5372 17.9563 21.359 18.1 21.2155C18.2435 21.0718 18.4217 21 18.6345 21H20.6923C20.7821 21 20.8558 20.9712 20.9135 20.9135C20.9712 20.8558 21 20.7821 21 20.6923V18.6345C21 18.4217 21.0718 18.2435 21.2155 18.1C21.359 17.9563 21.5372 17.8845 21.75 17.8845C21.9628 17.8845 22.141 17.9563 22.2845 18.1C22.4282 18.2435 22.5 18.4217 22.5 18.6345V20.6923C22.5 21.1974 22.325 21.625 21.975 21.975C21.625 22.325 21.1974 22.5 20.6923 22.5ZM12 18.1152C10.3103 18.1152 8.76192 17.6775 7.35475 16.802C5.94775 15.9263 4.83525 14.7122 4.01725 13.1595C3.92375 12.9788 3.85517 12.7939 3.8115 12.6048C3.768 12.4158 3.74625 12.2225 3.74625 12.025C3.74625 11.8173 3.768 11.6132 3.8115 11.4125C3.85517 11.2118 3.92375 11.0212 4.01725 10.8405C4.83525 9.28783 5.94775 8.07367 7.35475 7.198C8.76192 6.3225 10.3103 5.88475 12 5.88475C13.6897 5.88475 15.2381 6.3225 16.6453 7.198C18.0523 8.07367 19.1647 9.28783 19.9827 10.8405C20.0762 11.0212 20.1448 11.2077 20.1885 11.4C20.232 11.5923 20.2538 11.7923 20.2538 12C20.2538 12.2077 20.232 12.4077 20.1885 12.6C20.1448 12.7923 20.0762 12.9788 19.9827 13.1595C19.1647 14.7122 18.0523 15.9263 16.6453 16.802C15.2381 17.6775 13.6897 18.1152 12 18.1152ZM12 16.6155C13.4923 16.6155 14.8436 16.2091 16.0538 15.3962C17.2641 14.5834 18.2038 13.4513 18.873 12C18.2038 10.5487 17.2641 9.41658 16.0538 8.60375C14.8436 7.79092 13.4923 7.3845 12 7.3845C10.5077 7.3845 9.15642 7.79092 7.94625 8.60375C6.73592 9.41658 5.79617 10.5487 5.127 12C5.79617 13.4513 6.73592 14.5834 7.94625 15.3962C9.15642 16.2091 10.5077 16.6155 12 16.6155ZM12 15.1827C12.8833 15.1827 13.6346 14.8731 14.2538 14.2537C14.8731 13.6346 15.1827 12.8833 15.1827 12C15.1827 11.1167 14.8731 10.3654 14.2538 9.74625C13.6346 9.12692 12.8833 8.81725 12 8.81725C11.1167 8.81725 10.3654 9.12692 9.74625 9.74625C9.12692 10.3654 8.81725 11.1167 8.81725 12C8.81725 12.8833 9.12692 13.6346 9.74625 14.2537C10.3654 14.8731 11.1167 15.1827 12 15.1827ZM12 13.6827C11.532 13.6827 11.1346 13.5193 10.8077 13.1923C10.4807 12.8654 10.3173 12.468 10.3173 12C10.3173 11.532 10.4807 11.1346 10.8077 10.8077C11.1346 10.4807 11.532 10.3173 12 10.3173C12.468 10.3173 12.8654 10.4807 13.1923 10.8077C13.5193 11.1346 13.6827 11.532 13.6827 12C13.6827 12.468 13.5193 12.8654 13.1923 13.1923C12.8654 13.5193 12.468 13.6827 12 13.6827ZM5.3655 3H3.30775C3.21792 3 3.14417 3.02883 3.0865 3.0865C3.02883 3.14417 3 3.21792 3 3.30775V6.1155H1.5V3.30775C1.5 2.80258 1.675 2.375 2.025 2.025C2.375 1.675 2.80258 1.5 3.30775 1.5H5.3655C5.57833 1.5 5.7565 1.57183 5.9 1.7155C6.04367 1.859 6.1155 2.03717 6.1155 2.25C6.1155 2.46283 6.04367 2.641 5.9 2.7845C5.7565 2.92817 5.57833 3 5.3655 3ZM22.5 3.30775V5.3655C22.5 5.57833 22.4282 5.7565 22.2845 5.9C22.141 6.04367 21.9628 6.1155 21.75 6.1155C21.5372 6.1155 21.359 6.04367 21.2155 5.9C21.0718 5.7565 21 5.57833 21 5.3655V3.30775C21 3.21792 20.9712 3.14417 20.9135 3.0865C20.8558 3.02883 20.7821 3 20.6923 3H18.6345C18.4217 3 18.2435 2.92817 18.1 2.7845C17.9563 2.641 17.8845 2.46283 17.8845 2.25C17.8845 2.03717 17.9563 1.859 18.1 1.7155C18.2435 1.57183 18.4217 1.5 18.6345 1.5H20.6923C21.1974 1.5 21.625 1.675 21.975 2.025C22.325 2.375 22.5 2.80258 22.5 3.30775Z" fill="black"/>
</g>
</svg>
